<?xml version="1.0" standalone="yes"?>

<svg version="1.1" viewBox="0.0 0.0 565.0 124.0" fill="none" stroke="none" stroke-linecap="square" stroke-miterlimit="10" xmlns="http://www.w3.org/2000/svg" xmlns:xlink="http://www.w3.org/1999/xlink"><path d="M129.39796 32.04996L220.76805 32.04996" fill-rule="nonzero" stroke="#ff9900" stroke-width="3.0" stroke-linejoin="round" stroke-linecap="butt"></path><path d="M83.87701 16.109375L83.87701 14.171875L85.53326 14.171875L85.53326 16.109375L83.87701 16.109375ZM81.75201 31.59375L82.06451 30.171875Q82.56451 30.296875 82.86138 30.296875Q83.37701 30.296875 83.62701 29.960938Q83.87701 29.625 83.87701 28.265625L83.87701 17.90625L85.53326 17.90625L85.53326 28.296875Q85.53326 30.125 85.06451 30.84375Q84.47076 31.765625 83.06451 31.765625Q82.39263 31.765625 81.75201 31.59375ZM94.40826 27.765625L94.40826 26.515625Q93.47076 27.984375 91.65826 27.984375Q90.48638 27.984375 89.494194 27.335938Q88.50201 26.6875 87.962944 25.523438Q87.42388 24.359375 87.42388 22.84375Q87.42388 21.375 87.91607 20.171875Q88.40826 18.96875 89.38482 18.328125Q90.36138 17.6875 91.58013 17.6875Q92.47076 17.6875 93.16607 18.0625Q93.86138 18.4375 94.29888 19.046875L94.29888 14.171875L95.95513 14.171875L95.95513 27.765625L94.40826 27.765625ZM89.12701 22.84375Q89.12701 24.734375 89.931694 25.671875Q90.73638 26.609375 91.81451 26.609375Q92.90826 26.609375 93.67388 25.71875Q94.43951 24.828125 94.43951 22.984375Q94.43951 20.96875 93.65826 20.023438Q92.87701 19.078125 91.73638 19.078125Q90.62701 19.078125 89.87701 19.984375Q89.12701 20.890625 89.12701 22.84375ZM99.93951 27.765625L98.39263 27.765625L98.39263 14.171875L100.04888 14.171875L100.04888 19.015625Q101.11138 17.6875 102.75201 17.6875Q103.65826 17.6875 104.47076 18.054688Q105.28326 18.421875 105.806694 19.085938Q106.33013 19.75 106.62701 20.6875Q106.92388 21.625 106.92388 22.6875Q106.92388 25.21875 105.67388 26.601562Q104.42388 27.984375 102.67388 27.984375Q100.92388 27.984375 99.93951 26.53125L99.93951 27.765625ZM99.92388 22.765625Q99.92388 24.53125 100.39263 25.328125Q101.18951 26.609375 102.53326 26.609375Q103.62701 26.609375 104.42388 25.664062Q105.22076 24.71875 105.22076 22.828125Q105.22076 20.90625 104.45513 19.984375Q103.68951 19.0625 102.61138 19.0625Q101.51763 19.0625 100.72076 20.015625Q99.92388 20.96875 99.92388 22.765625ZM115.20513 24.15625L116.84576 24.375Q116.58013 26.0625 115.47076 27.023438Q114.36138 27.984375 112.73638 27.984375Q110.72076 27.984375 109.494194 26.664062Q108.26763 25.34375 108.26763 22.875Q108.26763 21.28125 108.79107 20.085938Q109.31451 18.890625 110.400444 18.289062Q111.48638 17.6875 112.75201 17.6875Q114.36138 17.6875 115.37701 18.5Q116.39263 19.3125 116.68951 20.8125L115.06451 21.0625Q114.83013 20.0625 114.23638 19.5625Q113.64263 19.0625 112.81451 19.0625Q111.54888 19.0625 110.75982 19.96875Q109.97076 20.875 109.97076 22.828125Q109.97076 24.8125 110.73638 25.710938Q111.50201 26.609375 112.72076 26.609375Q113.70513 26.609375 114.36138 26.007812Q115.01763 25.40625 115.20513 24.15625ZM123.75201 19.8125L123.75201 17.90625L125.65826 17.90625L125.65826 19.8125L123.75201 19.8125ZM123.75201 27.765625L123.75201 25.859375L125.65826 25.859375L125.65826 27.765625L123.75201 27.765625ZM133.64264 31.546875L133.64264 17.90625L135.17389 17.90625L135.17389 19.1875Q135.70514 18.4375 136.38483 18.0625Q137.06451 17.6875 138.01764 17.6875Q139.28326 17.6875 140.25201 18.335938Q141.22076 18.984375 141.71295 20.171875Q142.20514 21.359375 142.20514 22.765625Q142.20514 24.28125 141.65826 25.492188Q141.11139 26.703125 140.08014 27.34375Q139.04889 27.984375 137.90826 27.984375Q137.06451 27.984375 136.40045 27.632812Q135.73639 27.28125 135.31451 26.75L135.31451 31.546875L133.64264 31.546875ZM135.15826 22.890625Q135.15826 24.796875 135.9317 25.703125Q136.70514 26.609375 137.79889 26.609375Q138.90826 26.609375 139.69733 25.671875Q140.48639 24.734375 140.48639 22.75Q140.48639 20.875 139.71295 19.9375Q138.93951 19.0 137.86139 19.0Q136.79889 19.0 135.97858 20.0Q135.15826 21.0 135.15826 22.890625ZM143.39264 22.84375Q143.39264 20.109375 144.92389 18.78125Q146.18951 17.6875 148.01764 17.6875Q150.04889 17.6875 151.33795 19.023438Q152.62701 20.359375 152.62701 22.703125Q152.62701 24.609375 152.0567 25.695312Q151.48639 26.78125 150.40045 27.382812Q149.31451 27.984375 148.01764 27.984375Q145.95514 27.984375 144.67389 26.65625Q143.39264 25.328125 143.39264 22.84375ZM145.11139 22.84375Q145.11139 24.734375 145.93951 25.671875Q146.76764 26.609375 148.01764 26.609375Q149.26764 26.609375 150.08795 25.664062Q150.90826 24.71875 150.90826 22.78125Q150.90826 20.953125 150.08014 20.015625Q149.25201 19.078125 148.01764 19.078125Q146.76764 19.078125 145.93951 20.015625Q145.11139 20.953125 145.11139 22.84375ZM153.72076 24.828125L155.37701 24.5625Q155.51764 25.5625 156.15045 26.085938Q156.78326 26.609375 157.92389 26.609375Q159.08014 26.609375 159.63483 26.140625Q160.18951 25.671875 160.18951 25.046875Q160.18951 24.484375 159.70514 24.15625Q159.36139 23.9375 158.00201 23.59375Q156.15826 23.125 155.44733 22.789062Q154.73639 22.453125 154.3692 21.851562Q154.00201 21.25 154.00201 20.53125Q154.00201 19.875 154.3067 19.3125Q154.61139 18.75 155.12701 18.375Q155.51764 18.09375 156.18951 17.890625Q156.86139 17.6875 157.62701 17.6875Q158.79889 17.6875 159.67389 18.023438Q160.54889 18.359375 160.96295 18.929688Q161.37701 19.5 161.53326 20.453125L159.90826 20.671875Q159.79889 19.921875 159.25983 19.492188Q158.72076 19.0625 157.75201 19.0625Q156.59576 19.0625 156.11139 19.445312Q155.62701 19.828125 155.62701 20.328125Q155.62701 20.65625 155.83014 20.921875Q156.03326 21.1875 156.47076 21.359375Q156.72076 21.453125 157.93951 21.796875Q159.70514 22.265625 160.40826 22.5625Q161.11139 22.859375 161.50983 23.4375Q161.90826 24.015625 161.90826 24.875Q161.90826 25.703125 161.42389 26.445312Q160.93951 27.1875 160.01764 27.585938Q159.09576 27.984375 157.93951 27.984375Q156.01764 27.984375 155.00983 27.1875Q154.00201 26.390625 153.72076 24.828125ZM167.37701 26.265625L167.61139 27.75Q166.90826 27.890625 166.34576 27.890625Q165.43951 27.890625 164.93951 27.601562Q164.43951 27.3125 164.23639 26.851562Q164.03326 26.390625 164.03326 24.875L164.03326 19.21875L162.79889 19.21875L162.79889 17.90625L164.03326 17.90625L164.03326 15.46875L165.68951 14.46875L165.68951 17.90625L167.37701 17.90625L167.37701 19.21875L165.68951 19.21875L165.68951 24.96875Q165.68951 25.6875 165.77545 25.890625Q165.86139 26.09375 166.06451 26.21875Q166.26764 26.34375 166.64264 26.34375Q166.90826 26.34375 167.37701 26.265625ZM168.61139 28.578125L170.22076 28.828125Q170.33014 29.578125 170.79889 29.921875Q171.40826 30.375 172.48639 30.375Q173.65826 30.375 174.28326 29.914062Q174.90826 29.453125 175.14264 28.625Q175.26764 28.109375 175.25201 26.46875Q174.15826 27.765625 172.53326 27.765625Q170.50201 27.765625 169.38483 26.296875Q168.26764 24.828125 168.26764 22.78125Q168.26764 21.375 168.78326 20.179688Q169.29889 18.984375 170.26764 18.335938Q171.23639 17.6875 172.53326 17.6875Q174.28326 17.6875 175.40826 19.09375L175.40826 17.90625L176.95514 17.90625L176.95514 26.421875Q176.95514 28.734375 176.48639 29.695312Q176.01764 30.65625 175.00201 31.210938Q173.98639 31.765625 172.50201 31.765625Q170.73639 31.765625 169.65045 30.96875Q168.56451 30.171875 168.61139 28.578125ZM169.98639 22.65625Q169.98639 24.609375 170.75983 25.5Q171.53326 26.390625 172.68951 26.390625Q173.83014 26.390625 174.61139 25.5Q175.39264 24.609375 175.39264 22.71875Q175.39264 20.90625 174.58795 19.992188Q173.78326 19.078125 172.65826 19.078125Q171.54889 19.078125 170.76764 19.976562Q169.98639 20.875 169.98639 22.65625ZM179.26764 27.765625L179.26764 17.90625L180.76764 17.90625L180.76764 19.40625Q181.34576 18.359375 181.83014 18.023438Q182.31451 17.6875 182.90826 17.6875Q183.75201 17.6875 184.62701 18.234375L184.04889 19.78125Q183.43951 19.421875 182.81451 19.421875Q182.26764 19.421875 181.83795 19.75Q181.40826 20.078125 181.22076 20.65625Q180.93951 21.546875 180.93951 22.609375L180.93951 27.765625L179.26764 27.765625ZM192.25201 24.59375L193.97076 24.8125Q193.56451 26.3125 192.46295 27.148438Q191.36139 27.984375 189.64264 27.984375Q187.48639 27.984375 186.22076 26.65625Q184.95514 25.328125 184.95514 22.921875Q184.95514 20.4375 186.22858 19.0625Q187.50201 17.6875 189.54889 17.6875Q191.53326 17.6875 192.78326 19.03125Q194.03326 20.375 194.03326 22.828125Q194.03326 22.96875 194.01764 23.265625L186.67389 23.265625Q186.76764 24.890625 187.59576 25.75Q188.42389 26.609375 189.65826 26.609375Q190.56451 26.609375 191.21295 26.132812Q191.86139 25.65625 192.25201 24.59375ZM186.76764 21.890625L192.26764 21.890625Q192.15826 20.65625 191.64264 20.03125Q190.84576 19.0625 189.56451 19.0625Q188.42389 19.0625 187.63483 19.835938Q186.84576 20.609375 186.76764 21.890625ZM195.20514 24.828125L196.86139 24.5625Q197.00201 25.5625 197.63483 26.085938Q198.26764 26.609375 199.40826 26.609375Q200.56451 26.609375 201.1192 26.140625Q201.67389 25.671875 201.67389 25.046875Q201.67389 24.484375 201.18951 24.15625Q200.84576 23.9375 199.48639 23.59375Q197.64264 23.125 196.9317 22.789062Q196.22076 22.453125 195.85358 21.851562Q195.48639 21.25 195.48639 20.53125Q195.48639 19.875 195.79108 19.3125Q196.09576 18.75 196.61139 18.375Q197.00201 18.09375 197.67389 17.890625Q198.34576 17.6875 199.11139 17.6875Q200.28326 17.6875 201.15826 18.023438Q202.03326 18.359375 202.44733 18.929688Q202.86139 19.5 203.01764 20.453125L201.39264 20.671875Q201.28326 19.921875 200.7442 19.492188Q200.20514 19.0625 199.23639 19.0625Q198.08014 19.0625 197.59576 19.445312Q197.11139 19.828125 197.11139 20.328125Q197.11139 20.65625 197.31451 20.921875Q197.51764 21.1875 197.95514 21.359375Q198.20514 21.453125 199.42389 21.796875Q201.18951 22.265625 201.89264 22.5625Q202.59576 22.859375 202.9942 23.4375Q203.39264 24.015625 203.39264 24.875Q203.39264 25.703125 202.90826 26.445312Q202.42389 27.1875 201.50201 27.585938Q200.58014 27.984375 199.42389 27.984375Q197.50201 27.984375 196.4942 27.1875Q195.48639 26.390625 195.20514 24.828125ZM211.48639 31.546875L211.48639 26.71875Q211.09576 27.265625 210.40045 27.625Q209.70514 27.984375 208.90826 27.984375Q207.15826 27.984375 205.89264 26.585938Q204.62701 25.1875 204.62701 22.75Q204.62701 21.265625 205.14264 20.085938Q205.65826 18.90625 206.63483 18.296875Q207.61139 17.6875 208.78326 17.6875Q210.61139 17.6875 211.65826 19.234375L211.65826 17.90625L213.15826 17.90625L213.15826 31.546875L211.48639 31.546875ZM206.34576 22.8125Q206.34576 24.71875 207.14264 25.664062Q207.93951 26.609375 209.04889 26.609375Q210.11139 26.609375 210.88483 25.710938Q211.65826 24.8125 211.65826 22.953125Q211.65826 21.0 210.84576 20.0Q210.03326 19.0 208.93951 19.0Q207.84576 19.0 207.09576 19.929688Q206.34576 20.859375 206.34576 22.8125ZM215.54889 27.765625L215.54889 14.171875L217.22076 14.171875L217.22076 27.765625L215.54889 27.765625ZM225.37701 19.8125L225.37701 17.90625L227.28326 17.90625L227.28326 19.8125L225.37701 19.8125ZM225.37701 27.765625L225.37701 25.859375L227.28326 25.859375L227.28326 27.765625L225.37701 27.765625ZM234.01764 28.0L237.95514 13.9375L239.29889 13.9375L235.36139 28.0L234.01764 28.0ZM239.20514 28.0L243.14264 13.9375L244.48639 13.9375L240.54889 28.0L239.20514 28.0ZM245.61139 27.765625L245.61139 14.171875L247.28326 14.171875L247.28326 27.765625L245.61139 27.765625ZM249.15826 22.84375Q249.15826 20.109375 250.68951 18.78125Q251.95514 17.6875 253.78326 17.6875Q255.81451 17.6875 257.10358 19.023438Q258.39264 20.359375 258.39264 22.703125Q258.39264 24.609375 257.82233 25.695312Q257.252 26.78125 256.16608 27.382812Q255.08014 27.984375 253.78326 27.984375Q251.72076 27.984375 250.43951 26.65625Q249.15826 25.328125 249.15826 22.84375ZM250.87701 22.84375Q250.87701 24.734375 251.70514 25.671875Q252.53326 26.609375 253.78326 26.609375Q255.03326 26.609375 255.85358 25.664062Q256.6739 24.71875 256.6739 22.78125Q256.6739 20.953125 255.84576 20.015625Q255.01764 19.078125 253.78326 19.078125Q252.53326 19.078125 251.70514 20.015625Q250.87701 20.953125 250.87701 22.84375ZM266.59576 24.15625L268.2364 24.375Q267.97076 26.0625 266.8614 27.023438Q265.752 27.984375 264.127 27.984375Q262.1114 27.984375 260.88483 26.664062Q259.65826 25.34375 259.65826 22.875Q259.65826 21.28125 260.1817 20.085938Q260.70514 18.890625 261.79108 18.289062Q262.877 17.6875 264.14264 17.6875Q265.752 17.6875 266.76764 18.5Q267.78326 19.3125 268.08014 20.8125L266.45514 21.0625Q266.22076 20.0625 265.627 19.5625Q265.03326 19.0625 264.20514 19.0625Q262.9395 19.0625 262.15045 19.96875Q261.3614 20.875 261.3614 22.828125Q261.3614 24.8125 262.127 25.710938Q262.89264 26.609375 264.1114 26.609375Q265.09576 26.609375 265.752 26.007812Q266.40826 25.40625 266.59576 24.15625ZM275.9239 26.546875Q274.9864 27.34375 274.127 27.664062Q273.26764 27.984375 272.28326 27.984375Q270.6739 27.984375 269.7989 27.195312Q268.9239 26.40625 268.9239 25.171875Q268.9239 24.4375 269.252 23.84375Q269.58014 23.25 270.1114 22.890625Q270.64264 22.53125 271.3145 22.34375Q271.8145 22.203125 272.7989 22.09375Q274.83014 21.84375 275.78326 21.515625Q275.78326 21.171875 275.78326 21.078125Q275.78326 20.0625 275.3145 19.640625Q274.6739 19.078125 273.40826 19.078125Q272.2364 19.078125 271.6739 19.484375Q271.1114 19.890625 270.84576 20.953125L269.20514 20.71875Q269.4395 19.671875 269.94733 19.03125Q270.45514 18.390625 271.41608 18.039062Q272.377 17.6875 273.65826 17.6875Q274.9239 17.6875 275.70514 17.984375Q276.4864 18.28125 276.8614 18.734375Q277.2364 19.1875 277.377 19.875Q277.47076 20.296875 277.47076 21.40625L277.47076 23.640625Q277.47076 25.96875 277.57233 26.585938Q277.6739 27.203125 278.002 27.765625L276.252 27.765625Q275.9864 27.25 275.9239 26.546875ZM275.78326 22.828125Q274.877 23.1875 273.0489 23.453125Q272.01764 23.59375 271.59576 23.78125Q271.1739 23.96875 270.9395 24.328125Q270.70514 24.6875 270.70514 25.125Q270.70514 25.796875 271.21295 26.242188Q271.72076 26.6875 272.6895 26.6875Q273.65826 26.6875 274.40826 26.257812Q275.15826 25.828125 275.51764 25.109375Q275.78326 24.53125 275.78326 23.4375L275.78326 22.828125ZM279.83014 27.765625L279.83014 14.171875L281.502 14.171875L281.502 27.765625L279.83014 27.765625ZM284.002 27.765625L284.002 14.171875L285.6739 14.171875L285.6739 19.046875Q286.84576 17.6875 288.627 17.6875Q289.72076 17.6875 290.52545 18.117188Q291.33014 18.546875 291.6817 19.3125Q292.03326 20.078125 292.03326 21.515625L292.03326 27.765625L290.3614 27.765625L290.3614 21.515625Q290.3614 20.265625 289.8145 19.695312Q289.26764 19.125 288.28326 19.125Q287.53326 19.125 286.88483 19.507812Q286.2364 19.890625 285.95514 20.554688Q285.6739 21.21875 285.6739 22.375L285.6739 27.765625L284.002 27.765625ZM293.76764 22.84375Q293.76764 20.109375 295.2989 18.78125Q296.5645 17.6875 298.39264 17.6875Q300.4239 17.6875 301.71295 19.023438Q303.002 20.359375 303.002 22.703125Q303.002 24.609375 302.4317 25.695312Q301.8614 26.78125 300.77545 27.382812Q299.6895 27.984375 298.39264 27.984375Q296.33014 27.984375 295.0489 26.65625Q293.76764 25.328125 293.76764 22.84375ZM295.4864 22.84375Q295.4864 24.734375 296.3145 25.671875Q297.14264 26.609375 298.39264 26.609375Q299.64264 26.609375 300.46295 25.664062Q301.28326 24.71875 301.28326 22.78125Q301.28326 20.953125 300.45514 20.015625Q299.627 19.078125 298.39264 19.078125Q297.14264 19.078125 296.3145 20.015625Q295.4864 20.953125 295.4864 22.84375ZM304.09576 24.828125L305.752 24.5625Q305.89264 25.5625 306.52545 26.085938Q307.15826 26.609375 308.2989 26.609375Q309.45514 26.609375 310.00983 26.140625Q310.5645 25.671875 310.5645 25.046875Q310.5645 24.484375 310.08014 24.15625Q309.7364 23.9375 308.377 23.59375Q306.53326 23.125 305.82233 22.789062Q305.1114 22.453125 304.7442 21.851562Q304.377 21.25 304.377 20.53125Q304.377 19.875 304.6817 19.3125Q304.9864 18.75 305.502 18.375Q305.89264 18.09375 306.5645 17.890625Q307.2364 17.6875 308.002 17.6875Q309.1739 17.6875 310.0489 18.023438Q310.9239 18.359375 311.33795 18.929688Q311.752 19.5 311.90826 20.453125L310.28326 20.671875Q310.1739 19.921875 309.63483 19.492188Q309.09576 19.0625 308.127 19.0625Q306.97076 19.0625 306.4864 19.445312Q306.002 19.828125 306.002 20.328125Q306.002 20.65625 306.20514 20.921875Q306.40826 21.1875 306.84576 21.359375Q307.09576 21.453125 308.3145 21.796875Q310.08014 22.265625 310.78326 22.5625Q311.4864 22.859375 311.88483 23.4375Q312.28326 24.015625 312.28326 24.875Q312.28326 25.703125 311.7989 26.445312Q311.3145 27.1875 310.39264 27.585938Q309.47076 27.984375 308.3145 27.984375Q306.39264 27.984375 305.38483 27.1875Q304.377 26.390625 304.09576 24.828125ZM317.752 26.265625L317.9864 27.75Q317.28326 27.890625 316.72076 27.890625Q315.8145 27.890625 315.3145 27.601562Q314.8145 27.3125 314.6114 26.851562Q314.40826 26.390625 314.40826 24.875L314.40826 19.21875L313.1739 19.21875L313.1739 17.90625L314.40826 17.90625L314.40826 15.46875L316.0645 14.46875L316.0645 17.90625L317.752 17.90625L317.752 19.21875L316.0645 19.21875L316.0645 24.96875Q316.0645 25.6875 316.15045 25.890625Q316.2364 26.09375 316.4395 26.21875Q316.64264 26.34375 317.01764 26.34375Q317.28326 26.34375 317.752 26.265625ZM324.9239 19.8125L324.9239 17.90625L326.83014 17.90625L326.83014 19.8125L324.9239 19.8125ZM324.9239 27.765625L324.9239 25.859375L326.83014 25.859375L326.83014 27.765625L324.9239 27.765625ZM334.3614 24.203125L336.127 24.046875Q336.3145 25.328125 337.02545 25.976562Q337.7364 26.625 338.7364 26.625Q339.9395 26.625 340.77545 25.71875Q341.6114 24.8125 341.6114 23.296875Q341.6114 21.875 340.8067 21.046875Q340.002 20.21875 338.70514 20.21875Q337.90826 20.21875 337.25983 20.585938Q336.6114 20.953125 336.2364 21.546875L334.65826 21.34375L335.9864 14.34375L342.752 14.34375L342.752 15.953125L337.3145 15.953125L336.58014 19.59375Q337.8145 18.75 339.15826 18.75Q340.9395 18.75 342.16608 19.984375Q343.39264 21.21875 343.39264 23.15625Q343.39264 25.0 342.3145 26.34375Q341.002 28.0 338.7364 28.0Q336.877 28.0 335.70514 26.960938Q334.53326 25.921875 334.3614 24.203125ZM344.8614 15.953125L344.8614 14.34375L353.65826 14.34375L353.65826 15.640625Q352.3614 17.015625 351.08795 19.3125Q349.8145 21.609375 349.1114 24.03125Q348.6114 25.734375 348.47076 27.765625L346.752 27.765625Q346.78326 26.15625 347.38483 23.882812Q347.9864 21.609375 349.1192 19.5Q350.252 17.390625 351.51764 15.953125L344.8614 15.953125ZM360.47076 27.765625L360.47076 24.515625L354.5645 24.515625L354.5645 22.984375L360.78326 14.171875L362.14264 14.171875L362.14264 22.984375L363.9864 22.984375L363.9864 24.515625L362.14264 24.515625L362.14264 27.765625L360.47076 27.765625ZM360.47076 22.984375L360.47076 16.84375L356.22076 22.984375L360.47076 22.984375ZM365.4864 21.0625Q365.4864 18.640625 365.9864 17.171875Q366.4864 15.703125 367.46295 14.90625Q368.4395 14.109375 369.9239 14.109375Q371.01764 14.109375 371.84576 14.546875Q372.6739 14.984375 373.21295 15.8203125Q373.752 16.65625 374.0567 17.84375Q374.3614 19.03125 374.3614 21.0625Q374.3614 23.453125 373.8692 24.921875Q373.377 26.390625 372.40045 27.195312Q371.4239 28.0 369.9239 28.0Q367.95514 28.0 366.84576 26.59375Q365.4864 24.890625 365.4864 21.0625ZM367.20514 21.0625Q367.20514 24.40625 367.9942 25.515625Q368.78326 26.625 369.9239 26.625Q371.08014 26.625 371.8614 25.507812Q372.64264 24.390625 372.64264 21.0625Q372.64264 17.703125 371.8614 16.59375Q371.08014 15.484375 369.90826 15.484375Q368.752 15.484375 368.08014 16.46875Q367.20514 17.703125 367.20514 21.0625ZM380.252 28.0L384.1895 13.9375L385.53326 13.9375L381.59576 28.0L380.252 28.0ZM391.1739 23.90625L392.7989 23.6875Q392.8614 25.234375 393.38483 25.8125Q393.90826 26.390625 394.8145 26.390625Q395.502 26.390625 395.9942 26.078125Q396.4864 25.765625 396.66608 25.234375Q396.84576 24.703125 396.84576 23.53125L396.84576 14.171875L398.65826 14.171875L398.65826 23.4375Q398.65826 25.140625 398.2442 26.078125Q397.83014 27.015625 396.9317 27.507812Q396.03326 28.0 394.83014 28.0Q393.03326 28.0 392.08795 26.96875Q391.14264 25.9375 391.1739 23.90625ZM407.64264 26.546875Q406.70514 27.34375 405.84576 27.664062Q404.9864 27.984375 404.002 27.984375Q402.39264 27.984375 401.51764 27.195312Q400.64264 26.40625 400.64264 25.171875Q400.64264 24.4375 400.97076 23.84375Q401.2989 23.25 401.83014 22.890625Q402.3614 22.53125 403.03326 22.34375Q403.53326 22.203125 404.51764 22.09375Q406.5489 21.84375 407.502 21.515625Q407.502 21.171875 407.502 21.078125Q407.502 20.0625 407.03326 19.640625Q406.39264 19.078125 405.127 19.078125Q403.95514 19.078125 403.39264 19.484375Q402.83014 19.890625 402.5645 20.953125L400.9239 20.71875Q401.15826 19.671875 401.66608 19.03125Q402.1739 18.390625 403.13483 18.039062Q404.09576 17.6875 405.377 17.6875Q406.64264 17.6875 407.4239 17.984375Q408.20514 18.28125 408.58014 18.734375Q408.95514 19.1875 409.09576 19.875Q409.1895 20.296875 409.1895 21.40625L409.1895 23.640625Q409.1895 25.96875 409.29108 26.585938Q409.39264 27.203125 409.72076 27.765625L407.97076 27.765625Q407.70514 27.25 407.64264 26.546875ZM407.502 22.828125Q406.59576 23.1875 404.76764 23.453125Q403.7364 23.59375 403.3145 23.78125Q402.89264 23.96875 402.65826 24.328125Q402.4239 24.6875 402.4239 25.125Q402.4239 25.796875 402.9317 26.242188Q403.4395 26.6875 404.40826 26.6875Q405.377 26.6875 406.127 26.257812Q406.877 25.828125 407.2364 25.109375Q407.502 24.53125 407.502 23.4375L407.502 22.828125ZM411.5645 27.765625L411.5645 17.90625L413.0645 17.90625L413.0645 19.40625Q413.64264 18.359375 414.127 18.023438Q414.6114 17.6875 415.20514 17.6875Q416.0489 17.6875 416.9239 18.234375L416.34576 19.78125Q415.7364 19.421875 415.1114 19.421875Q414.5645 19.421875 414.13483 19.75Q413.70514 20.078125 413.51764 20.65625Q413.2364 21.546875 413.2364 22.609375L413.2364 27.765625L411.5645 27.765625ZM418.1114 27.765625L418.1114 14.171875L427.28326 14.171875L427.28326 15.765625L419.90826 15.765625L419.90826 19.984375L426.28326 19.984375L426.28326 21.59375L419.90826 21.59375L419.90826 27.765625L418.1114 27.765625ZM429.20514 16.078125L429.20514 14.171875L430.877 14.171875L430.877 16.078125L429.20514 16.078125ZM429.20514 27.765625L429.20514 17.90625L430.877 17.90625L430.877 27.765625L429.20514 27.765625ZM433.2989 27.765625L433.2989 14.171875L434.97076 14.171875L434.97076 27.765625L433.2989 27.765625ZM437.4395 27.765625L437.4395 14.171875L439.1114 14.171875L439.1114 27.765625L437.4395 27.765625ZM448.377 24.59375L450.09576 24.8125Q449.6895 26.3125 448.58795 27.148438Q447.4864 27.984375 445.76764 27.984375Q443.6114 27.984375 442.34576 26.65625Q441.08014 25.328125 441.08014 22.921875Q441.08014 20.4375 442.35358 19.0625Q443.627 17.6875 445.6739 17.6875Q447.65826 17.6875 448.90826 19.03125Q450.15826 20.375 450.15826 22.828125Q450.15826 22.96875 450.14264 23.265625L442.7989 23.265625Q442.89264 24.890625 443.72076 25.75Q444.5489 26.609375 445.78326 26.609375Q446.6895 26.609375 447.33795 26.132812Q447.9864 25.65625 448.377 24.59375ZM442.89264 21.890625L448.39264 21.890625Q448.28326 20.65625 447.76764 20.03125Q446.97076 19.0625 445.6895 19.0625Q444.5489 19.0625 443.75983 19.835938Q442.97076 20.609375 442.89264 21.890625ZM451.9864 27.765625L451.9864 17.90625L453.4864 17.90625L453.4864 19.40625Q454.0645 18.359375 454.5489 18.023438Q455.03326 17.6875 455.627 17.6875Q456.47076 17.6875 457.34576 18.234375L456.76764 19.78125Q456.15826 19.421875 455.53326 19.421875Q454.9864 19.421875 454.5567 19.75Q454.127 20.078125 453.9395 20.65625Q453.65826 21.546875 453.65826 22.609375L453.65826 27.765625L451.9864 27.765625ZM458.4239 27.765625L458.4239 14.171875L463.1114 14.171875Q464.6895 14.171875 465.53326 14.359375Q466.6895 14.625 467.51764 15.328125Q468.59576 16.25 469.127 17.664062Q469.65826 19.078125 469.65826 20.890625Q469.65826 22.4375 469.2989 23.632812Q468.9395 24.828125 468.377 25.617188Q467.8145 26.40625 467.14264 26.851562Q466.47076 27.296875 465.51764 27.53125Q464.5645 27.765625 463.33014 27.765625L458.4239 27.765625ZM460.22076 26.15625L463.127 26.15625Q464.47076 26.15625 465.2364 25.90625Q466.002 25.65625 466.45514 25.203125Q467.09576 24.5625 467.45514 23.484375Q467.8145 22.40625 467.8145 20.859375Q467.8145 18.734375 467.1114 17.585938Q466.40826 16.4375 465.40826 16.046875Q464.6895 15.765625 463.08014 15.765625L460.22076 15.765625L460.22076 26.15625ZM471.83014 27.765625L471.83014 14.171875L476.9395 14.171875Q478.4864 14.171875 479.4317 14.578125Q480.377 14.984375 480.90826 15.84375Q481.4395 16.703125 481.4395 17.640625Q481.4395 18.515625 480.97076 19.289062Q480.502 20.0625 479.53326 20.53125Q480.76764 20.890625 481.4317 21.765625Q482.09576 22.640625 482.09576 23.828125Q482.09576 24.78125 481.69733 25.601562Q481.2989 26.421875 480.70514 26.867188Q480.1114 27.3125 479.21295 27.539062Q478.3145 27.765625 477.01764 27.765625L471.83014 27.765625ZM473.627 19.875L476.5645 19.875Q477.76764 19.875 478.28326 19.71875Q478.97076 19.515625 479.32233 19.046875Q479.6739 18.578125 479.6739 17.859375Q479.6739 17.1875 479.34576 16.671875Q479.01764 16.15625 478.41608 15.9609375Q477.8145 15.765625 476.34576 15.765625L473.627 15.765625L473.627 19.875ZM473.627 26.15625L477.01764 26.15625Q477.89264 26.15625 478.2364 26.09375Q478.8614 25.984375 479.28326 25.726562Q479.70514 25.46875 479.97076 24.96875Q480.2364 24.46875 480.2364 23.828125Q480.2364 23.0625 479.84576 22.5Q479.45514 21.9375 478.76764 21.710938Q478.08014 21.484375 476.78326 21.484375L473.627 21.484375L473.627 26.15625Z" fill-rule="nonzero" fill="#000000"></path><path d="M327.94373 32.008198L375.88074 31.976702" fill-rule="nonzero" stroke="#0000ff" stroke-width="3.0" stroke-linejoin="round" stroke-linecap="butt"></path><path d="M384.06088 32.14965L487.87192 31.929178" fill-rule="nonzero" stroke="#674ea7" stroke-width="3.0" stroke-linejoin="round" stroke-linecap="butt"></path><path d="M136.03474 40.103603L97.15217 72.2937" fill-rule="evenodd" stroke="#ff9900" stroke-width="2.0" stroke-linejoin="round" stroke-linecap="butt"></path><path d="M95.04554 69.74909L90.16093 78.081604L99.25879 74.8383Z" fill-rule="evenodd" fill="#ff9900" stroke="#ff9900" stroke-width="2.0" stroke-linecap="butt"></path><path d="M29.78125 90.41056L29.78125 81.09806L32.984375 81.09806Q34.078125 81.09806 34.640625 81.238686Q35.453125 81.426186 36.015625 81.91056Q36.75 82.519936 37.117188 83.488686Q37.484375 84.457436 37.484375 85.707436Q37.484375 86.769936 37.234375 87.59025Q36.984375 88.41056 36.59375 88.94181Q36.203125 89.47306 35.742188 89.78556Q35.28125 90.09806 34.632812 90.25431Q33.984375 90.41056 33.140625 90.41056L29.78125 90.41056ZM31.015625 89.31681L33.0 89.31681Q33.921875 89.31681 34.445312 89.144936Q34.96875 88.97306 35.28125 88.66056Q35.71875 88.22306 35.960938 87.48087Q36.203125 86.738686 36.203125 85.69181Q36.203125 84.22306 35.726562 83.44181Q35.25 82.66056 34.5625 82.394936Q34.0625 82.207436 32.96875 82.207436L31.015625 82.207436L31.015625 89.31681ZM39.25 90.41056L39.25 83.676186L40.28125 83.676186L40.28125 84.69181Q40.671875 83.97306 41.007812 83.7465Q41.34375 83.519936 41.734375 83.519936Q42.3125 83.519936 42.90625 83.87931L42.515625 84.94181Q42.09375 84.69181 41.6875 84.69181Q41.3125 84.69181 41.007812 84.91837Q40.703125 85.144936 40.578125 85.551186Q40.390625 86.16056 40.390625 86.87931L40.390625 90.41056L39.25 90.41056ZM43.703125 82.426186L43.703125 81.09806L44.84375 81.09806L44.84375 82.426186L43.703125 82.426186ZM43.703125 90.41056L43.703125 83.676186L44.84375 83.676186L44.84375 90.41056L43.703125 90.41056ZM48.53125 90.41056L45.96875 83.676186L47.171875 83.676186L48.609375 87.707436Q48.84375 88.363686 49.046875 89.06681Q49.203125 88.53556 49.46875 87.78556L50.96875 83.676186L52.140625 83.676186L49.59375 90.41056L48.53125 90.41056ZM57.9375 88.238686L59.125 88.37931Q58.84375 89.426186 58.085938 89.9965Q57.328125 90.56681 56.15625 90.56681Q54.671875 90.56681 53.804688 89.65275Q52.9375 88.738686 52.9375 87.09806Q52.9375 85.394936 53.820312 84.457436Q54.703125 83.519936 56.09375 83.519936Q57.453125 83.519936 58.304688 84.44181Q59.15625 85.363686 59.15625 87.019936Q59.15625 87.12931 59.15625 87.332436L54.125 87.332436Q54.1875 88.44181 54.75 89.03556Q55.3125 89.62931 56.15625 89.62931Q56.796875 89.62931 57.242188 89.29337Q57.6875 88.957436 57.9375 88.238686ZM54.1875 86.394936L57.953125 86.394936Q57.875 85.53556 57.515625 85.113686Q56.96875 84.457436 56.109375 84.457436Q55.3125 84.457436 54.78125 84.98087Q54.25 85.50431 54.1875 86.394936ZM60.71875 90.41056L60.71875 83.676186L61.75 83.676186L61.75 84.69181Q62.140625 83.97306 62.476562 83.7465Q62.8125 83.519936 63.203125 83.519936Q63.78125 83.519936 64.375 83.87931L63.984375 84.94181Q63.5625 84.69181 63.15625 84.69181Q62.78125 84.69181 62.476562 84.91837Q62.171875 85.144936 62.046875 85.551186Q61.859375 86.16056 61.859375 86.87931L61.859375 90.41056L60.71875 90.41056ZM69.0 90.41056L69.0 81.09806L70.265625 81.09806L75.15625 88.41056L75.15625 81.09806L76.34375 81.09806L76.34375 90.41056L75.078125 90.41056L70.1875 83.09806L70.1875 90.41056L69.0 90.41056ZM82.890625 89.582436Q82.265625 90.113686 81.67969 90.34025Q81.09375 90.56681 80.421875 90.56681Q79.296875 90.56681 78.703125 90.019936Q78.109375 89.47306 78.109375 88.62931Q78.109375 88.144936 78.33594 87.73087Q78.5625 87.31681 78.92969 87.06681Q79.296875 86.81681 79.75 86.69181Q80.078125 86.613686 80.765625 86.519936Q82.140625 86.363686 82.796875 86.12931Q82.8125 85.894936 82.8125 85.832436Q82.8125 85.12931 82.484375 84.84806Q82.046875 84.457436 81.1875 84.457436Q80.375 84.457436 79.99219 84.738686Q79.609375 85.019936 79.421875 85.738686L78.3125 85.59806Q78.453125 84.87931 78.80469 84.434Q79.15625 83.988686 79.82031 83.75431Q80.484375 83.519936 81.34375 83.519936Q82.21875 83.519936 82.75781 83.72306Q83.296875 83.926186 83.546875 84.23087Q83.796875 84.53556 83.90625 85.00431Q83.953125 85.301186 83.953125 86.06681L83.953125 87.582436Q83.953125 89.176186 84.03125 89.59806Q84.109375 90.019936 84.3125 90.41056L83.125 90.41056Q82.953125 90.051186 82.890625 89.582436ZM82.796875 87.019936Q82.171875 87.28556 80.9375 87.457436Q80.234375 87.56681 79.9375 87.69181Q79.640625 87.81681 79.484375 88.059Q79.328125 88.301186 79.328125 88.59806Q79.328125 89.051186 79.671875 89.35587Q80.015625 89.66056 80.6875 89.66056Q81.34375 89.66056 81.859375 89.3715Q82.375 89.082436 82.625 88.582436Q82.796875 88.207436 82.796875 87.44181L82.796875 87.019936ZM85.921875 90.41056L85.921875 83.676186L86.9375 83.676186L86.9375 84.613686Q87.265625 84.113686 87.78906 83.81681Q88.3125 83.519936 88.984375 83.519936Q89.734375 83.519936 90.21094 83.832436Q90.6875 84.144936 90.890625 84.69181Q91.6875 83.519936 92.96875 83.519936Q93.96875 83.519936 94.50781 84.07462Q95.046875 84.62931 95.046875 85.78556L95.046875 90.41056L93.921875 90.41056L93.921875 86.16056Q93.921875 85.47306 93.8125 85.176186Q93.703125 84.87931 93.40625 84.69181Q93.109375 84.50431 92.71875 84.50431Q92.0 84.50431 91.53125 84.98087Q91.0625 85.457436 91.0625 86.488686L91.0625 90.41056L89.921875 90.41056L89.921875 86.03556Q89.921875 85.269936 89.640625 84.88712Q89.359375 84.50431 88.734375 84.50431Q88.25 84.50431 87.84375 84.76212Q87.4375 85.019936 87.25 85.50431Q87.0625 85.988686 87.0625 86.91056L87.0625 90.41056L85.921875 90.41056ZM101.625 88.238686L102.8125 88.37931Q102.53125 89.426186 101.77344 89.9965Q101.015625 90.56681 99.84375 90.56681Q98.359375 90.56681 97.49219 89.65275Q96.625 88.738686 96.625 87.09806Q96.625 85.394936 97.50781 84.457436Q98.390625 83.519936 99.78125 83.519936Q101.140625 83.519936 101.99219 84.44181Q102.84375 85.363686 102.84375 87.019936Q102.84375 87.12931 102.84375 87.332436L97.8125 87.332436Q97.875 88.44181 98.4375 89.03556Q99.0 89.62931 99.84375 89.62931Q100.484375 89.62931 100.92969 89.29337Q101.375 88.957436 101.625 88.238686ZM97.875 86.394936L101.640625 86.394936Q101.5625 85.53556 101.203125 85.113686Q100.65625 84.457436 99.796875 84.457436Q99.0 84.457436 98.46875 84.98087Q97.9375 85.50431 97.875 86.394936ZM104.734375 84.97306L104.734375 83.676186L106.03125 83.676186L106.03125 84.97306L104.734375 84.97306ZM104.734375 90.41056L104.734375 89.113686L106.03125 89.113686L106.03125 90.41056L104.734375 90.41056Z" fill-rule="nonzero" fill="#000000"></path><path d="M15.578125 104.582436Q14.953125 105.113686 14.3671875 105.34025Q13.78125 105.56681 13.109375 105.56681Q11.984375 105.56681 11.390625 105.019936Q10.796875 104.47306 10.796875 103.62931Q10.796875 103.144936 11.0234375 102.73087Q11.25 102.31681 11.6171875 102.06681Q11.984375 101.81681 12.4375 101.69181Q12.765625 101.613686 13.453125 101.519936Q14.828125 101.363686 15.484375 101.12931Q15.5 100.894936 15.5 100.832436Q15.5 100.12931 15.171875 99.84806Q14.734375 99.457436 13.875 99.457436Q13.0625 99.457436 12.6796875 99.738686Q12.296875 100.019936 12.109375 100.738686L11.0 100.59806Q11.140625 99.87931 11.4921875 99.434Q11.84375 98.988686 12.5078125 98.75431Q13.171875 98.519936 14.03125 98.519936Q14.90625 98.519936 15.4453125 98.72306Q15.984375 98.926186 16.234375 99.23087Q16.484375 99.53556 16.59375 100.00431Q16.640625 100.301186 16.640625 101.06681L16.640625 102.582436Q16.640625 104.176186 16.71875 104.59806Q16.796875 105.019936 17.0 105.41056L15.8125 105.41056Q15.640625 105.051186 15.578125 104.582436ZM15.484375 102.019936Q14.859375 102.28556 13.625 102.457436Q12.921875 102.56681 12.625 102.69181Q12.328125 102.81681 12.171875 103.059Q12.015625 103.301186 12.015625 103.59806Q12.015625 104.051186 12.359375 104.35587Q12.703125 104.66056 13.375 104.66056Q14.03125 104.66056 14.546875 104.3715Q15.0625 104.082436 15.3125 103.582436Q15.484375 103.207436 15.484375 102.44181L15.484375 102.019936ZM18.5625 105.41056L18.5625 96.09806L19.703125 96.09806L19.703125 105.41056L18.5625 105.41056ZM22.796875 105.41056L20.734375 98.676186L21.921875 98.676186L23.0 102.56681L23.390625 104.00431Q23.421875 103.894936 23.75 102.613686L24.8125 98.676186L25.984375 98.676186L27.0 102.582436L27.34375 103.863686L27.71875 102.56681L28.875 98.676186L29.984375 98.676186L27.875 105.41056L26.703125 105.41056L25.625 101.37931L25.359375 100.22306L24.0 105.41056L22.796875 105.41056ZM35.578125 104.582436Q34.953125 105.113686 34.367188 105.34025Q33.78125 105.56681 33.109375 105.56681Q31.984375 105.56681 31.390625 105.019936Q30.796875 104.47306 30.796875 103.62931Q30.796875 103.144936 31.023438 102.73087Q31.25 102.31681 31.617188 102.06681Q31.984375 101.81681 32.4375 101.69181Q32.765625 101.613686 33.453125 101.519936Q34.828125 101.363686 35.484375 101.12931Q35.5 100.894936 35.5 100.832436Q35.5 100.12931 35.171875 99.84806Q34.734375 99.457436 33.875 99.457436Q33.0625 99.457436 32.679688 99.738686Q32.296875 100.019936 32.109375 100.738686L31.0 100.59806Q31.140625 99.87931 31.492188 99.434Q31.84375 98.988686 32.507812 98.75431Q33.171875 98.519936 34.03125 98.519936Q34.90625 98.519936 35.445312 98.72306Q35.984375 98.926186 36.234375 99.23087Q36.484375 99.53556 36.59375 100.00431Q36.640625 100.301186 36.640625 101.06681L36.640625 102.582436Q36.640625 104.176186 36.71875 104.59806Q36.796875 105.019936 37.0 105.41056L35.8125 105.41056Q35.640625 105.051186 35.578125 104.582436ZM35.484375 102.019936Q34.859375 102.28556 33.625 102.457436Q32.921875 102.56681 32.625 102.69181Q32.328125 102.81681 32.171875 103.059Q32.015625 103.301186 32.015625 103.59806Q32.015625 104.051186 32.359375 104.35587Q32.703125 104.66056 33.375 104.66056Q34.03125 104.66056 34.546875 104.3715Q35.0625 104.082436 35.3125 103.582436Q35.484375 103.207436 35.484375 102.44181L35.484375 102.019936ZM38.546875 108.00431L38.40625 106.94181Q38.78125 107.03556 39.0625 107.03556Q39.453125 107.03556 39.679688 106.91056Q39.90625 106.78556 40.046875 106.551186Q40.15625 106.37931 40.40625 105.707436Q40.4375 105.613686 40.5 105.426186L37.9375 98.676186L39.171875 98.676186L40.578125 102.56681Q40.84375 103.31681 41.0625 104.12931Q41.265625 103.34806 41.53125 102.59806L42.984375 98.676186L44.125 98.676186L41.5625 105.519936Q41.140625 106.62931 40.921875 107.051186Q40.609375 107.613686 40.21875 107.87931Q39.828125 108.144936 39.28125 108.144936Q38.953125 108.144936 38.546875 108.00431ZM44.8125 103.394936L45.9375 103.22306Q46.03125 103.894936 46.46875 104.26212Q46.90625 104.62931 47.6875 104.62931Q48.46875 104.62931 48.851562 104.309Q49.234375 103.988686 49.234375 103.551186Q49.234375 103.16056 48.890625 102.94181Q48.65625 102.78556 47.71875 102.551186Q46.46875 102.238686 45.984375 102.00431Q45.5 101.769936 45.25 101.363686Q45.0 100.957436 45.0 100.457436Q45.0 100.00431 45.203125 99.6215Q45.40625 99.238686 45.765625 98.988686Q46.03125 98.78556 46.492188 98.65275Q46.953125 98.519936 47.484375 98.519936Q48.265625 98.519936 48.867188 98.7465Q49.46875 98.97306 49.757812 99.363686Q50.046875 99.75431 50.15625 100.41056L49.03125 100.56681Q48.953125 100.03556 48.59375 99.7465Q48.234375 99.457436 47.5625 99.457436Q46.78125 99.457436 46.4375 99.71525Q46.09375 99.97306 46.09375 100.332436Q46.09375 100.551186 46.234375 100.72306Q46.375 100.91056 46.671875 101.03556Q46.84375 101.09806 47.6875 101.31681Q48.90625 101.644936 49.382812 101.84806Q49.859375 102.051186 50.132812 102.44962Q50.40625 102.84806 50.40625 103.426186Q50.40625 104.00431 50.070312 104.50431Q49.734375 105.00431 49.109375 105.28556Q48.484375 105.56681 47.6875 105.56681Q46.375 105.56681 45.6875 105.019936Q45.0 104.47306 44.8125 103.394936ZM55.6875 99.394936L55.359375 97.62931L55.359375 96.09806L56.65625 96.09806L56.65625 97.62931L56.375 99.394936L55.6875 99.394936ZM57.78125 99.394936L57.46875 97.62931L57.46875 96.09806L58.765625 96.09806L58.765625 97.62931L58.46875 99.394936L57.78125 99.394936ZM60.359375 107.988686L60.359375 98.676186L61.390625 98.676186L61.390625 99.551186Q61.765625 99.03556 62.226562 98.77775Q62.6875 98.519936 63.359375 98.519936Q64.21875 98.519936 64.875 98.96525Q65.53125 99.41056 65.86719 100.21525Q66.203125 101.019936 66.203125 101.988686Q66.203125 103.019936 65.83594 103.84806Q65.46875 104.676186 64.75781 105.1215Q64.046875 105.56681 63.265625 105.56681Q62.703125 105.56681 62.25 105.32462Q61.796875 105.082436 61.5 104.707436L61.5 107.988686L60.359375 107.988686ZM61.390625 102.082436Q61.390625 103.37931 61.921875 104.00431Q62.453125 104.62931 63.1875 104.62931Q63.953125 104.62931 64.5 103.98087Q65.046875 103.332436 65.046875 101.988686Q65.046875 100.69181 64.515625 100.051186Q63.984375 99.41056 63.25 99.41056Q62.515625 99.41056 61.953125 100.09025Q61.390625 100.769936 61.390625 102.082436ZM67.34375 102.03556Q67.34375 100.16056 68.375 99.269936Q69.25 98.519936 70.5 98.519936Q71.890625 98.519936 72.77344 99.426186Q73.65625 100.332436 73.65625 101.94181Q73.65625 103.238686 73.265625 103.988686Q72.875 104.738686 72.125 105.15275Q71.375 105.56681 70.5 105.56681Q69.078125 105.56681 68.21094 104.66056Q67.34375 103.75431 67.34375 102.03556ZM68.515625 102.03556Q68.515625 103.332436 69.078125 103.98087Q69.640625 104.62931 70.5 104.62931Q71.34375 104.62931 71.91406 103.98087Q72.484375 103.332436 72.484375 102.00431Q72.484375 100.75431 71.91406 100.10587Q71.34375 99.457436 70.5 99.457436Q69.640625 99.457436 69.078125 100.09806Q68.515625 100.738686 68.515625 102.03556ZM74.734375 103.394936L75.859375 103.22306Q75.953125 103.894936 76.390625 104.26212Q76.828125 104.62931 77.609375 104.62931Q78.390625 104.62931 78.77344 104.309Q79.15625 103.988686 79.15625 103.551186Q79.15625 103.16056 78.8125 102.94181Q78.578125 102.78556 77.640625 102.551186Q76.390625 102.238686 75.90625 102.00431Q75.421875 101.769936 75.171875 101.363686Q74.921875 100.957436 74.921875 100.457436Q74.921875 100.00431 75.125 99.6215Q75.328125 99.238686 75.6875 98.988686Q75.953125 98.78556 76.41406 98.65275Q76.875 98.519936 77.40625 98.519936Q78.1875 98.519936 78.78906 98.7465Q79.390625 98.97306 79.67969 99.363686Q79.96875 99.75431 80.078125 100.41056L78.953125 100.56681Q78.875 100.03556 78.515625 99.7465Q78.15625 99.457436 77.484375 99.457436Q76.703125 99.457436 76.359375 99.71525Q76.015625 99.97306 76.015625 100.332436Q76.015625 100.551186 76.15625 100.72306Q76.296875 100.91056 76.59375 101.03556Q76.765625 101.09806 77.609375 101.31681Q78.828125 101.644936 79.30469 101.84806Q79.78125 102.051186 80.05469 102.44962Q80.328125 102.84806 80.328125 103.426186Q80.328125 104.00431 79.99219 104.50431Q79.65625 105.00431 79.03125 105.28556Q78.40625 105.56681 77.609375 105.56681Q76.296875 105.56681 75.609375 105.019936Q74.921875 104.47306 74.734375 103.394936ZM84.34375 104.394936L84.5 105.394936Q84.015625 105.50431 83.640625 105.50431Q83.015625 105.50431 82.671875 105.301186Q82.328125 105.09806 82.1875 104.77775Q82.046875 104.457436 82.046875 103.44181L82.046875 99.551186L81.21875 99.551186L81.21875 98.676186L82.046875 98.676186L82.046875 97.00431L83.1875 96.31681L83.1875 98.676186L84.34375 98.676186L84.34375 99.551186L83.1875 99.551186L83.1875 103.50431Q83.1875 103.988686 83.25 104.12931Q83.3125 104.269936 83.44531 104.34806Q83.578125 104.426186 83.828125 104.426186Q84.03125 104.426186 84.34375 104.394936ZM85.328125 105.97306L86.453125 106.12931Q86.515625 106.644936 86.828125 106.87931Q87.265625 107.207436 88.0 107.207436Q88.78125 107.207436 89.21875 106.88712Q89.65625 106.56681 89.796875 105.988686Q89.890625 105.644936 89.890625 104.53556Q89.140625 105.41056 88.015625 105.41056Q86.625 105.41056 85.86719 104.41056Q85.109375 103.41056 85.109375 102.00431Q85.109375 101.03556 85.46094 100.22306Q85.8125 99.41056 86.46875 98.96525Q87.125 98.519936 88.03125 98.519936Q89.21875 98.519936 90.0 99.488686L90.0 98.676186L91.046875 98.676186L91.046875 104.488686Q91.046875 106.06681 90.72656 106.72306Q90.40625 107.37931 89.71094 107.76212Q89.015625 108.144936 88.0 108.144936Q86.796875 108.144936 86.05469 107.60587Q85.3125 107.06681 85.328125 105.97306ZM86.28125 101.926186Q86.28125 103.238686 86.80469 103.84806Q87.328125 104.457436 88.125 104.457436Q88.921875 104.457436 89.453125 103.85587Q89.984375 103.25431 89.984375 101.957436Q89.984375 100.72306 89.4375 100.09025Q88.890625 99.457436 88.109375 99.457436Q87.34375 99.457436 86.8125 100.082436Q86.28125 100.707436 86.28125 101.926186ZM92.953125 105.41056L92.953125 98.676186L93.984375 98.676186L93.984375 99.69181Q94.375 98.97306 94.71094 98.7465Q95.046875 98.519936 95.4375 98.519936Q96.015625 98.519936 96.609375 98.87931L96.21875 99.94181Q95.796875 99.69181 95.390625 99.69181Q95.015625 99.69181 94.71094 99.91837Q94.40625 100.144936 94.28125 100.551186Q94.09375 101.16056 94.09375 101.87931L94.09375 105.41056L92.953125 105.41056ZM102.015625 103.238686L103.203125 103.37931Q102.921875 104.426186 102.16406 104.9965Q101.40625 105.56681 100.234375 105.56681Q98.75 105.56681 97.88281 104.65275Q97.015625 103.738686 97.015625 102.09806Q97.015625 100.394936 97.89844 99.457436Q98.78125 98.519936 100.171875 98.519936Q101.53125 98.519936 102.38281 99.44181Q103.234375 100.363686 103.234375 102.019936Q103.234375 102.12931 103.234375 102.332436L98.203125 102.332436Q98.265625 103.44181 98.828125 104.03556Q99.390625 104.62931 100.234375 104.62931Q100.875 104.62931 101.32031 104.29337Q101.765625 103.957436 102.015625 103.238686ZM98.265625 101.394936L102.03125 101.394936Q101.953125 100.53556 101.59375 100.113686Q101.046875 99.457436 100.1875 99.457436Q99.390625 99.457436 98.859375 99.98087Q98.328125 100.50431 98.265625 101.394936ZM104.359375 103.394936L105.484375 103.22306Q105.578125 103.894936 106.015625 104.26212Q106.453125 104.62931 107.234375 104.62931Q108.015625 104.62931 108.39844 104.309Q108.78125 103.988686 108.78125 103.551186Q108.78125 103.16056 108.4375 102.94181Q108.203125 102.78556 107.265625 102.551186Q106.015625 102.238686 105.53125 102.00431Q105.046875 101.769936 104.796875 101.363686Q104.546875 100.957436 104.546875 100.457436Q104.546875 100.00431 104.75 99.6215Q104.953125 99.238686 105.3125 98.988686Q105.578125 98.78556 106.03906 98.65275Q106.5 98.519936 107.03125 98.519936Q107.8125 98.519936 108.41406 98.7465Q109.015625 98.97306 109.30469 99.363686Q109.59375 99.75431 109.703125 100.41056L108.578125 100.56681Q108.5 100.03556 108.140625 99.7465Q107.78125 99.457436 107.109375 99.457436Q106.328125 99.457436 105.984375 99.71525Q105.640625 99.97306 105.640625 100.332436Q105.640625 100.551186 105.78125 100.72306Q105.921875 100.91056 106.21875 101.03556Q106.390625 101.09806 107.234375 101.31681Q108.453125 101.644936 108.92969 101.84806Q109.40625 102.051186 109.67969 102.44962Q109.953125 102.84806 109.953125 103.426186Q109.953125 104.00431 109.61719 104.50431Q109.28125 105.00431 108.65625 105.28556Q108.03125 105.56681 107.234375 105.56681Q105.921875 105.56681 105.234375 105.019936Q104.546875 104.47306 104.359375 103.394936ZM115.78125 107.988686L115.78125 104.69181Q115.515625 105.06681 115.03125 105.31681Q114.546875 105.56681 114.015625 105.56681Q112.8125 105.56681 111.94531 104.60587Q111.078125 103.644936 111.078125 101.97306Q111.078125 100.957436 111.42969 100.15275Q111.78125 99.34806 112.453125 98.934Q113.125 98.519936 113.921875 98.519936Q115.171875 98.519936 115.890625 99.56681L115.890625 98.676186L116.921875 98.676186L116.921875 107.988686L115.78125 107.988686ZM112.25 102.019936Q112.25 103.31681 112.796875 103.97306Q113.34375 104.62931 114.109375 104.62931Q114.84375 104.62931 115.36719 104.00431Q115.890625 103.37931 115.890625 102.12931Q115.890625 100.769936 115.33594 100.09025Q114.78125 99.41056 114.03125 99.41056Q113.296875 99.41056 112.77344 100.04337Q112.25 100.676186 112.25 102.019936ZM118.859375 105.41056L118.859375 96.09806L120.0 96.09806L120.0 105.41056L118.859375 105.41056ZM121.90625 99.394936L121.578125 97.62931L121.578125 96.09806L122.875 96.09806L122.875 97.62931L122.59375 99.394936L121.90625 99.394936ZM124.0 99.394936L123.6875 97.62931L123.6875 96.09806L124.984375 96.09806L124.984375 97.62931L124.6875 99.394936L124.0 99.394936Z" fill-rule="nonzero" fill="#000000"></path><path d="M160.6473 94.48252L160.6473 85.17002L161.86604 85.17002L161.86604 88.998146L166.7098 88.998146L166.7098 85.17002L167.94417 85.17002L167.94417 94.48252L166.7098 94.48252L166.7098 90.091896L161.86604 90.091896L161.86604 94.48252L160.6473 94.48252ZM169.66292 91.10752Q169.66292 89.23252 170.69417 88.341896Q171.56917 87.591896 172.81917 87.591896Q174.2098 87.591896 175.0926 88.498146Q175.97542 89.404396 175.97542 91.01377Q175.97542 92.310646 175.5848 93.060646Q175.19417 93.810646 174.44417 94.22471Q173.69417 94.63877 172.81917 94.63877Q171.3973 94.63877 170.5301 93.73252Q169.66292 92.82627 169.66292 91.10752ZM170.8348 91.10752Q170.8348 92.404396 171.3973 93.05283Q171.9598 93.70127 172.81917 93.70127Q173.66292 93.70127 174.23323 93.05283Q174.80354 92.404396 174.80354 91.07627Q174.80354 89.82627 174.23323 89.17783Q173.66292 88.529396 172.81917 88.529396Q171.9598 88.529396 171.3973 89.17002Q170.8348 89.810646 170.8348 91.10752ZM177.05354 92.466896L178.17854 92.29502Q178.2723 92.966896 178.7098 93.33408Q179.1473 93.70127 179.92854 93.70127Q180.7098 93.70127 181.0926 93.38096Q181.47542 93.060646 181.47542 92.623146Q181.47542 92.23252 181.13167 92.01377Q180.8973 91.85752 179.9598 91.623146Q178.7098 91.310646 178.22542 91.07627Q177.74104 90.841896 177.49104 90.435646Q177.24104 90.029396 177.24104 89.529396Q177.24104 89.07627 177.44417 88.69346Q177.6473 88.310646 178.00667 88.060646Q178.2723 87.85752 178.73323 87.72471Q179.19417 87.591896 179.72542 87.591896Q180.50667 87.591896 181.10823 87.81846Q181.7098 88.04502 181.99886 88.435646Q182.28792 88.82627 182.3973 89.48252L181.2723 89.63877Q181.19417 89.10752 180.8348 88.81846Q180.47542 88.529396 179.80354 88.529396Q179.0223 88.529396 178.67854 88.78721Q178.3348 89.04502 178.3348 89.404396Q178.3348 89.623146 178.47542 89.79502Q178.61604 89.98252 178.91292 90.10752Q179.0848 90.17002 179.92854 90.38877Q181.1473 90.716896 181.62386 90.92002Q182.10042 91.123146 182.37386 91.52158Q182.6473 91.92002 182.6473 92.498146Q182.6473 93.07627 182.31136 93.57627Q181.97542 94.07627 181.35042 94.35752Q180.72542 94.63877 179.92854 94.63877Q178.61604 94.63877 177.92854 94.091896Q177.24104 93.54502 177.05354 92.466896ZM186.66292 93.466896L186.81917 94.466896Q186.3348 94.57627 185.9598 94.57627Q185.3348 94.57627 184.99104 94.373146Q184.6473 94.17002 184.50667 93.84971Q184.36604 93.529396 184.36604 92.51377L184.36604 88.623146L183.53792 88.623146L183.53792 87.748146L184.36604 87.748146L184.36604 86.07627L185.50667 85.38877L185.50667 87.748146L186.66292 87.748146L186.66292 88.623146L185.50667 88.623146L185.50667 92.57627Q185.50667 93.060646 185.56917 93.20127Q185.63167 93.341896 185.76448 93.42002Q185.8973 93.498146 186.1473 93.498146Q186.35042 93.498146 186.66292 93.466896ZM191.56917 94.48252L191.56917 87.748146L192.60042 87.748146L192.60042 88.70127Q193.3348 87.591896 194.74104 87.591896Q195.35042 87.591896 195.85823 87.810646Q196.36604 88.029396 196.62386 88.38096Q196.88167 88.73252 196.97542 89.23252Q197.03792 89.54502 197.03792 90.341896L197.03792 94.48252L195.8973 94.48252L195.8973 90.38877Q195.8973 89.685646 195.76448 89.341896Q195.63167 88.998146 195.29573 88.78721Q194.9598 88.57627 194.50667 88.57627Q193.7723 88.57627 193.24104 89.03721Q192.7098 89.498146 192.7098 90.79502L192.7098 94.48252L191.56917 94.48252ZM203.36604 93.654396Q202.74104 94.185646 202.1551 94.41221Q201.56917 94.63877 200.8973 94.63877Q199.7723 94.63877 199.17854 94.091896Q198.5848 93.54502 198.5848 92.70127Q198.5848 92.216896 198.81136 91.80283Q199.03792 91.38877 199.4051 91.13877Q199.7723 90.88877 200.22542 90.76377Q200.55354 90.685646 201.24104 90.591896Q202.61604 90.435646 203.2723 90.20127Q203.28792 89.966896 203.28792 89.904396Q203.28792 89.20127 202.9598 88.92002Q202.5223 88.529396 201.66292 88.529396Q200.85042 88.529396 200.4676 88.810646Q200.0848 89.091896 199.8973 89.810646L198.78792 89.67002Q198.92854 88.95127 199.2801 88.50596Q199.63167 88.060646 200.29573 87.82627Q200.9598 87.591896 201.81917 87.591896Q202.69417 87.591896 203.23323 87.79502Q203.7723 87.998146 204.0223 88.30283Q204.2723 88.60752 204.38167 89.07627Q204.42854 89.373146 204.42854 90.13877L204.42854 91.654396Q204.42854 93.248146 204.50667 93.67002Q204.5848 94.091896 204.78792 94.48252L203.60042 94.48252Q203.42854 94.123146 203.36604 93.654396ZM203.2723 91.091896Q202.6473 91.35752 201.41292 91.529396Q200.7098 91.63877 200.41292 91.76377Q200.11604 91.88877 199.9598 92.13096Q199.80354 92.373146 199.80354 92.67002Q199.80354 93.123146 200.1473 93.42783Q200.49104 93.73252 201.16292 93.73252Q201.81917 93.73252 202.3348 93.44346Q202.85042 93.154396 203.10042 92.654396Q203.2723 92.279396 203.2723 91.51377L203.2723 91.091896ZM206.3973 94.48252L206.3973 87.748146L207.41292 87.748146L207.41292 88.685646Q207.74104 88.185646 208.26448 87.88877Q208.78792 87.591896 209.4598 87.591896Q210.2098 87.591896 210.68636 87.904396Q211.16292 88.216896 211.36604 88.76377Q212.16292 87.591896 213.44417 87.591896Q214.44417 87.591896 214.98323 88.14658Q215.5223 88.70127 215.5223 89.85752L215.5223 94.48252L214.3973 94.48252L214.3973 90.23252Q214.3973 89.54502 214.28792 89.248146Q214.17854 88.95127 213.88167 88.76377Q213.5848 88.57627 213.19417 88.57627Q212.47542 88.57627 212.00667 89.05283Q211.53792 89.529396 211.53792 90.560646L211.53792 94.48252L210.3973 94.48252L210.3973 90.10752Q210.3973 89.341896 210.11604 88.95908Q209.8348 88.57627 209.2098 88.57627Q208.72542 88.57627 208.31917 88.83408Q207.91292 89.091896 207.72542 89.57627Q207.53792 90.060646 207.53792 90.98252L207.53792 94.48252L206.3973 94.48252ZM222.10042 92.310646L223.28792 92.45127Q223.00667 93.498146 222.24886 94.06846Q221.49104 94.63877 220.31917 94.63877Q218.8348 94.63877 217.9676 93.72471Q217.10042 92.810646 217.10042 91.17002Q217.10042 89.466896 217.98323 88.529396Q218.86604 87.591896 220.25667 87.591896Q221.61604 87.591896 222.4676 88.51377Q223.31917 89.435646 223.31917 91.091896Q223.31917 91.20127 223.31917 91.404396L218.28792 91.404396Q218.35042 92.51377 218.91292 93.10752Q219.47542 93.70127 220.31917 93.70127Q220.9598 93.70127 221.4051 93.36533Q221.85042 93.029396 222.10042 92.310646ZM218.35042 90.466896L222.11604 90.466896Q222.03792 89.60752 221.67854 89.185646Q221.13167 88.529396 220.2723 88.529396Q219.47542 88.529396 218.94417 89.05283Q218.41292 89.57627 218.35042 90.466896Z" fill-rule="nonzero" fill="#000000"></path><path d="M351.94342 39.95856L334.25983 69.735344" fill-rule="evenodd" stroke="#073763" stroke-width="2.0" stroke-linejoin="round" stroke-linecap="butt"></path><path d="M331.41946 68.04854L329.62537 77.53913L337.10016 71.42215Z" fill-rule="evenodd" fill="#073763" stroke="#073763" stroke-width="2.0" stroke-linecap="butt"></path><path d="M440.4893 97.42927L440.4893 88.11677L443.6924 88.11677Q444.78616 88.11677 445.34866 88.25739Q446.16116 88.44489 446.72366 88.92927Q447.45804 89.53864 447.82523 90.50739Q448.1924 91.47614 448.1924 92.72614Q448.1924 93.78864 447.9424 94.608955Q447.6924 95.42927 447.3018 95.96052Q446.91116 96.49177 446.45023 96.80427Q445.9893 97.11677 445.34085 97.27302Q444.6924 97.42927 443.84866 97.42927L440.4893 97.42927ZM441.72366 96.33552L443.70804 96.33552Q444.6299 96.33552 445.15335 96.16364Q445.6768 95.99177 445.9893 95.67927Q446.4268 95.24177 446.66898 94.49958Q446.91116 93.75739 446.91116 92.71052Q446.91116 91.24177 446.4346 90.46052Q445.95804 89.67927 445.27054 89.41364Q444.77054 89.22614 443.6768 89.22614L441.72366 89.22614L441.72366 96.33552ZM454.3643 96.60114Q453.7393 97.13239 453.15335 97.358955Q452.5674 97.58552 451.89554 97.58552Q450.77054 97.58552 450.1768 97.03864Q449.58304 96.49177 449.58304 95.64802Q449.58304 95.16364 449.8096 94.74958Q450.03616 94.33552 450.40335 94.08552Q450.77054 93.83552 451.22366 93.71052Q451.5518 93.63239 452.2393 93.53864Q453.6143 93.38239 454.27054 93.14802Q454.28616 92.91364 454.28616 92.85114Q454.28616 92.14802 453.95804 91.86677Q453.52054 91.47614 452.66116 91.47614Q451.84866 91.47614 451.46585 91.75739Q451.08304 92.03864 450.89554 92.75739L449.78616 92.61677Q449.9268 91.89802 450.27835 91.452705Q450.6299 91.00739 451.29398 90.77302Q451.95804 90.53864 452.8174 90.53864Q453.6924 90.53864 454.23148 90.74177Q454.77054 90.94489 455.02054 91.24958Q455.27054 91.55427 455.3799 92.02302Q455.4268 92.31989 455.4268 93.08552L455.4268 94.60114Q455.4268 96.19489 455.5049 96.61677Q455.58304 97.03864 455.78616 97.42927L454.59866 97.42927Q454.4268 97.06989 454.3643 96.60114ZM454.27054 94.03864Q453.64554 94.30427 452.41116 94.47614Q451.70804 94.58552 451.41116 94.71052Q451.1143 94.83552 450.95804 95.077705Q450.8018 95.31989 450.8018 95.61677Q450.8018 96.06989 451.14554 96.37458Q451.4893 96.67927 452.16116 96.67927Q452.8174 96.67927 453.33304 96.390205Q453.84866 96.10114 454.09866 95.60114Q454.27054 95.22614 454.27054 94.46052L454.27054 94.03864ZM459.8799 96.41364L460.03616 97.41364Q459.5518 97.52302 459.1768 97.52302Q458.5518 97.52302 458.20804 97.31989Q457.8643 97.11677 457.72366 96.796455Q457.58304 96.47614 457.58304 95.46052L457.58304 91.56989L456.7549 91.56989L456.7549 90.69489L457.58304 90.69489L457.58304 89.02302L458.72366 88.33552L458.72366 90.69489L459.8799 90.69489L459.8799 91.56989L458.72366 91.56989L458.72366 95.52302Q458.72366 96.00739 458.78616 96.14802Q458.84866 96.28864 458.98148 96.36677Q459.1143 96.44489 459.3643 96.44489Q459.5674 96.44489 459.8799 96.41364ZM465.47366 96.60114Q464.84866 97.13239 464.26273 97.358955Q463.6768 97.58552 463.0049 97.58552Q461.8799 97.58552 461.28616 97.03864Q460.6924 96.49177 460.6924 95.64802Q460.6924 95.16364 460.91898 94.74958Q461.14554 94.33552 461.51273 94.08552Q461.8799 93.83552 462.33304 93.71052Q462.66116 93.63239 463.34866 93.53864Q464.72366 93.38239 465.3799 93.14802Q465.39554 92.91364 465.39554 92.85114Q465.39554 92.14802 465.0674 91.86677Q464.6299 91.47614 463.77054 91.47614Q462.95804 91.47614 462.57523 91.75739Q462.1924 92.03864 462.0049 92.75739L460.89554 92.61677Q461.03616 91.89802 461.38773 91.452705Q461.7393 91.00739 462.40335 90.77302Q463.0674 90.53864 463.9268 90.53864Q464.8018 90.53864 465.34085 90.74177Q465.8799 90.94489 466.1299 91.24958Q466.3799 91.55427 466.4893 92.02302Q466.53616 92.31989 466.53616 93.08552L466.53616 94.60114Q466.53616 96.19489 466.6143 96.61677Q466.6924 97.03864 466.89554 97.42927L465.70804 97.42927Q465.53616 97.06989 465.47366 96.60114ZM465.3799 94.03864Q464.7549 94.30427 463.52054 94.47614Q462.8174 94.58552 462.52054 94.71052Q462.22366 94.83552 462.0674 95.077705Q461.91116 95.31989 461.91116 95.61677Q461.91116 96.06989 462.2549 96.37458Q462.59866 96.67927 463.27054 96.67927Q463.9268 96.67927 464.4424 96.390205Q464.95804 96.10114 465.20804 95.60114Q465.3799 95.22614 465.3799 94.46052L465.3799 94.03864ZM469.53616 97.42927L468.47366 97.42927L468.47366 88.11677L469.6299 88.11677L469.6299 91.44489Q470.34866 90.53864 471.47366 90.53864Q472.09866 90.53864 472.65335 90.78864Q473.20804 91.03864 473.5674 91.49177Q473.9268 91.94489 474.1299 92.58552Q474.33304 93.22614 474.33304 93.96052Q474.33304 95.69489 473.47366 96.640205Q472.6143 97.58552 471.41116 97.58552Q470.22366 97.58552 469.53616 96.58552L469.53616 97.42927ZM469.52054 94.00739Q469.52054 95.22614 469.8643 95.75739Q470.39554 96.64802 471.3174 96.64802Q472.0674 96.64802 472.6143 95.99177Q473.16116 95.33552 473.16116 94.05427Q473.16116 92.72614 472.63773 92.10114Q472.1143 91.47614 471.3643 91.47614Q470.6143 91.47614 470.0674 92.12458Q469.52054 92.77302 469.52054 94.00739ZM480.3018 96.60114Q479.6768 97.13239 479.09085 97.358955Q478.5049 97.58552 477.83304 97.58552Q476.70804 97.58552 476.1143 97.03864Q475.52054 96.49177 475.52054 95.64802Q475.52054 95.16364 475.7471 94.74958Q475.97366 94.33552 476.34085 94.08552Q476.70804 93.83552 477.16116 93.71052Q477.4893 93.63239 478.1768 93.53864Q479.5518 93.38239 480.20804 93.14802Q480.22366 92.91364 480.22366 92.85114Q480.22366 92.14802 479.89554 91.86677Q479.45804 91.47614 478.59866 91.47614Q477.78616 91.47614 477.40335 91.75739Q477.02054 92.03864 476.83304 92.75739L475.72366 92.61677Q475.8643 91.89802 476.21585 91.452705Q476.5674 91.00739 477.23148 90.77302Q477.89554 90.53864 478.7549 90.53864Q479.6299 90.53864 480.16898 90.74177Q480.70804 90.94489 480.95804 91.24958Q481.20804 91.55427 481.3174 92.02302Q481.3643 92.31989 481.3643 93.08552L481.3643 94.60114Q481.3643 96.19489 481.4424 96.61677Q481.52054 97.03864 481.72366 97.42927L480.53616 97.42927Q480.3643 97.06989 480.3018 96.60114ZM480.20804 94.03864Q479.58304 94.30427 478.34866 94.47614Q477.64554 94.58552 477.34866 94.71052Q477.0518 94.83552 476.89554 95.077705Q476.7393 95.31989 476.7393 95.61677Q476.7393 96.06989 477.08304 96.37458Q477.4268 96.67927 478.09866 96.67927Q478.7549 96.67927 479.27054 96.390205Q479.78616 96.10114 480.03616 95.60114Q480.20804 95.22614 480.20804 94.46052L480.20804 94.03864ZM482.8643 95.41364L483.9893 95.24177Q484.08304 95.91364 484.52054 96.28083Q484.95804 96.64802 485.7393 96.64802Q486.52054 96.64802 486.90335 96.327705Q487.28616 96.00739 487.28616 95.56989Q487.28616 95.17927 486.9424 94.96052Q486.70804 94.80427 485.77054 94.56989Q484.52054 94.25739 484.03616 94.02302Q483.5518 93.78864 483.3018 93.38239Q483.0518 92.97614 483.0518 92.47614Q483.0518 92.02302 483.2549 91.640205Q483.45804 91.25739 483.8174 91.00739Q484.08304 90.80427 484.54398 90.671455Q485.0049 90.53864 485.53616 90.53864Q486.3174 90.53864 486.91898 90.765205Q487.52054 90.99177 487.8096 91.38239Q488.09866 91.77302 488.20804 92.42927L487.08304 92.58552Q487.0049 92.05427 486.64554 91.765205Q486.28616 91.47614 485.6143 91.47614Q484.83304 91.47614 484.4893 91.733955Q484.14554 91.99177 484.14554 92.35114Q484.14554 92.56989 484.28616 92.74177Q484.4268 92.92927 484.72366 93.05427Q484.89554 93.11677 485.7393 93.33552Q486.95804 93.66364 487.4346 93.86677Q487.91116 94.06989 488.1846 94.46833Q488.45804 94.86677 488.45804 95.44489Q488.45804 96.02302 488.1221 96.52302Q487.78616 97.02302 487.16116 97.30427Q486.53616 97.58552 485.7393 97.58552Q484.4268 97.58552 483.7393 97.03864Q483.0518 96.49177 482.8643 95.41364ZM494.59866 95.25739L495.78616 95.39802Q495.5049 96.44489 494.7471 97.015205Q493.9893 97.58552 492.8174 97.58552Q491.33304 97.58552 490.46585 96.671455Q489.59866 95.75739 489.59866 94.11677Q489.59866 92.41364 490.48148 91.47614Q491.3643 90.53864 492.7549 90.53864Q494.1143 90.53864 494.96585 91.46052Q495.8174 92.38239 495.8174 94.03864Q495.8174 94.14802 495.8174 94.35114L490.78616 94.35114Q490.84866 95.46052 491.41116 96.05427Q491.97366 96.64802 492.8174 96.64802Q493.45804 96.64802 493.90335 96.31208Q494.34866 95.97614 494.59866 95.25739ZM490.84866 93.41364L494.6143 93.41364Q494.53616 92.55427 494.1768 92.13239Q493.6299 91.47614 492.77054 91.47614Q491.97366 91.47614 491.4424 91.99958Q490.91116 92.52302 490.84866 93.41364ZM501.09866 97.42927L501.09866 90.69489L502.1299 90.69489L502.1299 91.64802Q502.8643 90.53864 504.27054 90.53864Q504.8799 90.53864 505.38773 90.75739Q505.89554 90.97614 506.15335 91.327705Q506.41116 91.67927 506.5049 92.17927Q506.5674 92.49177 506.5674 93.28864L506.5674 97.42927L505.4268 97.42927L505.4268 93.33552Q505.4268 92.63239 505.29398 92.28864Q505.16116 91.94489 504.82523 91.733955Q504.4893 91.52302 504.03616 91.52302Q503.3018 91.52302 502.77054 91.983955Q502.2393 92.44489 502.2393 93.74177L502.2393 97.42927L501.09866 97.42927ZM512.9112 96.60114Q512.2862 97.13239 511.70023 97.358955Q511.1143 97.58552 510.4424 97.58552Q509.3174 97.58552 508.72366 97.03864Q508.1299 96.49177 508.1299 95.64802Q508.1299 95.16364 508.35648 94.74958Q508.58304 94.33552 508.95023 94.08552Q509.3174 93.83552 509.77054 93.71052Q510.09866 93.63239 510.78616 93.53864Q512.1612 93.38239 512.81744 93.14802Q512.83307 92.91364 512.83307 92.85114Q512.83307 92.14802 512.50494 91.86677Q512.06744 91.47614 511.20804 91.47614Q510.39554 91.47614 510.01273 91.75739Q509.6299 92.03864 509.4424 92.75739L508.33304 92.61677Q508.47366 91.89802 508.82523 91.452705Q509.1768 91.00739 509.84085 90.77302Q510.5049 90.53864 511.3643 90.53864Q512.2393 90.53864 512.7784 90.74177Q513.31744 90.94489 513.56744 91.24958Q513.81744 91.55427 513.9268 92.02302Q513.9737 92.31989 513.9737 93.08552L513.9737 94.60114Q513.9737 96.19489 514.0518 96.61677Q514.12994 97.03864 514.33307 97.42927L513.14557 97.42927Q512.9737 97.06989 512.9112 96.60114ZM512.81744 94.03864Q512.19244 94.30427 510.95804 94.47614Q510.2549 94.58552 509.95804 94.71052Q509.66116 94.83552 509.5049 95.077705Q509.34866 95.31989 509.34866 95.61677Q509.34866 96.06989 509.6924 96.37458Q510.03616 96.67927 510.70804 96.67927Q511.3643 96.67927 511.8799 96.390205Q512.39557 96.10114 512.64557 95.60114Q512.81744 95.22614 512.81744 94.46052L512.81744 94.03864ZM515.9268 97.42927L515.9268 90.69489L516.94244 90.69489L516.94244 91.63239Q517.27057 91.13239 517.794 90.83552Q518.31744 90.53864 518.9893 90.53864Q519.7393 90.53864 520.2159 90.85114Q520.69244 91.16364 520.89557 91.71052Q521.69244 90.53864 522.9737 90.53864Q523.9737 90.53864 524.51276 91.09333Q525.0518 91.64802 525.0518 92.80427L525.0518 97.42927L523.9268 97.42927L523.9268 93.17927Q523.9268 92.49177 523.81744 92.19489Q523.70807 91.89802 523.4112 91.71052Q523.1143 91.52302 522.7237 91.52302Q522.00494 91.52302 521.5362 91.99958Q521.06744 92.47614 521.06744 93.50739L521.06744 97.42927L519.9268 97.42927L519.9268 93.05427Q519.9268 92.28864 519.64557 91.90583Q519.3643 91.52302 518.7393 91.52302Q518.25494 91.52302 517.8487 91.78083Q517.44244 92.03864 517.25494 92.52302Q517.06744 93.00739 517.06744 93.92927L517.06744 97.42927L515.9268 97.42927ZM531.62994 95.25739L532.81744 95.39802Q532.5362 96.44489 531.7784 97.015205Q531.02057 97.58552 529.8487 97.58552Q528.3643 97.58552 527.49713 96.671455Q526.62994 95.75739 526.62994 94.11677Q526.62994 92.41364 527.51276 91.47614Q528.39557 90.53864 529.7862 90.53864Q531.14557 90.53864 531.99713 91.46052Q532.8487 92.38239 532.8487 94.03864Q532.8487 94.14802 532.8487 94.35114L527.81744 94.35114Q527.87994 95.46052 528.44244 96.05427Q529.00494 96.64802 529.8487 96.64802Q530.4893 96.64802 530.93463 96.31208Q531.37994 95.97614 531.62994 95.25739ZM527.87994 93.41364L531.64557 93.41364Q531.56744 92.55427 531.20807 92.13239Q530.6612 91.47614 529.8018 91.47614Q529.00494 91.47614 528.4737 91.99958Q527.94244 92.52302 527.87994 93.41364Z" fill-rule="nonzero" fill="#000000"></path><path d="M448.11002 39.97088L472.6371 70.57544" fill-rule="evenodd" stroke="#674ea7" stroke-width="2.0" stroke-linejoin="round" stroke-linecap="butt"></path><path d="M470.0593 72.64133L478.31305 77.65785L475.21487 68.50955Z" fill-rule="evenodd" fill="#674ea7" stroke="#674ea7" stroke-width="2.0" stroke-linecap="butt"></path><path d="M232.13559 31.899986L319.97812 31.86849" fill-rule="nonzero" stroke="#ff0000" stroke-width="3.0" stroke-linejoin="round" stroke-linecap="butt"></path><path d="M231.86243 39.862667L207.45233 70.59238" fill-rule="evenodd" stroke="#ff0000" stroke-width="2.0" stroke-linejoin="round" stroke-linecap="butt"></path><path d="M204.86565 68.53764L201.807 77.69924L210.03902 72.6471Z" fill-rule="evenodd" fill="#ff0000" stroke="#ff0000" stroke-width="2.0" stroke-linecap="butt"></path><path d="M314.82727 90.36037L314.82727 81.04787L318.3429 81.04787Q319.26477 81.04787 319.74915 81.14162Q320.43665 81.25099 320.9054 81.571304Q321.37415 81.89162 321.6554 82.46974Q321.93665 83.04787 321.93665 83.75099Q321.93665 84.93849 321.17883 85.758804Q320.42102 86.57912 318.45227 86.57912L316.06165 86.57912L316.06165 90.36037L314.82727 90.36037ZM316.06165 85.48537L318.4679 85.48537Q319.6554 85.48537 320.1632 85.040054Q320.67102 84.59474 320.67102 83.78224Q320.67102 83.20412 320.37415 82.790054Q320.07727 82.37599 319.5929 82.23537Q319.2804 82.15724 318.43665 82.15724L316.06165 82.15724L316.06165 85.48537ZM323.1554 86.98537Q323.1554 85.11037 324.18665 84.21974Q325.06165 83.46974 326.31165 83.46974Q327.70227 83.46974 328.58508 84.37599Q329.4679 85.28224 329.4679 86.89162Q329.4679 88.18849 329.07727 88.93849Q328.68665 89.68849 327.93665 90.102554Q327.18665 90.51662 326.31165 90.51662Q324.88977 90.51662 324.02258 89.61037Q323.1554 88.70412 323.1554 86.98537ZM324.32727 86.98537Q324.32727 88.28224 324.88977 88.93068Q325.45227 89.57912 326.31165 89.57912Q327.1554 89.57912 327.7257 88.93068Q328.29602 88.28224 328.29602 86.95412Q328.29602 85.70412 327.7257 85.05568Q327.1554 84.40724 326.31165 84.40724Q325.45227 84.40724 324.88977 85.04787Q324.32727 85.68849 324.32727 86.98537ZM330.9679 90.36037L330.9679 83.62599L331.99915 83.62599L331.99915 84.64162Q332.38977 83.92287 332.7257 83.696304Q333.06165 83.46974 333.45227 83.46974Q334.0304 83.46974 334.62415 83.82912L334.23352 84.89162Q333.81165 84.64162 333.4054 84.64162Q333.0304 84.64162 332.7257 84.86818Q332.42102 85.09474 332.29602 85.50099Q332.10852 86.11037 332.10852 86.82912L332.10852 90.36037L330.9679 90.36037ZM337.92102 89.34474L338.07727 90.34474Q337.5929 90.45412 337.2179 90.45412Q336.5929 90.45412 336.24915 90.25099Q335.9054 90.04787 335.76477 89.727554Q335.62415 89.40724 335.62415 88.39162L335.62415 84.50099L334.79602 84.50099L334.79602 83.62599L335.62415 83.62599L335.62415 81.95412L336.76477 81.26662L336.76477 83.62599L337.92102 83.62599L337.92102 84.50099L336.76477 84.50099L336.76477 88.45412Q336.76477 88.93849 336.82727 89.07912Q336.88977 89.21974 337.02258 89.29787Q337.1554 89.37599 337.4054 89.37599Q337.60852 89.37599 337.92102 89.34474ZM339.43665 84.92287L339.43665 83.62599L340.73352 83.62599L340.73352 84.92287L339.43665 84.92287ZM339.43665 90.36037L339.43665 89.06349L340.73352 89.06349L340.73352 90.36037L339.43665 90.36037Z" fill-rule="nonzero" fill="#000000"></path><path d="M255.46788 102.92287L256.6554 102.81349Q256.79602 103.70412 257.2804 104.14162Q257.76477 104.57912 258.45227 104.57912Q259.2804 104.57912 259.8507 103.95412Q260.42102 103.32912 260.42102 102.31349Q260.42102 101.32912 259.87415 100.76662Q259.32727 100.20412 258.43665 100.20412Q257.87415 100.20412 257.42883 100.45412Q256.98352 100.70412 256.73352 101.09474L255.671 100.95412L256.56165 96.18849L261.18665 96.18849L261.18665 97.26662L257.48352 97.26662L256.98352 99.76662Q257.81165 99.18849 258.73352 99.18849Q259.95227 99.18849 260.7882 100.03224Q261.62415 100.87599 261.62415 102.20412Q261.62415 103.46974 260.88977 104.39162Q259.99915 105.51662 258.45227 105.51662Q257.18665 105.51662 256.38196 104.80568Q255.57726 104.09474 255.46788 102.92287ZM262.93665 97.26662L262.93665 96.17287L268.9679 96.17287L268.9679 97.06349Q268.07727 98.01662 267.20227 99.57912Q266.32727 101.14162 265.85852 102.79787Q265.51477 103.96974 265.42102 105.36037L264.24915 105.36037Q264.26477 104.26662 264.67883 102.71193Q265.0929 101.15724 265.85852 99.71193Q266.62415 98.26662 267.49915 97.26662L262.93665 97.26662ZM273.93665 105.36037L273.93665 103.12599L269.9054 103.12599L269.9054 102.07912L274.13977 96.04787L275.07727 96.04787L275.07727 102.07912L276.3429 102.07912L276.3429 103.12599L275.07727 103.12599L275.07727 105.36037L273.93665 105.36037ZM273.93665 102.07912L273.93665 97.89162L271.01477 102.07912L273.93665 102.07912ZM277.70227 100.76662Q277.70227 99.12599 278.0382 98.11818Q278.37415 97.11037 279.04602 96.56349Q279.7179 96.01662 280.73352 96.01662Q281.48352 96.01662 282.04602 96.321304Q282.60852 96.62599 282.9757 97.18849Q283.3429 97.75099 283.55383 98.571304Q283.76477 99.39162 283.76477 100.76662Q283.76477 102.40724 283.42883 103.415054Q283.0929 104.42287 282.42102 104.96974Q281.74915 105.51662 280.73352 105.51662Q279.38977 105.51662 278.60852 104.54787Q277.70227 103.39162 277.70227 100.76662ZM278.87415 100.76662Q278.87415 103.06349 279.4054 103.821304Q279.93665 104.57912 280.73352 104.57912Q281.51477 104.57912 282.05383 103.821304Q282.5929 103.06349 282.5929 100.76662Q282.5929 98.46974 282.05383 97.71974Q281.51477 96.96974 280.7179 96.96974Q279.93665 96.96974 279.45227 97.62599Q278.87415 98.48537 278.87415 100.76662ZM289.12415 97.37599L289.12415 96.04787L290.26477 96.04787L290.26477 97.37599L289.12415 97.37599ZM289.12415 105.36037L289.12415 98.62599L290.26477 98.62599L290.26477 105.36037L289.12415 105.36037ZM291.63977 103.34474L292.76477 103.17287Q292.85852 103.84474 293.29602 104.21193Q293.73352 104.57912 294.51477 104.57912Q295.29602 104.57912 295.67883 104.258804Q296.06165 103.93849 296.06165 103.50099Q296.06165 103.11037 295.7179 102.89162Q295.48352 102.73537 294.54602 102.50099Q293.29602 102.18849 292.81165 101.95412Q292.32727 101.71974 292.07727 101.31349Q291.82727 100.90724 291.82727 100.40724Q291.82727 99.95412 292.0304 99.571304Q292.23352 99.18849 292.5929 98.93849Q292.85852 98.73537 293.31946 98.602554Q293.7804 98.46974 294.31165 98.46974Q295.0929 98.46974 295.69446 98.696304Q296.29602 98.92287 296.58508 99.31349Q296.87415 99.70412 296.98352 100.36037L295.85852 100.51662Q295.7804 99.98537 295.42102 99.696304Q295.06165 99.40724 294.38977 99.40724Q293.60852 99.40724 293.26477 99.665054Q292.92102 99.92287 292.92102 100.28224Q292.92102 100.50099 293.06165 100.67287Q293.20227 100.86037 293.49915 100.98537Q293.67102 101.04787 294.51477 101.26662Q295.73352 101.59474 296.21008 101.79787Q296.68665 102.00099 296.96008 102.39943Q297.23352 102.79787 297.23352 103.37599Q297.23352 103.95412 296.89758 104.45412Q296.56165 104.95412 295.93665 105.23537Q295.31165 105.51662 294.51477 105.51662Q293.20227 105.51662 292.51477 104.96974Q291.82727 104.42287 291.63977 103.34474ZM306.82727 105.36037L306.82727 104.51662Q306.18665 105.51662 304.93665 105.51662Q304.13977 105.51662 303.46008 105.071304Q302.7804 104.62599 302.4054 103.82912Q302.0304 103.03224 302.0304 102.00099Q302.0304 100.98537 302.37415 100.165054Q302.7179 99.34474 303.38977 98.90724Q304.06165 98.46974 304.88977 98.46974Q305.49915 98.46974 305.9757 98.727554Q306.45227 98.98537 306.74915 99.39162L306.74915 96.04787L307.88977 96.04787L307.88977 105.36037L306.82727 105.36037ZM303.2179 102.00099Q303.2179 103.29787 303.75696 103.93849Q304.29602 104.57912 305.04602 104.57912Q305.79602 104.57912 306.31946 103.96193Q306.8429 103.34474 306.8429 102.09474Q306.8429 100.70412 306.31165 100.05568Q305.7804 99.40724 304.99915 99.40724Q304.23352 99.40724 303.7257 100.03224Q303.2179 100.65724 303.2179 102.00099ZM314.48352 103.18849L315.67102 103.32912Q315.38977 104.37599 314.63196 104.946304Q313.87415 105.51662 312.70227 105.51662Q311.2179 105.51662 310.3507 104.602554Q309.48352 103.68849 309.48352 102.04787Q309.48352 100.34474 310.36633 99.40724Q311.24915 98.46974 312.63977 98.46974Q313.99915 98.46974 314.8507 99.39162Q315.70227 100.31349 315.70227 101.96974Q315.70227 102.07912 315.70227 102.28224L310.67102 102.28224Q310.73352 103.39162 311.29602 103.98537Q311.85852 104.57912 312.70227 104.57912Q313.3429 104.57912 313.7882 104.24318Q314.23352 103.90724 314.48352 103.18849ZM310.73352 101.34474L314.49915 101.34474Q314.42102 100.48537 314.06165 100.06349Q313.51477 99.40724 312.6554 99.40724Q311.85852 99.40724 311.32727 99.93068Q310.79602 100.45412 310.73352 101.34474ZM317.54602 105.36037L317.54602 99.50099L316.54602 99.50099L316.54602 98.62599L317.54602 98.62599L317.54602 97.90724Q317.54602 97.21974 317.67102 96.89162Q317.8429 96.45412 318.25696 96.17287Q318.67102 95.89162 319.42102 95.89162Q319.9054 95.89162 320.48352 96.01662L320.31165 97.00099Q319.95227 96.93849 319.63977 96.93849Q319.12415 96.93849 318.9054 97.165054Q318.68665 97.39162 318.68665 98.00099L318.68665 98.62599L319.99915 98.62599L319.99915 99.50099L318.68665 99.50099L318.68665 105.36037L317.54602 105.36037ZM325.37415 104.53224Q324.74915 105.06349 324.1632 105.290054Q323.57727 105.51662 322.9054 105.51662Q321.7804 105.51662 321.18665 104.96974Q320.5929 104.42287 320.5929 103.57912Q320.5929 103.09474 320.81946 102.68068Q321.04602 102.26662 321.4132 102.01662Q321.7804 101.76662 322.23352 101.64162Q322.56165 101.56349 323.24915 101.46974Q324.62415 101.31349 325.2804 101.07912Q325.29602 100.84474 325.29602 100.78224Q325.29602 100.07912 324.9679 99.79787Q324.5304 99.40724 323.67102 99.40724Q322.85852 99.40724 322.4757 99.68849Q322.0929 99.96974 321.9054 100.68849L320.79602 100.54787Q320.93665 99.82912 321.2882 99.383804Q321.63977 98.93849 322.30383 98.70412Q322.9679 98.46974 323.82727 98.46974Q324.70227 98.46974 325.24133 98.67287Q325.7804 98.87599 326.0304 99.18068Q326.2804 99.48537 326.38977 99.95412Q326.43665 100.25099 326.43665 101.01662L326.43665 102.53224Q326.43665 104.12599 326.51477 104.54787Q326.5929 104.96974 326.79602 105.36037L325.60852 105.36037Q325.43665 105.00099 325.37415 104.53224ZM325.2804 101.96974Q324.6554 102.23537 323.42102 102.40724Q322.7179 102.51662 322.42102 102.64162Q322.12415 102.76662 321.9679 103.008804Q321.81165 103.25099 321.81165 103.54787Q321.81165 104.00099 322.1554 104.30568Q322.49915 104.61037 323.17102 104.61037Q323.82727 104.61037 324.3429 104.321304Q324.85852 104.03224 325.10852 103.53224Q325.2804 103.15724 325.2804 102.39162L325.2804 101.96974ZM332.81165 105.36037L332.81165 104.37599Q332.01477 105.51662 330.67102 105.51662Q330.07727 105.51662 329.55383 105.28224Q329.0304 105.04787 328.7804 104.70412Q328.5304 104.36037 328.43665 103.86037Q328.35852 103.53224 328.35852 102.79787L328.35852 98.62599L329.49915 98.62599L329.49915 102.36037Q329.49915 103.25099 329.57727 103.56349Q329.68665 104.01662 330.0304 104.27443Q330.37415 104.53224 330.88977 104.53224Q331.4054 104.53224 331.85852 104.26662Q332.31165 104.00099 332.49915 103.54787Q332.68665 103.09474 332.68665 102.23537L332.68665 98.62599L333.82727 98.62599L333.82727 105.36037L332.81165 105.36037ZM335.7804 105.36037L335.7804 96.04787L336.92102 96.04787L336.92102 105.36037L335.7804 105.36037ZM341.26477 104.34474L341.42102 105.34474Q340.93665 105.45412 340.56165 105.45412Q339.93665 105.45412 339.5929 105.25099Q339.24915 105.04787 339.10852 104.727554Q338.9679 104.40724 338.9679 103.39162L338.9679 99.50099L338.13977 99.50099L338.13977 98.62599L338.9679 98.62599L338.9679 96.95412L340.10852 96.26662L340.10852 98.62599L341.26477 98.62599L341.26477 99.50099L340.10852 99.50099L340.10852 103.45412Q340.10852 103.93849 340.17102 104.07912Q340.23352 104.21974 340.36633 104.29787Q340.49915 104.37599 340.74915 104.37599Q340.95227 104.37599 341.26477 104.34474ZM348.35852 108.09474Q347.4054 106.90724 346.74915 105.30568Q346.0929 103.70412 346.0929 101.98537Q346.0929 100.48537 346.5929 99.09474Q347.1554 97.48537 348.35852 95.89162L349.17102 95.89162Q348.4054 97.21974 348.1554 97.78224Q347.76477 98.65724 347.54602 99.61037Q347.2804 100.79787 347.2804 102.00099Q347.2804 105.04787 349.17102 108.09474L348.35852 108.09474ZM350.18665 101.98537Q350.18665 100.11037 351.2179 99.21974Q352.0929 98.46974 353.3429 98.46974Q354.73352 98.46974 355.61633 99.37599Q356.49915 100.28224 356.49915 101.89162Q356.49915 103.18849 356.10852 103.93849Q355.7179 104.68849 354.9679 105.102554Q354.2179 105.51662 353.3429 105.51662Q351.92102 105.51662 351.05383 104.61037Q350.18665 103.70412 350.18665 101.98537ZM351.35852 101.98537Q351.35852 103.28224 351.92102 103.93068Q352.48352 104.57912 353.3429 104.57912Q354.18665 104.57912 354.75696 103.93068Q355.32727 103.28224 355.32727 101.95412Q355.32727 100.70412 354.75696 100.05568Q354.18665 99.40724 353.3429 99.40724Q352.48352 99.40724 351.92102 100.04787Q351.35852 100.68849 351.35852 101.98537ZM358.0304 107.93849L358.0304 98.62599L359.06165 98.62599L359.06165 99.50099Q359.43665 98.98537 359.89758 98.727554Q360.35852 98.46974 361.0304 98.46974Q361.88977 98.46974 362.54602 98.915054Q363.20227 99.36037 363.5382 100.165054Q363.87415 100.96974 363.87415 101.93849Q363.87415 102.96974 363.50696 103.79787Q363.13977 104.62599 362.42883 105.071304Q361.7179 105.51662 360.93665 105.51662Q360.37415 105.51662 359.92102 105.27443Q359.4679 105.03224 359.17102 104.65724L359.17102 107.93849L358.0304 107.93849ZM359.06165 102.03224Q359.06165 103.32912 359.5929 103.95412Q360.12415 104.57912 360.85852 104.57912Q361.62415 104.57912 362.17102 103.93068Q362.7179 103.28224 362.7179 101.93849Q362.7179 100.64162 362.18665 100.00099Q361.6554 99.36037 360.92102 99.36037Q360.18665 99.36037 359.62415 100.040054Q359.06165 100.71974 359.06165 102.03224ZM367.93665 104.34474L368.0929 105.34474Q367.60852 105.45412 367.23352 105.45412Q366.60852 105.45412 366.26477 105.25099Q365.92102 105.04787 365.7804 104.727554Q365.63977 104.40724 365.63977 103.39162L365.63977 99.50099L364.81165 99.50099L364.81165 98.62599L365.63977 98.62599L365.63977 96.95412L366.7804 96.26662L366.7804 98.62599L367.93665 98.62599L367.93665 99.50099L366.7804 99.50099L366.7804 103.45412Q366.7804 103.93849 366.8429 104.07912Q366.9054 104.21974 367.0382 104.29787Q367.17102 104.37599 367.42102 104.37599Q367.62415 104.37599 367.93665 104.34474ZM369.13977 97.37599L369.13977 96.04787L370.2804 96.04787L370.2804 97.37599L369.13977 97.37599ZM369.13977 105.36037L369.13977 98.62599L370.2804 98.62599L370.2804 105.36037L369.13977 105.36037ZM371.68665 101.98537Q371.68665 100.11037 372.7179 99.21974Q373.5929 98.46974 374.8429 98.46974Q376.23352 98.46974 377.11633 99.37599Q377.99915 100.28224 377.99915 101.89162Q377.99915 103.18849 377.60852 103.93849Q377.2179 104.68849 376.4679 105.102554Q375.7179 105.51662 374.8429 105.51662Q373.42102 105.51662 372.55383 104.61037Q371.68665 103.70412 371.68665 101.98537ZM372.85852 101.98537Q372.85852 103.28224 373.42102 103.93068Q373.98352 104.57912 374.8429 104.57912Q375.68665 104.57912 376.25696 103.93068Q376.82727 103.28224 376.82727 101.95412Q376.82727 100.70412 376.25696 100.05568Q375.68665 99.40724 374.8429 99.40724Q373.98352 99.40724 373.42102 100.04787Q372.85852 100.68849 372.85852 101.98537ZM379.51477 105.36037L379.51477 98.62599L380.54602 98.62599L380.54602 99.57912Q381.2804 98.46974 382.68665 98.46974Q383.29602 98.46974 383.80383 98.68849Q384.31165 98.90724 384.56946 99.258804Q384.82727 99.61037 384.92102 100.11037Q384.98352 100.42287 384.98352 101.21974L384.98352 105.36037L383.8429 105.36037L383.8429 101.26662Q383.8429 100.56349 383.71008 100.21974Q383.57727 99.87599 383.24133 99.665054Q382.9054 99.45412 382.45227 99.45412Q381.7179 99.45412 381.18665 99.915054Q380.6554 100.37599 380.6554 101.67287L380.6554 105.36037L379.51477 105.36037ZM391.31165 104.53224Q390.68665 105.06349 390.1007 105.290054Q389.51477 105.51662 388.8429 105.51662Q387.7179 105.51662 387.12415 104.96974Q386.5304 104.42287 386.5304 103.57912Q386.5304 103.09474 386.75696 102.68068Q386.98352 102.26662 387.3507 102.01662Q387.7179 101.76662 388.17102 101.64162Q388.49915 101.56349 389.18665 101.46974Q390.56165 101.31349 391.2179 101.07912Q391.23352 100.84474 391.23352 100.78224Q391.23352 100.07912 390.9054 99.79787Q390.4679 99.40724 389.60852 99.40724Q388.79602 99.40724 388.4132 99.68849Q388.0304 99.96974 387.8429 100.68849L386.73352 100.54787Q386.87415 99.82912 387.2257 99.383804Q387.57727 98.93849 388.24133 98.70412Q388.9054 98.46974 389.76477 98.46974Q390.63977 98.46974 391.17883 98.67287Q391.7179 98.87599 391.9679 99.18068Q392.2179 99.48537 392.32727 99.95412Q392.37415 100.25099 392.37415 101.01662L392.37415 102.53224Q392.37415 104.12599 392.45227 104.54787Q392.5304 104.96974 392.73352 105.36037L391.54602 105.36037Q391.37415 105.00099 391.31165 104.53224ZM391.2179 101.96974Q390.5929 102.23537 389.35852 102.40724Q388.6554 102.51662 388.35852 102.64162Q388.06165 102.76662 387.9054 103.008804Q387.74915 103.25099 387.74915 103.54787Q387.74915 104.00099 388.0929 104.30568Q388.43665 104.61037 389.10852 104.61037Q389.76477 104.61037 390.2804 104.321304Q390.79602 104.03224 391.04602 103.53224Q391.2179 103.15724 391.2179 102.39162L391.2179 101.96974ZM394.31165 105.36037L394.31165 96.04787L395.45227 96.04787L395.45227 105.36037L394.31165 105.36037ZM398.04602 108.09474L397.2179 108.09474Q399.12415 105.04787 399.12415 102.00099Q399.12415 100.79787 398.8429 99.62599Q398.63977 98.67287 398.24915 97.79787Q397.99915 97.23537 397.2179 95.89162L398.04602 95.89162Q399.23352 97.48537 399.81165 99.09474Q400.29602 100.48537 400.29602 101.98537Q400.29602 103.70412 399.63977 105.30568Q398.98352 106.90724 398.04602 108.09474Z" fill-rule="nonzero" fill="#000000"></path></svg>

