<?xml version="1.0" standalone="yes"?>

<svg version="1.1" viewBox="0.0 0.0 565.0 124.0" fill="none" stroke="none" stroke-linecap="square" stroke-miterlimit="10" xmlns="http://www.w3.org/2000/svg" xmlns:xlink="http://www.w3.org/1999/xlink"><path d="M66.62115 20.109375L66.62115 18.171875L68.2774 18.171875L68.2774 20.109375L66.62115 20.109375ZM64.49615 35.59375L64.80865 34.171875Q65.30865 34.296875 65.60552 34.296875Q66.12115 34.296875 66.37115 33.960938Q66.62115 33.625 66.62115 32.265625L66.62115 21.90625L68.2774 21.90625L68.2774 32.296875Q68.2774 34.125 67.80865 34.84375Q67.2149 35.765625 65.80865 35.765625Q65.13677 35.765625 64.49615 35.59375ZM77.1524 31.765625L77.1524 30.515625Q76.2149 31.984375 74.4024 31.984375Q73.23052 31.984375 72.238335 31.335938Q71.24615 30.6875 70.707085 29.523438Q70.16802 28.359375 70.16802 26.84375Q70.16802 25.375 70.66021 24.171875Q71.1524 22.96875 72.12896 22.328125Q73.10552 21.6875 74.32427 21.6875Q75.2149 21.6875 75.91021 22.0625Q76.60552 22.4375 77.04302 23.046875L77.04302 18.171875L78.69927 18.171875L78.69927 31.765625L77.1524 31.765625ZM71.87115 26.84375Q71.87115 28.734375 72.675835 29.671875Q73.48052 30.609375 74.55865 30.609375Q75.6524 30.609375 76.41802 29.71875Q77.18365 28.828125 77.18365 26.984375Q77.18365 24.96875 76.4024 24.023438Q75.62115 23.078125 74.48052 23.078125Q73.37115 23.078125 72.62115 23.984375Q71.87115 24.890625 71.87115 26.84375ZM82.68365 31.765625L81.13677 31.765625L81.13677 18.171875L82.79302 18.171875L82.79302 23.015625Q83.85552 21.6875 85.49615 21.6875Q86.4024 21.6875 87.2149 22.054688Q88.0274 22.421875 88.550835 23.085938Q89.07427 23.75 89.37115 24.6875Q89.66802 25.625 89.66802 26.6875Q89.66802 29.21875 88.41802 30.601562Q87.16802 31.984375 85.41802 31.984375Q83.66802 31.984375 82.68365 30.53125L82.68365 31.765625ZM82.66802 26.765625Q82.66802 28.53125 83.13677 29.328125Q83.93365 30.609375 85.2774 30.609375Q86.37115 30.609375 87.16802 29.664062Q87.9649 28.71875 87.9649 26.828125Q87.9649 24.90625 87.19927 23.984375Q86.43365 23.0625 85.35552 23.0625Q84.26177 23.0625 83.4649 24.015625Q82.66802 24.96875 82.66802 26.765625ZM97.94927 28.15625L99.5899 28.375Q99.32427 30.0625 98.2149 31.023438Q97.10552 31.984375 95.48052 31.984375Q93.4649 31.984375 92.238335 30.664062Q91.01177 29.34375 91.01177 26.875Q91.01177 25.28125 91.53521 24.085938Q92.05865 22.890625 93.144585 22.289062Q94.23052 21.6875 95.49615 21.6875Q97.10552 21.6875 98.12115 22.5Q99.13677 23.3125 99.43365 24.8125L97.80865 25.0625Q97.57427 24.0625 96.98052 23.5625Q96.38677 23.0625 95.55865 23.0625Q94.29302 23.0625 93.50396 23.96875Q92.7149 24.875 92.7149 26.828125Q92.7149 28.8125 93.48052 29.710938Q94.24615 30.609375 95.4649 30.609375Q96.44927 30.609375 97.10552 30.007812Q97.76177 29.40625 97.94927 28.15625ZM106.49615 23.8125L106.49615 21.90625L108.4024 21.90625L108.4024 23.8125L106.49615 23.8125ZM106.49615 31.765625L106.49615 29.859375L108.4024 29.859375L108.4024 31.765625L106.49615 31.765625ZM122.7774 31.765625L122.7774 30.515625Q121.8399 31.984375 120.0274 31.984375Q118.85552 31.984375 117.863335 31.335938Q116.87115 30.6875 116.332085 29.523438Q115.79302 28.359375 115.79302 26.84375Q115.79302 25.375 116.28521 24.171875Q116.7774 22.96875 117.75396 22.328125Q118.73052 21.6875 119.94927 21.6875Q120.8399 21.6875 121.53521 22.0625Q122.23052 22.4375 122.66802 23.046875L122.66802 18.171875L124.32427 18.171875L124.32427 31.765625L122.7774 31.765625ZM117.49615 26.84375Q117.49615 28.734375 118.300835 29.671875Q119.10552 30.609375 120.18365 30.609375Q121.2774 30.609375 122.04302 29.71875Q122.80865 28.828125 122.80865 26.984375Q122.80865 24.96875 122.0274 24.023438Q121.24615 23.078125 120.10552 23.078125Q118.99615 23.078125 118.24615 23.984375Q117.49615 24.890625 117.49615 26.84375ZM133.51176 28.59375L135.23051 28.8125Q134.82426 30.3125 133.7227 31.148438Q132.62114 31.984375 130.90239 31.984375Q128.74614 31.984375 127.48052 30.65625Q126.2149 29.328125 126.2149 26.921875Q126.2149 24.4375 127.488335 23.0625Q128.76176 21.6875 130.80864 21.6875Q132.79301 21.6875 134.04301 23.03125Q135.29301 24.375 135.29301 26.828125Q135.29301 26.96875 135.27739 27.265625L127.93365 27.265625Q128.02739 28.890625 128.85551 29.75Q129.68364 30.609375 130.91801 30.609375Q131.82426 30.609375 132.4727 30.132812Q133.12114 29.65625 133.51176 28.59375ZM128.02739 25.890625L133.52739 25.890625Q133.41801 24.65625 132.90239 24.03125Q132.10551 23.0625 130.82426 23.0625Q129.68364 23.0625 128.89458 23.835938Q128.10551 24.609375 128.02739 25.890625ZM137.12114 31.765625L137.12114 21.90625L138.62114 21.90625L138.62114 23.40625Q139.19926 22.359375 139.68364 22.023438Q140.16801 21.6875 140.76176 21.6875Q141.60551 21.6875 142.48051 22.234375L141.90239 23.78125Q141.29301 23.421875 140.66801 23.421875Q140.12114 23.421875 139.69145 23.75Q139.26176 24.078125 139.07426 24.65625Q138.79301 25.546875 138.79301 26.609375L138.79301 31.765625L137.12114 31.765625ZM144.90239 31.765625L143.35551 31.765625L143.35551 18.171875L145.01176 18.171875L145.01176 23.015625Q146.07426 21.6875 147.71489 21.6875Q148.62114 21.6875 149.43364 22.054688Q150.24614 22.421875 150.76958 23.085938Q151.29301 23.75 151.58989 24.6875Q151.88676 25.625 151.88676 26.6875Q151.88676 29.21875 150.63676 30.601562Q149.38676 31.984375 147.63676 31.984375Q145.88676 31.984375 144.90239 30.53125L144.90239 31.765625ZM144.88676 26.765625Q144.88676 28.53125 145.35551 29.328125Q146.15239 30.609375 147.49614 30.609375Q148.58989 30.609375 149.38676 29.664062Q150.18364 28.71875 150.18364 26.828125Q150.18364 24.90625 149.41801 23.984375Q148.65239 23.0625 147.57426 23.0625Q146.48051 23.0625 145.68364 24.015625Q144.88676 24.96875 144.88676 26.765625ZM153.65239 35.5625L153.48051 34.0Q154.02739 34.140625 154.43364 34.140625Q154.98051 34.140625 155.31645 33.953125Q155.65239 33.765625 155.87114 33.4375Q156.02739 33.1875 156.37114 32.1875Q156.41801 32.046875 156.52739 31.78125L152.79301 21.90625L154.58989 21.90625L156.63676 27.625Q157.04301 28.703125 157.35551 29.90625Q157.63676 28.75 158.04301 27.65625L160.13676 21.90625L161.80864 21.90625L158.05864 31.9375Q157.46489 33.5625 157.12114 34.171875Q156.68364 35.0 156.10551 35.382812Q155.52739 35.765625 154.73051 35.765625Q154.24614 35.765625 153.65239 35.5625ZM168.71489 23.8125L168.71489 21.90625L170.62114 21.90625L170.62114 23.8125L168.71489 23.8125ZM168.71489 31.765625L168.71489 29.859375L170.62114 29.859375L170.62114 31.765625L168.71489 31.765625ZM185.04301 28.15625L186.68364 28.375Q186.41801 30.0625 185.30864 31.023438Q184.19926 31.984375 182.57426 31.984375Q180.55864 31.984375 179.33208 30.664062Q178.10551 29.34375 178.10551 26.875Q178.10551 25.28125 178.62895 24.085938Q179.15239 22.890625 180.23833 22.289062Q181.32426 21.6875 182.58989 21.6875Q184.19926 21.6875 185.21489 22.5Q186.23051 23.3125 186.52739 24.8125L184.90239 25.0625Q184.66801 24.0625 184.07426 23.5625Q183.48051 23.0625 182.65239 23.0625Q181.38676 23.0625 180.5977 23.96875Q179.80864 24.875 179.80864 26.828125Q179.80864 28.8125 180.57426 29.710938Q181.33989 30.609375 182.55864 30.609375Q183.54301 30.609375 184.19926 30.007812Q184.85551 29.40625 185.04301 28.15625ZM188.40239 23.8125L188.40239 21.90625L190.30864 21.90625L190.30864 23.8125L188.40239 23.8125ZM188.40239 31.765625L188.40239 29.859375L190.30864 29.859375L190.30864 31.765625L188.40239 31.765625ZM195.80864 32.0L191.87114 17.9375L193.21489 17.9375L197.15239 32.0L195.80864 32.0ZM200.99614 32.0L197.05864 17.9375L198.40239 17.9375L202.33989 32.0L200.99614 32.0ZM207.13676 30.265625L207.37114 31.75Q206.66801 31.890625 206.10551 31.890625Q205.19926 31.890625 204.69926 31.601562Q204.19926 31.3125 203.99614 30.851562Q203.79301 30.390625 203.79301 28.875L203.79301 23.21875L202.55864 23.21875L202.55864 21.90625L203.79301 21.90625L203.79301 19.46875L205.44926 18.46875L205.44926 21.90625L207.13676 21.90625L207.13676 23.21875L205.44926 23.21875L205.44926 28.96875Q205.44926 29.6875 205.5352 29.890625Q205.62114 30.09375 205.82426 30.21875Q206.02739 30.34375 206.40239 30.34375Q206.66801 30.34375 207.13676 30.265625ZM208.66801 31.765625L208.66801 21.90625L210.16801 21.90625L210.16801 23.296875Q210.62114 22.578125 211.39458 22.132812Q212.16801 21.6875 213.15239 21.6875Q214.24614 21.6875 214.94926 22.140625Q215.65239 22.59375 215.93364 23.421875Q217.10551 21.6875 218.98051 21.6875Q220.44926 21.6875 221.23833 22.5Q222.02739 23.3125 222.02739 25.0L222.02739 31.765625L220.35551 31.765625L220.35551 25.5625Q220.35551 24.5625 220.19926 24.117188Q220.04301 23.671875 219.61333 23.40625Q219.18364 23.140625 218.60551 23.140625Q217.57426 23.140625 216.88676 23.828125Q216.19926 24.515625 216.19926 26.046875L216.19926 31.765625L214.52739 31.765625L214.52739 25.359375Q214.52739 24.25 214.12114 23.695312Q213.71489 23.140625 212.77739 23.140625Q212.07426 23.140625 211.4727 23.507812Q210.87114 23.875 210.60551 24.59375Q210.33989 25.3125 210.33989 26.65625L210.33989 31.765625L208.66801 31.765625ZM224.21489 35.546875L224.21489 21.90625L225.74614 21.90625L225.74614 23.1875Q226.27739 22.4375 226.95708 22.0625Q227.63676 21.6875 228.58989 21.6875Q229.85551 21.6875 230.82426 22.335938Q231.79301 22.984375 232.2852 24.171875Q232.77739 25.359375 232.77739 26.765625Q232.77739 28.28125 232.23051 29.492188Q231.68364 30.703125 230.65239 31.34375Q229.62114 31.984375 228.48051 31.984375Q227.63676 31.984375 226.9727 31.632812Q226.30864 31.28125 225.88676 30.75L225.88676 35.546875L224.21489 35.546875ZM225.73051 26.890625Q225.73051 28.796875 226.50395 29.703125Q227.27739 30.609375 228.37114 30.609375Q229.48051 30.609375 230.26958 29.671875Q231.05864 28.734375 231.05864 26.75Q231.05864 24.875 230.2852 23.9375Q229.51176 23.0 228.43364 23.0Q227.37114 23.0 226.55083 24.0Q225.73051 25.0 225.73051 26.890625ZM237.27739 32.0L233.33989 17.9375L234.68364 17.9375L238.62114 32.0L237.27739 32.0ZM242.46489 32.0L238.52739 17.9375L239.87114 17.9375L243.80864 32.0L242.46489 32.0ZM244.24614 27.90625L245.87114 27.6875Q245.93364 29.234375 246.45708 29.8125Q246.98051 30.390625 247.88676 30.390625Q248.57426 30.390625 249.06645 30.078125Q249.55864 29.765625 249.73833 29.234375Q249.91801 28.703125 249.91801 27.53125L249.91801 18.171875L251.73051 18.171875L251.73051 27.4375Q251.73051 29.140625 251.31645 30.078125Q250.90239 31.015625 250.00395 31.507812Q249.10551 32.0 247.90239 32.0Q246.10551 32.0 245.1602 30.96875Q244.21489 29.9375 244.24614 27.90625ZM260.7149 30.546875Q259.7774 31.34375 258.91803 31.664062Q258.05865 31.984375 257.07428 31.984375Q255.46489 31.984375 254.58989 31.195312Q253.71489 30.40625 253.71489 29.171875Q253.71489 28.4375 254.04301 27.84375Q254.37114 27.25 254.90239 26.890625Q255.43364 26.53125 256.10553 26.34375Q256.60553 26.203125 257.5899 26.09375Q259.62115 25.84375 260.57428 25.515625Q260.57428 25.171875 260.57428 25.078125Q260.57428 24.0625 260.10553 23.640625Q259.4649 23.078125 258.19928 23.078125Q257.0274 23.078125 256.4649 23.484375Q255.90239 23.890625 255.63676 24.953125L253.99614 24.71875Q254.23051 23.671875 254.73833 23.03125Q255.24614 22.390625 256.2071 22.039062Q257.16803 21.6875 258.44928 21.6875Q259.7149 21.6875 260.49615 21.984375Q261.2774 22.28125 261.6524 22.734375Q262.0274 23.1875 262.16803 23.875Q262.26178 24.296875 262.26178 25.40625L262.26178 27.640625Q262.26178 29.96875 262.36334 30.585938Q262.4649 31.203125 262.79303 31.765625L261.04303 31.765625Q260.7774 31.25 260.7149 30.546875ZM260.57428 26.828125Q259.66803 27.1875 257.8399 27.453125Q256.80865 27.59375 256.38678 27.78125Q255.96489 27.96875 255.73051 28.328125Q255.49614 28.6875 255.49614 29.125Q255.49614 29.796875 256.00397 30.242188Q256.51178 30.6875 257.48053 30.6875Q258.44928 30.6875 259.19928 30.257812Q259.94928 29.828125 260.30865 29.109375Q260.57428 28.53125 260.57428 27.4375L260.57428 26.828125ZM264.63678 31.765625L264.63678 21.90625L266.13678 21.90625L266.13678 23.40625Q266.7149 22.359375 267.19928 22.023438Q267.68365 21.6875 268.2774 21.6875Q269.12115 21.6875 269.99615 22.234375L269.41803 23.78125Q268.80865 23.421875 268.18365 23.421875Q267.63678 23.421875 267.2071 23.75Q266.7774 24.078125 266.5899 24.65625Q266.30865 25.546875 266.30865 26.609375L266.30865 31.765625L264.63678 31.765625ZM271.2774 31.765625L271.2774 23.21875L269.79303 23.21875L269.79303 21.90625L271.2774 21.90625L271.2774 20.859375Q271.2774 19.875 271.44928 19.390625Q271.68365 18.734375 272.29303 18.335938Q272.9024 17.9375 273.99615 17.9375Q274.69928 17.9375 275.55865 18.09375L275.30865 19.5625Q274.79303 19.46875 274.32428 19.46875Q273.55865 19.46875 273.24615 19.789062Q272.93365 20.109375 272.93365 21.0L272.93365 21.90625L274.85553 21.90625L274.85553 23.21875L272.93365 23.21875L272.93365 31.765625L271.2774 31.765625ZM276.07428 20.078125L276.07428 18.171875L277.74615 18.171875L277.74615 20.078125L276.07428 20.078125ZM276.07428 31.765625L276.07428 21.90625L277.74615 21.90625L277.74615 31.765625L276.07428 31.765625ZM280.16803 31.765625L280.16803 18.171875L281.8399 18.171875L281.8399 31.765625L280.16803 31.765625ZM284.30865 31.765625L284.30865 18.171875L285.98053 18.171875L285.98053 31.765625L284.30865 31.765625ZM295.23053 28.59375L296.94928 28.8125Q296.54303 30.3125 295.44147 31.148438Q294.3399 31.984375 292.62115 31.984375Q290.4649 31.984375 289.19928 30.65625Q287.93365 29.328125 287.93365 26.921875Q287.93365 24.4375 289.2071 23.0625Q290.48053 21.6875 292.5274 21.6875Q294.51178 21.6875 295.76178 23.03125Q297.01178 24.375 297.01178 26.828125Q297.01178 26.96875 296.99615 27.265625L289.6524 27.265625Q289.74615 28.890625 290.57428 29.75Q291.4024 30.609375 292.63678 30.609375Q293.54303 30.609375 294.19147 30.132812Q294.8399 29.65625 295.23053 28.59375ZM289.74615 25.890625L295.24615 25.890625Q295.13678 24.65625 294.62115 24.03125Q293.82428 23.0625 292.54303 23.0625Q291.4024 23.0625 290.61334 23.835938Q289.82428 24.609375 289.74615 25.890625ZM298.85553 31.765625L298.85553 21.90625L300.35553 21.90625L300.35553 23.40625Q300.93365 22.359375 301.41803 22.023438Q301.9024 21.6875 302.49615 21.6875Q303.3399 21.6875 304.2149 22.234375L303.63678 23.78125Q303.0274 23.421875 302.4024 23.421875Q301.85553 23.421875 301.42584 23.75Q300.99615 24.078125 300.80865 24.65625Q300.5274 25.546875 300.5274 26.609375L300.5274 31.765625L298.85553 31.765625ZM305.29303 31.765625L305.29303 18.171875L309.98053 18.171875Q311.55865 18.171875 312.4024 18.359375Q313.55865 18.625 314.38678 19.328125Q315.4649 20.25 315.99615 21.664062Q316.5274 23.078125 316.5274 24.890625Q316.5274 26.4375 316.16803 27.632812Q315.80865 28.828125 315.24615 29.617188Q314.68365 30.40625 314.01178 30.851562Q313.3399 31.296875 312.38678 31.53125Q311.43365 31.765625 310.19928 31.765625L305.29303 31.765625ZM307.0899 30.15625L309.99615 30.15625Q311.3399 30.15625 312.10553 29.90625Q312.87115 29.65625 313.32428 29.203125Q313.9649 28.5625 314.32428 27.484375Q314.68365 26.40625 314.68365 24.859375Q314.68365 22.734375 313.98053 21.585938Q313.2774 20.4375 312.2774 20.046875Q311.55865 19.765625 309.94928 19.765625L307.0899 19.765625L307.0899 30.15625ZM318.68365 31.765625L318.68365 18.171875L323.79303 18.171875Q325.3399 18.171875 326.28522 18.578125Q327.23053 18.984375 327.76178 19.84375Q328.29303 20.703125 328.29303 21.640625Q328.29303 22.515625 327.82428 23.289062Q327.35553 24.0625 326.38678 24.53125Q327.62115 24.890625 328.28522 25.765625Q328.94928 26.640625 328.94928 27.828125Q328.94928 28.78125 328.55084 29.601562Q328.1524 30.421875 327.55865 30.867188Q326.9649 31.3125 326.06647 31.539062Q325.16803 31.765625 323.87115 31.765625L318.68365 31.765625ZM320.48053 23.875L323.41803 23.875Q324.62115 23.875 325.13678 23.71875Q325.82428 23.515625 326.17584 23.046875Q326.5274 22.578125 326.5274 21.859375Q326.5274 21.1875 326.19928 20.671875Q325.87115 20.15625 325.2696 19.960938Q324.66803 19.765625 323.19928 19.765625L320.48053 19.765625L320.48053 23.875ZM320.48053 30.15625L323.87115 30.15625Q324.74615 30.15625 325.0899 30.09375Q325.7149 29.984375 326.13678 29.726562Q326.55865 29.46875 326.82428 28.96875Q327.0899 28.46875 327.0899 27.828125Q327.0899 27.0625 326.69928 26.5Q326.30865 25.9375 325.62115 25.710938Q324.93365 25.484375 323.63678 25.484375L320.48053 25.484375L320.48053 30.15625ZM336.62115 23.8125L336.62115 21.90625L338.5274 21.90625L338.5274 23.8125L336.62115 23.8125ZM336.62115 31.765625L336.62115 29.859375L338.5274 29.859375L338.5274 31.765625Q338.5274 32.8125 338.1524 33.460938Q337.7774 34.109375 336.98053 34.453125L336.51178 33.734375Q337.04303 33.515625 337.29303 33.0625Q337.54303 32.609375 337.57428 31.765625L336.62115 31.765625ZM352.98053 28.15625L354.62115 28.375Q354.35553 30.0625 353.24615 31.023438Q352.13678 31.984375 350.51178 31.984375Q348.49615 31.984375 347.2696 30.664062Q346.04303 29.34375 346.04303 26.875Q346.04303 25.28125 346.56647 24.085938Q347.0899 22.890625 348.17584 22.289062Q349.26178 21.6875 350.5274 21.6875Q352.13678 21.6875 353.1524 22.5Q354.16803 23.3125 354.4649 24.8125L352.8399 25.0625Q352.60553 24.0625 352.01178 23.5625Q351.41803 23.0625 350.5899 23.0625Q349.32428 23.0625 348.53522 23.96875Q347.74615 24.875 347.74615 26.828125Q347.74615 28.8125 348.51178 29.710938Q349.2774 30.609375 350.49615 30.609375Q351.48053 30.609375 352.13678 30.007812Q352.79303 29.40625 352.98053 28.15625ZM355.85553 31.765625L355.85553 21.90625L357.35553 21.90625L357.35553 23.40625Q357.93365 22.359375 358.41803 22.023438Q358.9024 21.6875 359.49615 21.6875Q360.3399 21.6875 361.2149 22.234375L360.63678 23.78125Q360.0274 23.421875 359.4024 23.421875Q358.85553 23.421875 358.42584 23.75Q357.99615 24.078125 357.80865 24.65625Q357.5274 25.546875 357.5274 26.609375L357.5274 31.765625L355.85553 31.765625ZM368.8399 28.59375L370.55865 28.8125Q370.1524 30.3125 369.05084 31.148438Q367.94928 31.984375 366.23053 31.984375Q364.07428 31.984375 362.80865 30.65625Q361.54303 29.328125 361.54303 26.921875Q361.54303 24.4375 362.81647 23.0625Q364.0899 21.6875 366.13678 21.6875Q368.12115 21.6875 369.37115 23.03125Q370.62115 24.375 370.62115 26.828125Q370.62115 26.96875 370.60553 27.265625L363.26178 27.265625Q363.35553 28.890625 364.18365 29.75Q365.01178 30.609375 366.24615 30.609375Q367.1524 30.609375 367.80084 30.132812Q368.44928 29.65625 368.8399 28.59375ZM363.35553 25.890625L368.85553 25.890625Q368.74615 24.65625 368.23053 24.03125Q367.43365 23.0625 366.1524 23.0625Q365.01178 23.0625 364.22272 23.835938Q363.43365 24.609375 363.35553 25.890625ZM378.9024 30.546875Q377.9649 31.34375 377.10553 31.664062Q376.24615 31.984375 375.26178 31.984375Q373.6524 31.984375 372.7774 31.195312Q371.9024 30.40625 371.9024 29.171875Q371.9024 28.4375 372.23053 27.84375Q372.55865 27.25 373.0899 26.890625Q373.62115 26.53125 374.29303 26.34375Q374.79303 26.203125 375.7774 26.09375Q377.80865 25.84375 378.76178 25.515625Q378.76178 25.171875 378.76178 25.078125Q378.76178 24.0625 378.29303 23.640625Q377.6524 23.078125 376.38678 23.078125Q375.2149 23.078125 374.6524 23.484375Q374.0899 23.890625 373.82428 24.953125L372.18365 24.71875Q372.41803 23.671875 372.92584 23.03125Q373.43365 22.390625 374.3946 22.039062Q375.35553 21.6875 376.63678 21.6875Q377.9024 21.6875 378.68365 21.984375Q379.4649 22.28125 379.8399 22.734375Q380.2149 23.1875 380.35553 23.875Q380.44928 24.296875 380.44928 25.40625L380.44928 27.640625Q380.44928 29.96875 380.55084 30.585938Q380.6524 31.203125 380.98053 31.765625L379.23053 31.765625Q378.9649 31.25 378.9024 30.546875ZM378.76178 26.828125Q377.85553 27.1875 376.0274 27.453125Q374.99615 27.59375 374.57428 27.78125Q374.1524 27.96875 373.91803 28.328125Q373.68365 28.6875 373.68365 29.125Q373.68365 29.796875 374.19147 30.242188Q374.69928 30.6875 375.66803 30.6875Q376.63678 30.6875 377.38678 30.257812Q378.13678 29.828125 378.49615 29.109375Q378.76178 28.53125 378.76178 27.4375L378.76178 26.828125ZM386.49615 30.265625L386.73053 31.75Q386.0274 31.890625 385.4649 31.890625Q384.55865 31.890625 384.05865 31.601562Q383.55865 31.3125 383.35553 30.851562Q383.1524 30.390625 383.1524 28.875L383.1524 23.21875L381.91803 23.21875L381.91803 21.90625L383.1524 21.90625L383.1524 19.46875L384.80865 18.46875L384.80865 21.90625L386.49615 21.90625L386.49615 23.21875L384.80865 23.21875L384.80865 28.96875Q384.80865 29.6875 384.8946 29.890625Q384.98053 30.09375 385.18365 30.21875Q385.38678 30.34375 385.76178 30.34375Q386.0274 30.34375 386.49615 30.265625ZM394.76178 28.59375L396.48053 28.8125Q396.07428 30.3125 394.97272 31.148438Q393.87115 31.984375 392.1524 31.984375Q389.99615 31.984375 388.73053 30.65625Q387.4649 29.328125 387.4649 26.921875Q387.4649 24.4375 388.73834 23.0625Q390.01178 21.6875 392.05865 21.6875Q394.04303 21.6875 395.29303 23.03125Q396.54303 24.375 396.54303 26.828125Q396.54303 26.96875 396.5274 27.265625L389.18365 27.265625Q389.2774 28.890625 390.10553 29.75Q390.93365 30.609375 392.16803 30.609375Q393.07428 30.609375 393.72272 30.132812Q394.37115 29.65625 394.76178 28.59375ZM389.2774 25.890625L394.7774 25.890625Q394.66803 24.65625 394.1524 24.03125Q393.35553 23.0625 392.07428 23.0625Q390.93365 23.0625 390.1446 23.835938Q389.35553 24.609375 389.2774 25.890625ZM407.16803 23.765625L398.19928 23.765625L398.19928 22.203125L407.16803 22.203125L407.16803 23.765625ZM407.16803 27.890625L398.19928 27.890625L398.19928 26.34375L407.16803 26.34375L407.16803 27.890625ZM412.94928 30.265625L413.18365 31.75Q412.48053 31.890625 411.91803 31.890625Q411.01178 31.890625 410.51178 31.601562Q410.01178 31.3125 409.80865 30.851562Q409.60553 30.390625 409.60553 28.875L409.60553 23.21875L408.37115 23.21875L408.37115 21.90625L409.60553 21.90625L409.60553 19.46875L411.26178 18.46875L411.26178 21.90625L412.94928 21.90625L412.94928 23.21875L411.26178 23.21875L411.26178 28.96875Q411.26178 29.6875 411.34772 29.890625Q411.43365 30.09375 411.63678 30.21875Q411.8399 30.34375 412.2149 30.34375Q412.48053 30.34375 412.94928 30.265625ZM414.44928 31.765625L414.44928 21.90625L415.94928 21.90625L415.94928 23.40625Q416.5274 22.359375 417.01178 22.023438Q417.49615 21.6875 418.0899 21.6875Q418.93365 21.6875 419.80865 22.234375L419.23053 23.78125Q418.62115 23.421875 417.99615 23.421875Q417.44928 23.421875 417.0196 23.75Q416.5899 24.078125 416.4024 24.65625Q416.12115 25.546875 416.12115 26.609375L416.12115 31.765625L414.44928 31.765625ZM427.13678 31.765625L427.13678 30.3125Q425.99615 31.984375 424.01178 31.984375Q423.1524 31.984375 422.3946 31.648438Q421.63678 31.3125 421.2696 30.8125Q420.9024 30.3125 420.74615 29.578125Q420.6524 29.078125 420.6524 28.015625L420.6524 21.90625L422.32428 21.90625L422.32428 27.375Q422.32428 28.6875 422.41803 29.140625Q422.57428 29.796875 423.0899 30.171875Q423.60553 30.546875 424.35553 30.546875Q425.10553 30.546875 425.76178 30.164062Q426.41803 29.78125 426.69147 29.117188Q426.9649 28.453125 426.9649 27.1875L426.9649 21.90625L428.63678 21.90625L428.63678 31.765625L427.13678 31.765625ZM437.80865 28.59375L439.5274 28.8125Q439.12115 30.3125 438.0196 31.148438Q436.91803 31.984375 435.19928 31.984375Q433.04303 31.984375 431.7774 30.65625Q430.51178 29.328125 430.51178 26.921875Q430.51178 24.4375 431.78522 23.0625Q433.05865 21.6875 435.10553 21.6875Q437.0899 21.6875 438.3399 23.03125Q439.5899 24.375 439.5899 26.828125Q439.5899 26.96875 439.57428 27.265625L432.23053 27.265625Q432.32428 28.890625 433.1524 29.75Q433.98053 30.609375 435.2149 30.609375Q436.12115 30.609375 436.7696 30.132812Q437.41803 29.65625 437.80865 28.59375ZM432.32428 25.890625L437.82428 25.890625Q437.7149 24.65625 437.19928 24.03125Q436.4024 23.0625 435.12115 23.0625Q433.98053 23.0625 433.19147 23.835938Q432.4024 24.609375 432.32428 25.890625Z" fill-rule="nonzero" fill="#000000"></path><path d="M112.44357 37.48294L162.99475 37.48294" fill-rule="nonzero" stroke="#ff9900" stroke-width="3.0" stroke-linejoin="round" stroke-linecap="butt"></path><path d="M175.20473 37.923885L329.6929 37.64042" fill-rule="nonzero" stroke="#0000ff" stroke-width="3.0" stroke-linejoin="round" stroke-linecap="butt"></path><path d="M337.33597 37.48294L444.54855 37.48294" fill-rule="nonzero" stroke="#674ea7" stroke-width="3.0" stroke-linejoin="round" stroke-linecap="butt"></path><path d="M125.519684 46.199474L96.54818 69.24824" fill-rule="evenodd" stroke="#ff9900" stroke-width="2.0" stroke-linejoin="round" stroke-linecap="butt"></path><path d="M94.491516 66.66308L89.445526 74.898865L98.60484 71.83339Z" fill-rule="evenodd" fill="#ff9900" stroke="#ff9900" stroke-width="2.0" stroke-linecap="butt"></path><path d="M47.15625 95.20354L47.15625 85.89104L50.359375 85.89104Q51.453125 85.89104 52.015625 86.03166Q52.828125 86.21916 53.390625 86.70354Q54.125 87.31291 54.492188 88.28166Q54.859375 89.25041 54.859375 90.50041Q54.859375 91.56291 54.609375 92.383224Q54.359375 93.20354 53.96875 93.73479Q53.578125 94.26604 53.117188 94.57854Q52.65625 94.89104 52.007812 95.04729Q51.359375 95.20354 50.515625 95.20354L47.15625 95.20354ZM48.390625 94.10979L50.375 94.10979Q51.296875 94.10979 51.820312 93.93791Q52.34375 93.76604 52.65625 93.45354Q53.09375 93.01604 53.335938 92.27385Q53.578125 91.53166 53.578125 90.48479Q53.578125 89.01604 53.101562 88.23479Q52.625 87.45354 51.9375 87.18791Q51.4375 87.00041 50.34375 87.00041L48.390625 87.00041L48.390625 94.10979ZM56.625 95.20354L56.625 88.46916L57.65625 88.46916L57.65625 89.48479Q58.046875 88.76604 58.382812 88.539474Q58.71875 88.31291 59.109375 88.31291Q59.6875 88.31291 60.28125 88.67229L59.890625 89.73479Q59.46875 89.48479 59.0625 89.48479Q58.6875 89.48479 58.382812 89.71135Q58.078125 89.93791 57.953125 90.34416Q57.765625 90.95354 57.765625 91.67229L57.765625 95.20354L56.625 95.20354ZM61.078125 87.21916L61.078125 85.89104L62.21875 85.89104L62.21875 87.21916L61.078125 87.21916ZM61.078125 95.20354L61.078125 88.46916L62.21875 88.46916L62.21875 95.20354L61.078125 95.20354ZM65.921875 95.20354L63.359375 88.46916L64.5625 88.46916L66.0 92.50041Q66.234375 93.15666 66.4375 93.85979Q66.59375 93.32854 66.859375 92.57854L68.359375 88.46916L69.53125 88.46916L66.984375 95.20354L65.921875 95.20354ZM75.3125 93.03166L76.5 93.17229Q76.21875 94.21916 75.46094 94.789474Q74.703125 95.35979 73.53125 95.35979Q72.046875 95.35979 71.17969 94.445724Q70.3125 93.53166 70.3125 91.89104Q70.3125 90.18791 71.19531 89.25041Q72.078125 88.31291 73.46875 88.31291Q74.828125 88.31291 75.67969 89.23479Q76.53125 90.15666 76.53125 91.81291Q76.53125 91.92229 76.53125 92.12541L71.5 92.12541Q71.5625 93.23479 72.125 93.82854Q72.6875 94.42229 73.53125 94.42229Q74.171875 94.42229 74.61719 94.08635Q75.0625 93.75041 75.3125 93.03166ZM71.5625 91.18791L75.328125 91.18791Q75.25 90.32854 74.890625 89.90666Q74.34375 89.25041 73.484375 89.25041Q72.6875 89.25041 72.15625 89.77385Q71.625 90.29729 71.5625 91.18791ZM78.109375 95.20354L78.109375 88.46916L79.140625 88.46916L79.140625 89.48479Q79.53125 88.76604 79.86719 88.539474Q80.203125 88.31291 80.59375 88.31291Q81.171875 88.31291 81.765625 88.67229L81.375 89.73479Q80.953125 89.48479 80.546875 89.48479Q80.171875 89.48479 79.86719 89.71135Q79.5625 89.93791 79.4375 90.34416Q79.25 90.95354 79.25 91.67229L79.25 95.20354L78.109375 95.20354ZM86.390625 95.20354L86.390625 85.89104L87.65625 85.89104L92.546875 93.20354L92.546875 85.89104L93.734375 85.89104L93.734375 95.20354L92.46875 95.20354L87.578125 87.89104L87.578125 95.20354L86.390625 95.20354ZM100.28125 94.37541Q99.65625 94.90666 99.07031 95.133224Q98.484375 95.35979 97.8125 95.35979Q96.6875 95.35979 96.09375 94.81291Q95.5 94.26604 95.5 93.42229Q95.5 92.93791 95.72656 92.52385Q95.953125 92.10979 96.32031 91.85979Q96.6875 91.60979 97.140625 91.48479Q97.46875 91.40666 98.15625 91.31291Q99.53125 91.15666 100.1875 90.92229Q100.203125 90.68791 100.203125 90.62541Q100.203125 89.92229 99.875 89.64104Q99.4375 89.25041 98.578125 89.25041Q97.765625 89.25041 97.38281 89.53166Q97.0 89.81291 96.8125 90.53166L95.703125 90.39104Q95.84375 89.67229 96.19531 89.226974Q96.546875 88.78166 97.21094 88.54729Q97.875 88.31291 98.734375 88.31291Q99.609375 88.31291 100.14844 88.51604Q100.6875 88.71916 100.9375 89.02385Q101.1875 89.32854 101.296875 89.79729Q101.34375 90.09416 101.34375 90.85979L101.34375 92.37541Q101.34375 93.96916 101.421875 94.39104Q101.5 94.81291 101.703125 95.20354L100.515625 95.20354Q100.34375 94.84416 100.28125 94.37541ZM100.1875 91.81291Q99.5625 92.07854 98.328125 92.25041Q97.625 92.35979 97.328125 92.48479Q97.03125 92.60979 96.875 92.851974Q96.71875 93.09416 96.71875 93.39104Q96.71875 93.84416 97.0625 94.14885Q97.40625 94.45354 98.078125 94.45354Q98.734375 94.45354 99.25 94.164474Q99.765625 93.87541 100.015625 93.37541Q100.1875 93.00041 100.1875 92.23479L100.1875 91.81291ZM103.296875 95.20354L103.296875 88.46916L104.3125 88.46916L104.3125 89.40666Q104.640625 88.90666 105.16406 88.60979Q105.6875 88.31291 106.359375 88.31291Q107.109375 88.31291 107.58594 88.62541Q108.0625 88.93791 108.265625 89.48479Q109.0625 88.31291 110.34375 88.31291Q111.34375 88.31291 111.88281 88.8676Q112.421875 89.42229 112.421875 90.57854L112.421875 95.20354L111.296875 95.20354L111.296875 90.95354Q111.296875 90.26604 111.1875 89.96916Q111.078125 89.67229 110.78125 89.48479Q110.484375 89.29729 110.09375 89.29729Q109.375 89.29729 108.90625 89.77385Q108.4375 90.25041 108.4375 91.28166L108.4375 95.20354L107.296875 95.20354L107.296875 90.82854Q107.296875 90.06291 107.015625 89.6801Q106.734375 89.29729 106.109375 89.29729Q105.625 89.29729 105.21875 89.5551Q104.8125 89.81291 104.625 90.29729Q104.4375 90.78166 104.4375 91.70354L104.4375 95.20354L103.296875 95.20354ZM119.015625 93.03166L120.203125 93.17229Q119.921875 94.21916 119.16406 94.789474Q118.40625 95.35979 117.234375 95.35979Q115.75 95.35979 114.88281 94.445724Q114.015625 93.53166 114.015625 91.89104Q114.015625 90.18791 114.89844 89.25041Q115.78125 88.31291 117.171875 88.31291Q118.53125 88.31291 119.38281 89.23479Q120.234375 90.15666 120.234375 91.81291Q120.234375 91.92229 120.234375 92.12541L115.203125 92.12541Q115.265625 93.23479 115.828125 93.82854Q116.390625 94.42229 117.234375 94.42229Q117.875 94.42229 118.32031 94.08635Q118.765625 93.75041 119.015625 93.03166ZM115.265625 91.18791L119.03125 91.18791Q118.953125 90.32854 118.59375 89.90666Q118.046875 89.25041 117.1875 89.25041Q116.390625 89.25041 115.859375 89.77385Q115.328125 90.29729 115.265625 91.18791ZM122.125 89.76604L122.125 88.46916L123.421875 88.46916L123.421875 89.76604L122.125 89.76604ZM122.125 95.20354L122.125 93.90666L123.421875 93.90666L123.421875 95.20354L122.125 95.20354Z" fill-rule="nonzero" fill="#000000"></path><path d="M47.03125 109.37541Q46.40625 109.90666 45.820312 110.133224Q45.234375 110.35979 44.5625 110.35979Q43.4375 110.35979 42.84375 109.81291Q42.25 109.26604 42.25 108.42229Q42.25 107.93791 42.476562 107.52385Q42.703125 107.10979 43.070312 106.85979Q43.4375 106.60979 43.890625 106.48479Q44.21875 106.40666 44.90625 106.31291Q46.28125 106.15666 46.9375 105.92229Q46.953125 105.68791 46.953125 105.62541Q46.953125 104.92229 46.625 104.64104Q46.1875 104.25041 45.328125 104.25041Q44.515625 104.25041 44.132812 104.53166Q43.75 104.81291 43.5625 105.53166L42.453125 105.39104Q42.59375 104.67229 42.945312 104.226974Q43.296875 103.78166 43.960938 103.54729Q44.625 103.31291 45.484375 103.31291Q46.359375 103.31291 46.898438 103.51604Q47.4375 103.71916 47.6875 104.02385Q47.9375 104.32854 48.046875 104.79729Q48.09375 105.09416 48.09375 105.85979L48.09375 107.37541Q48.09375 108.96916 48.171875 109.39104Q48.25 109.81291 48.453125 110.20354L47.265625 110.20354Q47.09375 109.84416 47.03125 109.37541ZM46.9375 106.81291Q46.3125 107.07854 45.078125 107.25041Q44.375 107.35979 44.078125 107.48479Q43.78125 107.60979 43.625 107.851974Q43.46875 108.09416 43.46875 108.39104Q43.46875 108.84416 43.8125 109.14885Q44.15625 109.45354 44.828125 109.45354Q45.484375 109.45354 46.0 109.164474Q46.515625 108.87541 46.765625 108.37541Q46.9375 108.00041 46.9375 107.23479L46.9375 106.81291ZM50.03125 110.20354L50.03125 100.89104L51.171875 100.89104L51.171875 110.20354L50.03125 110.20354ZM54.25 110.20354L52.1875 103.46916L53.375 103.46916L54.453125 107.35979L54.84375 108.79729Q54.875 108.68791 55.203125 107.40666L56.265625 103.46916L57.4375 103.46916L58.453125 107.37541L58.796875 108.65666L59.171875 107.35979L60.328125 103.46916L61.4375 103.46916L59.328125 110.20354L58.15625 110.20354L57.078125 106.17229L56.8125 105.01604L55.453125 110.20354L54.25 110.20354ZM67.03125 109.37541Q66.40625 109.90666 65.82031 110.133224Q65.234375 110.35979 64.5625 110.35979Q63.4375 110.35979 62.84375 109.81291Q62.25 109.26604 62.25 108.42229Q62.25 107.93791 62.476562 107.52385Q62.703125 107.10979 63.070312 106.85979Q63.4375 106.60979 63.890625 106.48479Q64.21875 106.40666 64.90625 106.31291Q66.28125 106.15666 66.9375 105.92229Q66.953125 105.68791 66.953125 105.62541Q66.953125 104.92229 66.625 104.64104Q66.1875 104.25041 65.328125 104.25041Q64.515625 104.25041 64.13281 104.53166Q63.75 104.81291 63.5625 105.53166L62.453125 105.39104Q62.59375 104.67229 62.945312 104.226974Q63.296875 103.78166 63.960938 103.54729Q64.625 103.31291 65.484375 103.31291Q66.359375 103.31291 66.89844 103.51604Q67.4375 103.71916 67.6875 104.02385Q67.9375 104.32854 68.046875 104.79729Q68.09375 105.09416 68.09375 105.85979L68.09375 107.37541Q68.09375 108.96916 68.171875 109.39104Q68.25 109.81291 68.453125 110.20354L67.265625 110.20354Q67.09375 109.84416 67.03125 109.37541ZM66.9375 106.81291Q66.3125 107.07854 65.078125 107.25041Q64.375 107.35979 64.078125 107.48479Q63.78125 107.60979 63.625 107.851974Q63.46875 108.09416 63.46875 108.39104Q63.46875 108.84416 63.8125 109.14885Q64.15625 109.45354 64.828125 109.45354Q65.484375 109.45354 66.0 109.164474Q66.515625 108.87541 66.765625 108.37541Q66.9375 108.00041 66.9375 107.23479L66.9375 106.81291ZM70.015625 112.79729L69.875 111.73479Q70.25 111.82854 70.53125 111.82854Q70.921875 111.82854 71.14844 111.70354Q71.375 111.57854 71.515625 111.34416Q71.625 111.17229 71.875 110.50041Q71.90625 110.40666 71.96875 110.21916L69.40625 103.46916L70.640625 103.46916L72.046875 107.35979Q72.3125 108.10979 72.53125 108.92229Q72.734375 108.14104 73.0 107.39104L74.453125 103.46916L75.59375 103.46916L73.03125 110.31291Q72.609375 111.42229 72.390625 111.84416Q72.078125 112.40666 71.6875 112.67229Q71.296875 112.93791 70.75 112.93791Q70.421875 112.93791 70.015625 112.79729ZM76.265625 108.18791L77.390625 108.01604Q77.484375 108.68791 77.921875 109.0551Q78.359375 109.42229 79.140625 109.42229Q79.921875 109.42229 80.30469 109.101974Q80.6875 108.78166 80.6875 108.34416Q80.6875 107.95354 80.34375 107.73479Q80.109375 107.57854 79.171875 107.34416Q77.921875 107.03166 77.4375 106.79729Q76.953125 106.56291 76.703125 106.15666Q76.453125 105.75041 76.453125 105.25041Q76.453125 104.79729 76.65625 104.414474Q76.859375 104.03166 77.21875 103.78166Q77.484375 103.57854 77.94531 103.445724Q78.40625 103.31291 78.9375 103.31291Q79.71875 103.31291 80.32031 103.539474Q80.921875 103.76604 81.21094 104.15666Q81.5 104.54729 81.609375 105.20354L80.484375 105.35979Q80.40625 104.82854 80.046875 104.539474Q79.6875 104.25041 79.015625 104.25041Q78.234375 104.25041 77.890625 104.508224Q77.546875 104.76604 77.546875 105.12541Q77.546875 105.34416 77.6875 105.51604Q77.828125 105.70354 78.125 105.82854Q78.296875 105.89104 79.140625 106.10979Q80.359375 106.43791 80.83594 106.64104Q81.3125 106.84416 81.58594 107.2426Q81.859375 107.64104 81.859375 108.21916Q81.859375 108.79729 81.52344 109.29729Q81.1875 109.79729 80.5625 110.07854Q79.9375 110.35979 79.140625 110.35979Q77.828125 110.35979 77.140625 109.81291Q76.453125 109.26604 76.265625 108.18791ZM87.15625 104.18791L86.828125 102.42229L86.828125 100.89104L88.125 100.89104L88.125 102.42229L87.84375 104.18791L87.15625 104.18791ZM89.25 104.18791L88.9375 102.42229L88.9375 100.89104L90.234375 100.89104L90.234375 102.42229L89.9375 104.18791L89.25 104.18791ZM96.1875 110.20354L96.1875 109.35979Q95.546875 110.35979 94.296875 110.35979Q93.5 110.35979 92.82031 109.914474Q92.140625 109.46916 91.765625 108.67229Q91.390625 107.87541 91.390625 106.84416Q91.390625 105.82854 91.734375 105.008224Q92.078125 104.18791 92.75 103.75041Q93.421875 103.31291 94.25 103.31291Q94.859375 103.31291 95.33594 103.570724Q95.8125 103.82854 96.109375 104.23479L96.109375 100.89104L97.25 100.89104L97.25 110.20354L96.1875 110.20354ZM92.578125 106.84416Q92.578125 108.14104 93.11719 108.78166Q93.65625 109.42229 94.40625 109.42229Q95.15625 109.42229 95.67969 108.8051Q96.203125 108.18791 96.203125 106.93791Q96.203125 105.54729 95.671875 104.89885Q95.140625 104.25041 94.359375 104.25041Q93.59375 104.25041 93.08594 104.87541Q92.578125 105.50041 92.578125 106.84416ZM103.84375 108.03166L105.03125 108.17229Q104.75 109.21916 103.99219 109.789474Q103.234375 110.35979 102.0625 110.35979Q100.578125 110.35979 99.71094 109.445724Q98.84375 108.53166 98.84375 106.89104Q98.84375 105.18791 99.72656 104.25041Q100.609375 103.31291 102.0 103.31291Q103.359375 103.31291 104.21094 104.23479Q105.0625 105.15666 105.0625 106.81291Q105.0625 106.92229 105.0625 107.12541L100.03125 107.12541Q100.09375 108.23479 100.65625 108.82854Q101.21875 109.42229 102.0625 109.42229Q102.703125 109.42229 103.14844 109.08635Q103.59375 108.75041 103.84375 108.03166ZM100.09375 106.18791L103.859375 106.18791Q103.78125 105.32854 103.421875 104.90666Q102.875 104.25041 102.015625 104.25041Q101.21875 104.25041 100.6875 104.77385Q100.15625 105.29729 100.09375 106.18791ZM106.625 110.20354L106.625 103.46916L107.65625 103.46916L107.65625 104.48479Q108.046875 103.76604 108.38281 103.539474Q108.71875 103.31291 109.109375 103.31291Q109.6875 103.31291 110.28125 103.67229L109.890625 104.73479Q109.46875 104.48479 109.0625 104.48479Q108.6875 104.48479 108.38281 104.71135Q108.078125 104.93791 107.953125 105.34416Q107.765625 105.95354 107.765625 106.67229L107.765625 110.20354L106.625 110.20354ZM112.125 110.20354L111.0625 110.20354L111.0625 100.89104L112.21875 100.89104L112.21875 104.21916Q112.9375 103.31291 114.0625 103.31291Q114.6875 103.31291 115.24219 103.56291Q115.796875 103.81291 116.15625 104.26604Q116.515625 104.71916 116.71875 105.35979Q116.921875 106.00041 116.921875 106.73479Q116.921875 108.46916 116.0625 109.414474Q115.203125 110.35979 114.0 110.35979Q112.8125 110.35979 112.125 109.35979L112.125 110.20354ZM112.109375 106.78166Q112.109375 108.00041 112.453125 108.53166Q112.984375 109.42229 113.90625 109.42229Q114.65625 109.42229 115.203125 108.76604Q115.75 108.10979 115.75 106.82854Q115.75 105.50041 115.22656 104.87541Q114.703125 104.25041 113.953125 104.25041Q113.203125 104.25041 112.65625 104.89885Q112.109375 105.54729 112.109375 106.78166ZM118.453125 112.79729L118.3125 111.73479Q118.6875 111.82854 118.96875 111.82854Q119.359375 111.82854 119.58594 111.70354Q119.8125 111.57854 119.953125 111.34416Q120.0625 111.17229 120.3125 110.50041Q120.34375 110.40666 120.40625 110.21916L117.84375 103.46916L119.078125 103.46916L120.484375 107.35979Q120.75 108.10979 120.96875 108.92229Q121.171875 108.14104 121.4375 107.39104L122.890625 103.46916L124.03125 103.46916L121.46875 110.31291Q121.046875 111.42229 120.828125 111.84416Q120.515625 112.40666 120.125 112.67229Q119.734375 112.93791 119.1875 112.93791Q118.859375 112.93791 118.453125 112.79729ZM125.21875 104.18791L124.890625 102.42229L124.890625 100.89104L126.1875 100.89104L126.1875 102.42229L125.90625 104.18791L125.21875 104.18791ZM127.3125 104.18791L127.0 102.42229L127.0 100.89104L128.29688 100.89104L128.29688 102.42229L128.0 104.18791L127.3125 104.18791Z" fill-rule="nonzero" fill="#000000"></path><path d="M217.08083 95.20354L217.08083 85.89104L220.28395 85.89104Q221.3777 85.89104 221.9402 86.03166Q222.7527 86.21916 223.3152 86.70354Q224.04958 87.31291 224.41676 88.28166Q224.78395 89.25041 224.78395 90.50041Q224.78395 91.56291 224.53395 92.383224Q224.28395 93.20354 223.89333 93.73479Q223.5027 94.26604 223.04176 94.57854Q222.58083 94.89104 221.93239 95.04729Q221.28395 95.20354 220.4402 95.20354L217.08083 95.20354ZM218.3152 94.10979L220.29958 94.10979Q221.22145 94.10979 221.74489 93.93791Q222.26833 93.76604 222.58083 93.45354Q223.01833 93.01604 223.26051 92.27385Q223.5027 91.53166 223.5027 90.48479Q223.5027 89.01604 223.02614 88.23479Q222.54958 87.45354 221.86208 87.18791Q221.36208 87.00041 220.26833 87.00041L218.3152 87.00041L218.3152 94.10979ZM226.65895 95.20354L226.65895 85.89104L230.14333 85.89104Q231.22145 85.89104 231.86208 86.1801Q232.5027 86.46916 232.86989 87.0551Q233.23708 87.64104 233.23708 88.28166Q233.23708 88.87541 232.90895 89.39885Q232.58083 89.92229 231.9402 90.25041Q232.78395 90.50041 233.23708 91.09416Q233.6902 91.68791 233.6902 92.50041Q233.6902 93.15666 233.40895 93.71916Q233.1277 94.28166 232.72145 94.58635Q232.3152 94.89104 231.70583 95.04729Q231.09645 95.20354 230.20583 95.20354L226.65895 95.20354ZM227.89333 89.81291L229.90895 89.81291Q230.72145 89.81291 231.08083 89.70354Q231.54958 89.56291 231.78395 89.23479Q232.01833 88.90666 232.01833 88.42229Q232.01833 87.95354 231.79958 87.601974Q231.58083 87.25041 231.16676 87.12541Q230.7527 87.00041 229.7527 87.00041L227.89333 87.00041L227.89333 89.81291ZM227.89333 94.10979L230.20583 94.10979Q230.79958 94.10979 231.04958 94.06291Q231.47145 93.98479 231.7527 93.8051Q232.03395 93.62541 232.22145 93.289474Q232.40895 92.95354 232.40895 92.50041Q232.40895 91.98479 232.14333 91.601974Q231.8777 91.21916 231.40114 91.06291Q230.92458 90.90666 230.03395 90.90666L227.89333 90.90666L227.89333 94.10979ZM239.29958 95.20354L239.29958 85.89104L242.8152 85.89104Q243.73708 85.89104 244.22145 85.98479Q244.90895 86.09416 245.3777 86.414474Q245.84645 86.73479 246.1277 87.31291Q246.40895 87.89104 246.40895 88.59416Q246.40895 89.78166 245.65114 90.601974Q244.89333 91.42229 242.92458 91.42229L240.53395 91.42229L240.53395 95.20354L239.29958 95.20354ZM240.53395 90.32854L242.9402 90.32854Q244.1277 90.32854 244.63551 89.883224Q245.14333 89.43791 245.14333 88.62541Q245.14333 88.04729 244.84645 87.633224Q244.54958 87.21916 244.0652 87.07854Q243.7527 87.00041 242.90895 87.00041L240.53395 87.00041L240.53395 90.32854ZM252.4402 94.37541Q251.8152 94.90666 251.22926 95.133224Q250.64333 95.35979 249.97145 95.35979Q248.84645 95.35979 248.2527 94.81291Q247.65895 94.26604 247.65895 93.42229Q247.65895 92.93791 247.88551 92.52385Q248.11208 92.10979 248.47926 91.85979Q248.84645 91.60979 249.29958 91.48479Q249.6277 91.40666 250.3152 91.31291Q251.6902 91.15666 252.34645 90.92229Q252.36208 90.68791 252.36208 90.62541Q252.36208 89.92229 252.03395 89.64104Q251.59645 89.25041 250.73708 89.25041Q249.92458 89.25041 249.54176 89.53166Q249.15895 89.81291 248.97145 90.53166L247.86208 90.39104Q248.0027 89.67229 248.35426 89.226974Q248.70583 88.78166 249.36989 88.54729Q250.03395 88.31291 250.89333 88.31291Q251.76833 88.31291 252.30739 88.51604Q252.84645 88.71916 253.09645 89.02385Q253.34645 89.32854 253.45583 89.79729Q253.5027 90.09416 253.5027 90.85979L253.5027 92.37541Q253.5027 93.96916 253.58083 94.39104Q253.65895 94.81291 253.86208 95.20354L252.67458 95.20354Q252.5027 94.84416 252.4402 94.37541ZM252.34645 91.81291Q251.72145 92.07854 250.48708 92.25041Q249.78395 92.35979 249.48708 92.48479Q249.1902 92.60979 249.03395 92.851974Q248.8777 93.09416 248.8777 93.39104Q248.8777 93.84416 249.22145 94.14885Q249.5652 94.45354 250.23708 94.45354Q250.89333 94.45354 251.40895 94.164474Q251.92458 93.87541 252.17458 93.37541Q252.34645 93.00041 252.34645 92.23479L252.34645 91.81291ZM257.97147 94.18791L258.12772 95.18791Q257.64334 95.29729 257.26834 95.29729Q256.64334 95.29729 256.2996 95.09416Q255.95583 94.89104 255.8152 94.570724Q255.67458 94.25041 255.67458 93.23479L255.67458 89.34416L254.84645 89.34416L254.84645 88.46916L255.67458 88.46916L255.67458 86.79729L256.81522 86.10979L256.81522 88.46916L257.97147 88.46916L257.97147 89.34416L256.81522 89.34416L256.81522 93.29729Q256.81522 93.78166 256.87772 93.92229Q256.94022 94.06291 257.07303 94.14104Q257.20584 94.21916 257.45584 94.21916Q257.65897 94.21916 257.97147 94.18791ZM259.1746 95.20354L259.1746 85.89104L260.31522 85.89104L260.31522 89.23479Q261.1121 88.31291 262.33084 88.31291Q263.08084 88.31291 263.63553 88.60979Q264.19022 88.90666 264.4246 89.42229Q264.65897 89.93791 264.65897 90.93791L264.65897 95.20354L263.51834 95.20354L263.51834 90.93791Q263.51834 90.07854 263.15115 89.68791Q262.78397 89.29729 262.09647 89.29729Q261.59647 89.29729 261.14334 89.5551Q260.69022 89.81291 260.50272 90.26604Q260.31522 90.71916 260.31522 91.51604L260.31522 95.20354L259.1746 95.20354ZM266.89334 89.76604L266.89334 88.46916L268.19022 88.46916L268.19022 89.76604L266.89334 89.76604ZM266.89334 95.20354L266.89334 93.90666L268.19022 93.90666L268.19022 95.20354L266.89334 95.20354Z" fill-rule="nonzero" fill="#000000"></path><path d="M173.01833 110.20354L173.01833 100.89104L176.53395 100.89104Q177.45583 100.89104 177.9402 100.98479Q178.6277 101.09416 179.09645 101.414474Q179.5652 101.73479 179.84645 102.31291Q180.1277 102.89104 180.1277 103.59416Q180.1277 104.78166 179.36989 105.601974Q178.61208 106.42229 176.64333 106.42229L174.2527 106.42229L174.2527 110.20354L173.01833 110.20354ZM174.2527 105.32854L176.65895 105.32854Q177.84645 105.32854 178.35426 104.883224Q178.86208 104.43791 178.86208 103.62541Q178.86208 103.04729 178.5652 102.633224Q178.26833 102.21916 177.78395 102.07854Q177.47145 102.00041 176.6277 102.00041L174.2527 102.00041L174.2527 105.32854ZM186.15895 109.37541Q185.53395 109.90666 184.94801 110.133224Q184.36208 110.35979 183.6902 110.35979Q182.5652 110.35979 181.97145 109.81291Q181.3777 109.26604 181.3777 108.42229Q181.3777 107.93791 181.60426 107.52385Q181.83083 107.10979 182.19801 106.85979Q182.5652 106.60979 183.01833 106.48479Q183.34645 106.40666 184.03395 106.31291Q185.40895 106.15666 186.0652 105.92229Q186.08083 105.68791 186.08083 105.62541Q186.08083 104.92229 185.7527 104.64104Q185.3152 104.25041 184.45583 104.25041Q183.64333 104.25041 183.26051 104.53166Q182.8777 104.81291 182.6902 105.53166L181.58083 105.39104Q181.72145 104.67229 182.07301 104.226974Q182.42458 103.78166 183.08864 103.54729Q183.7527 103.31291 184.61208 103.31291Q185.48708 103.31291 186.02614 103.51604Q186.5652 103.71916 186.8152 104.02385Q187.0652 104.32854 187.17458 104.79729Q187.22145 105.09416 187.22145 105.85979L187.22145 107.37541Q187.22145 108.96916 187.29958 109.39104Q187.3777 109.81291 187.58083 110.20354L186.39333 110.20354Q186.22145 109.84416 186.15895 109.37541ZM186.0652 106.81291Q185.4402 107.07854 184.20583 107.25041Q183.5027 107.35979 183.20583 107.48479Q182.90895 107.60979 182.7527 107.851974Q182.59645 108.09416 182.59645 108.39104Q182.59645 108.84416 182.9402 109.14885Q183.28395 109.45354 183.95583 109.45354Q184.61208 109.45354 185.1277 109.164474Q185.64333 108.87541 185.89333 108.37541Q186.0652 108.00041 186.0652 107.23479L186.0652 106.81291ZM191.67458 109.18791L191.83083 110.18791Q191.34645 110.29729 190.97145 110.29729Q190.34645 110.29729 190.0027 110.09416Q189.65895 109.89104 189.51833 109.570724Q189.3777 109.25041 189.3777 108.23479L189.3777 104.34416L188.54958 104.34416L188.54958 103.46916L189.3777 103.46916L189.3777 101.79729L190.51833 101.10979L190.51833 103.46916L191.67458 103.46916L191.67458 104.34416L190.51833 104.34416L190.51833 108.29729Q190.51833 108.78166 190.58083 108.92229Q190.64333 109.06291 190.77614 109.14104Q190.90895 109.21916 191.15895 109.21916Q191.36208 109.21916 191.67458 109.18791ZM192.8777 110.20354L192.8777 100.89104L194.01833 100.89104L194.01833 104.23479Q194.8152 103.31291 196.03395 103.31291Q196.78395 103.31291 197.33864 103.60979Q197.89333 103.90666 198.1277 104.42229Q198.36208 104.93791 198.36208 105.93791L198.36208 110.20354L197.22145 110.20354L197.22145 105.93791Q197.22145 105.07854 196.85426 104.68791Q196.48708 104.29729 195.79958 104.29729Q195.29958 104.29729 194.84645 104.5551Q194.39333 104.81291 194.20583 105.26604Q194.01833 105.71916 194.01833 106.51604L194.01833 110.20354L192.8777 110.20354ZM206.5027 109.18791L206.65895 110.18791Q206.17458 110.29729 205.79958 110.29729Q205.17458 110.29729 204.83083 110.09416Q204.48708 109.89104 204.34645 109.570724Q204.20583 109.25041 204.20583 108.23479L204.20583 104.34416L203.3777 104.34416L203.3777 103.46916L204.20583 103.46916L204.20583 101.79729L205.34645 101.10979L205.34645 103.46916L206.5027 103.46916L206.5027 104.34416L205.34645 104.34416L205.34645 108.29729Q205.34645 108.78166 205.40895 108.92229Q205.47145 109.06291 205.60426 109.14104Q205.73708 109.21916 205.98708 109.21916Q206.1902 109.21916 206.5027 109.18791ZM207.28395 106.82854Q207.28395 104.95354 208.3152 104.06291Q209.1902 103.31291 210.4402 103.31291Q211.83083 103.31291 212.71364 104.21916Q213.59645 105.12541 213.59645 106.73479Q213.59645 108.03166 213.20583 108.78166Q212.8152 109.53166 212.0652 109.945724Q211.3152 110.35979 210.4402 110.35979Q209.01833 110.35979 208.15114 109.45354Q207.28395 108.54729 207.28395 106.82854ZM208.45583 106.82854Q208.45583 108.12541 209.01833 108.77385Q209.58083 109.42229 210.4402 109.42229Q211.28395 109.42229 211.85426 108.77385Q212.42458 108.12541 212.42458 106.79729Q212.42458 105.54729 211.85426 104.89885Q211.28395 104.25041 210.4402 104.25041Q209.58083 104.25041 209.01833 104.89104Q208.45583 105.53166 208.45583 106.82854ZM218.95583 110.20354L218.95583 100.89104L222.15895 100.89104Q223.2527 100.89104 223.8152 101.03166Q224.6277 101.21916 225.1902 101.70354Q225.92458 102.31291 226.29176 103.28166Q226.65895 104.25041 226.65895 105.50041Q226.65895 106.56291 226.40895 107.383224Q226.15895 108.20354 225.76833 108.73479Q225.3777 109.26604 224.91676 109.57854Q224.45583 109.89104 223.80739 110.04729Q223.15895 110.20354 222.3152 110.20354L218.95583 110.20354ZM220.1902 109.10979L222.17458 109.10979Q223.09645 109.10979 223.61989 108.93791Q224.14333 108.76604 224.45583 108.45354Q224.89333 108.01604 225.13551 107.27385Q225.3777 106.53166 225.3777 105.48479Q225.3777 104.01604 224.90114 103.23479Q224.42458 102.45354 223.73708 102.18791Q223.23708 102.00041 222.14333 102.00041L220.1902 102.00041L220.1902 109.10979ZM228.53395 110.20354L228.53395 100.89104L232.01833 100.89104Q233.09645 100.89104 233.73708 101.1801Q234.3777 101.46916 234.74489 102.0551Q235.11208 102.64104 235.11208 103.28166Q235.11208 103.87541 234.78395 104.39885Q234.45583 104.92229 233.8152 105.25041Q234.65895 105.50041 235.11208 106.09416Q235.5652 106.68791 235.5652 107.50041Q235.5652 108.15666 235.28395 108.71916Q235.0027 109.28166 234.59645 109.58635Q234.1902 109.89104 233.58083 110.04729Q232.97145 110.20354 232.08083 110.20354L228.53395 110.20354ZM229.76833 104.81291L231.78395 104.81291Q232.59645 104.81291 232.95583 104.70354Q233.42458 104.56291 233.65895 104.23479Q233.89333 103.90666 233.89333 103.42229Q233.89333 102.95354 233.67458 102.601974Q233.45583 102.25041 233.04176 102.12541Q232.6277 102.00041 231.6277 102.00041L229.76833 102.00041L229.76833 104.81291ZM229.76833 109.10979L232.08083 109.10979Q232.67458 109.10979 232.92458 109.06291Q233.34645 108.98479 233.6277 108.8051Q233.90895 108.62541 234.09645 108.289474Q234.28395 107.95354 234.28395 107.50041Q234.28395 106.98479 234.01833 106.601974Q233.7527 106.21916 233.27614 106.06291Q232.79958 105.90666 231.90895 105.90666L229.76833 105.90666L229.76833 109.10979ZM241.03395 102.21916L241.03395 100.89104L242.17458 100.89104L242.17458 102.21916L241.03395 102.21916ZM241.03395 110.20354L241.03395 103.46916L242.17458 103.46916L242.17458 110.20354L241.03395 110.20354ZM243.98708 110.20354L243.98708 103.46916L245.01833 103.46916L245.01833 104.42229Q245.7527 103.31291 247.15895 103.31291Q247.76833 103.31291 248.27614 103.53166Q248.78395 103.75041 249.04176 104.101974Q249.29958 104.45354 249.39333 104.95354Q249.45583 105.26604 249.45583 106.06291L249.45583 110.20354L248.3152 110.20354L248.3152 106.10979Q248.3152 105.40666 248.18239 105.06291Q248.04958 104.71916 247.71364 104.508224Q247.3777 104.29729 246.92458 104.29729Q246.1902 104.29729 245.65895 104.758224Q245.1277 105.21916 245.1277 106.51604L245.1277 110.20354L243.98708 110.20354ZM255.3777 110.20354L255.3777 104.34416L254.3777 104.34416L254.3777 103.46916L255.3777 103.46916L255.3777 102.75041Q255.3777 102.06291 255.5027 101.73479Q255.67458 101.29729 256.08865 101.01604Q256.50272 100.73479 257.25272 100.73479Q257.7371 100.73479 258.31522 100.85979L258.14334 101.84416Q257.78397 101.78166 257.47147 101.78166Q256.95584 101.78166 256.7371 102.008224Q256.51834 102.23479 256.51834 102.84416L256.51834 103.46916L257.83084 103.46916L257.83084 104.34416L256.51834 104.34416L256.51834 110.20354L255.3777 110.20354ZM258.81522 102.21916L258.81522 100.89104L259.95584 100.89104L259.95584 102.21916L258.81522 102.21916ZM258.81522 110.20354L258.81522 103.46916L259.95584 103.46916L259.95584 110.20354L258.81522 110.20354ZM261.7371 110.20354L261.7371 100.89104L262.87772 100.89104L262.87772 110.20354L261.7371 110.20354ZM269.34647 108.03166L270.53397 108.17229Q270.25272 109.21916 269.4949 109.789474Q268.7371 110.35979 267.56522 110.35979Q266.08084 110.35979 265.21365 109.445724Q264.34647 108.53166 264.34647 106.89104Q264.34647 105.18791 265.22928 104.25041Q266.1121 103.31291 267.50272 103.31291Q268.8621 103.31291 269.71365 104.23479Q270.56522 105.15666 270.56522 106.81291Q270.56522 106.92229 270.56522 107.12541L265.53397 107.12541Q265.59647 108.23479 266.15897 108.82854Q266.72147 109.42229 267.56522 109.42229Q268.20584 109.42229 268.65115 109.08635Q269.09647 108.75041 269.34647 108.03166ZM265.59647 106.18791L269.3621 106.18791Q269.28397 105.32854 268.9246 104.90666Q268.37772 104.25041 267.51834 104.25041Q266.72147 104.25041 266.19022 104.77385Q265.65897 105.29729 265.59647 106.18791ZM271.69022 108.18791L272.81522 108.01604Q272.90897 108.68791 273.34647 109.0551Q273.78397 109.42229 274.56522 109.42229Q275.34647 109.42229 275.72928 109.101974Q276.1121 108.78166 276.1121 108.34416Q276.1121 107.95354 275.76834 107.73479Q275.53397 107.57854 274.59647 107.34416Q273.34647 107.03166 272.8621 106.79729Q272.37772 106.56291 272.12772 106.15666Q271.87772 105.75041 271.87772 105.25041Q271.87772 104.79729 272.08084 104.414474Q272.28397 104.03166 272.64334 103.78166Q272.90897 103.57854 273.3699 103.445724Q273.83084 103.31291 274.3621 103.31291Q275.14334 103.31291 275.7449 103.539474Q276.34647 103.76604 276.63553 104.15666Q276.9246 104.54729 277.03397 105.20354L275.90897 105.35979Q275.83084 104.82854 275.47147 104.539474Q275.1121 104.25041 274.44022 104.25041Q273.65897 104.25041 273.31522 104.508224Q272.97147 104.76604 272.97147 105.12541Q272.97147 105.34416 273.1121 105.51604Q273.25272 105.70354 273.5496 105.82854Q273.72147 105.89104 274.56522 106.10979Q275.78397 106.43791 276.26053 106.64104Q276.7371 106.84416 277.01053 107.2426Q277.28397 107.64104 277.28397 108.21916Q277.28397 108.79729 276.94803 109.29729Q276.6121 109.79729 275.9871 110.07854Q275.3621 110.35979 274.56522 110.35979Q273.25272 110.35979 272.56522 109.81291Q271.87772 109.26604 271.69022 108.18791ZM278.76834 112.79729L278.62772 111.73479Q279.00272 111.82854 279.28397 111.82854Q279.6746 111.82854 279.90115 111.70354Q280.12772 111.57854 280.26834 111.34416Q280.37772 111.17229 280.62772 110.50041Q280.65897 110.40666 280.72147 110.21916L278.15897 103.46916L279.39334 103.46916L280.7996 107.35979Q281.06522 108.10979 281.28397 108.92229Q281.4871 108.14104 281.75272 107.39104L283.20584 103.46916L284.34647 103.46916L281.78397 110.31291Q281.3621 111.42229 281.14334 111.84416Q280.83084 112.40666 280.44022 112.67229Q280.0496 112.93791 279.50272 112.93791Q279.1746 112.93791 278.76834 112.79729ZM285.01834 108.18791L286.14334 108.01604Q286.2371 108.68791 286.6746 109.0551Q287.1121 109.42229 287.89334 109.42229Q288.6746 109.42229 289.0574 109.101974Q289.44022 108.78166 289.44022 108.34416Q289.44022 107.95354 289.09647 107.73479Q288.8621 107.57854 287.9246 107.34416Q286.6746 107.03166 286.19022 106.79729Q285.70584 106.56291 285.45584 106.15666Q285.20584 105.75041 285.20584 105.25041Q285.20584 104.79729 285.40897 104.414474Q285.6121 104.03166 285.97147 103.78166Q286.2371 103.57854 286.69803 103.445724Q287.15897 103.31291 287.69022 103.31291Q288.47147 103.31291 289.07303 103.539474Q289.6746 103.76604 289.96365 104.15666Q290.25272 104.54729 290.3621 105.20354L289.2371 105.35979Q289.15897 104.82854 288.7996 104.539474Q288.44022 104.25041 287.76834 104.25041Q286.9871 104.25041 286.64334 104.508224Q286.2996 104.76604 286.2996 105.12541Q286.2996 105.34416 286.44022 105.51604Q286.58084 105.70354 286.87772 105.82854Q287.0496 105.89104 287.89334 106.10979Q289.1121 106.43791 289.58865 106.64104Q290.06522 106.84416 290.33865 107.2426Q290.6121 107.64104 290.6121 108.21916Q290.6121 108.79729 290.27615 109.29729Q289.94022 109.79729 289.31522 110.07854Q288.69022 110.35979 287.89334 110.35979Q286.58084 110.35979 285.89334 109.81291Q285.20584 109.26604 285.01834 108.18791ZM294.64334 109.18791L294.7996 110.18791Q294.31522 110.29729 293.94022 110.29729Q293.31522 110.29729 292.97147 110.09416Q292.62772 109.89104 292.4871 109.570724Q292.34647 109.25041 292.34647 108.23479L292.34647 104.34416L291.51834 104.34416L291.51834 103.46916L292.34647 103.46916L292.34647 101.79729L293.4871 101.10979L293.4871 103.46916L294.64334 103.46916L294.64334 104.34416L293.4871 104.34416L293.4871 108.29729Q293.4871 108.78166 293.5496 108.92229Q293.6121 109.06291 293.7449 109.14104Q293.87772 109.21916 294.12772 109.21916Q294.33084 109.21916 294.64334 109.18791ZM300.45584 108.03166L301.64334 108.17229Q301.3621 109.21916 300.60428 109.789474Q299.84647 110.35979 298.6746 110.35979Q297.19022 110.35979 296.32303 109.445724Q295.45584 108.53166 295.45584 106.89104Q295.45584 105.18791 296.33865 104.25041Q297.22147 103.31291 298.6121 103.31291Q299.97147 103.31291 300.82303 104.23479Q301.6746 105.15666 301.6746 106.81291Q301.6746 106.92229 301.6746 107.12541L296.64334 107.12541Q296.70584 108.23479 297.26834 108.82854Q297.83084 109.42229 298.6746 109.42229Q299.31522 109.42229 299.76053 109.08635Q300.20584 108.75041 300.45584 108.03166ZM296.70584 106.18791L300.47147 106.18791Q300.39334 105.32854 300.03397 104.90666Q299.4871 104.25041 298.62772 104.25041Q297.83084 104.25041 297.2996 104.77385Q296.76834 105.29729 296.70584 106.18791ZM303.25272 110.20354L303.25272 103.46916L304.26834 103.46916L304.26834 104.40666Q304.59647 103.90666 305.1199 103.60979Q305.64334 103.31291 306.31522 103.31291Q307.06522 103.31291 307.54178 103.62541Q308.01834 103.93791 308.22147 104.48479Q309.01834 103.31291 310.2996 103.31291Q311.2996 103.31291 311.83865 103.8676Q312.37772 104.42229 312.37772 105.57854L312.37772 110.20354L311.25272 110.20354L311.25272 105.95354Q311.25272 105.26604 311.14334 104.96916Q311.03397 104.67229 310.7371 104.48479Q310.44022 104.29729 310.0496 104.29729Q309.33084 104.29729 308.8621 104.77385Q308.39334 105.25041 308.39334 106.28166L308.39334 110.20354L307.25272 110.20354L307.25272 105.82854Q307.25272 105.06291 306.97147 104.6801Q306.69022 104.29729 306.06522 104.29729Q305.58084 104.29729 305.1746 104.5551Q304.76834 104.81291 304.58084 105.29729Q304.39334 105.78166 304.39334 106.70354L304.39334 110.20354L303.25272 110.20354Z" fill-rule="nonzero" fill="#000000"></path><path d="M242.32283 47.942257L242.87672 68.198715" fill-rule="evenodd" stroke="#073763" stroke-width="2.0" stroke-linejoin="round" stroke-linecap="butt"></path><path d="M239.5745 68.28901L243.1248 77.271515L246.17896 68.10841Z" fill-rule="evenodd" fill="#073763" stroke="#073763" stroke-width="2.0" stroke-linecap="butt"></path><path d="M365.65244 95.20354L365.65244 85.89104L369.16806 85.89104Q370.08994 85.89104 370.5743 85.98479Q371.2618 86.09416 371.73056 86.414474Q372.1993 86.73479 372.48056 87.31291Q372.7618 87.89104 372.7618 88.59416Q372.7618 89.78166 372.004 90.601974Q371.2462 91.42229 369.27744 91.42229L366.8868 91.42229L366.8868 95.20354L365.65244 95.20354ZM366.8868 90.32854L369.29306 90.32854Q370.48056 90.32854 370.98837 89.883224Q371.4962 89.43791 371.4962 88.62541Q371.4962 88.04729 371.1993 87.633224Q370.90244 87.21916 370.41806 87.07854Q370.10556 87.00041 369.2618 87.00041L366.8868 87.00041L366.8868 90.32854ZM378.79306 94.37541Q378.16806 94.90666 377.58212 95.133224Q376.9962 95.35979 376.3243 95.35979Q375.1993 95.35979 374.60556 94.81291Q374.0118 94.26604 374.0118 93.42229Q374.0118 92.93791 374.23837 92.52385Q374.46494 92.10979 374.83212 91.85979Q375.1993 91.60979 375.65244 91.48479Q375.98056 91.40666 376.66806 91.31291Q378.04306 91.15666 378.6993 90.92229Q378.71494 90.68791 378.71494 90.62541Q378.71494 89.92229 378.3868 89.64104Q377.9493 89.25041 377.08994 89.25041Q376.27744 89.25041 375.89462 89.53166Q375.5118 89.81291 375.3243 90.53166L374.21494 90.39104Q374.35556 89.67229 374.70712 89.226974Q375.0587 88.78166 375.72275 88.54729Q376.3868 88.31291 377.2462 88.31291Q378.1212 88.31291 378.66025 88.51604Q379.1993 88.71916 379.4493 89.02385Q379.6993 89.32854 379.8087 89.79729Q379.85556 90.09416 379.85556 90.85979L379.85556 92.37541Q379.85556 93.96916 379.9337 94.39104Q380.0118 94.81291 380.21494 95.20354L379.02744 95.20354Q378.85556 94.84416 378.79306 94.37541ZM378.6993 91.81291Q378.0743 92.07854 376.83994 92.25041Q376.1368 92.35979 375.83994 92.48479Q375.54306 92.60979 375.3868 92.851974Q375.23056 93.09416 375.23056 93.39104Q375.23056 93.84416 375.5743 94.14885Q375.91806 94.45354 376.58994 94.45354Q377.2462 94.45354 377.7618 94.164474Q378.27744 93.87541 378.52744 93.37541Q378.6993 93.00041 378.6993 92.23479L378.6993 91.81291ZM381.79306 95.20354L381.79306 88.46916L382.8243 88.46916L382.8243 89.48479Q383.21494 88.76604 383.55087 88.539474Q383.8868 88.31291 384.27744 88.31291Q384.85556 88.31291 385.4493 88.67229L385.0587 89.73479Q384.6368 89.48479 384.23056 89.48479Q383.85556 89.48479 383.55087 89.71135Q383.2462 89.93791 383.1212 90.34416Q382.9337 90.95354 382.9337 91.67229L382.9337 95.20354L381.79306 95.20354ZM390.65244 94.37541Q390.02744 94.90666 389.4415 95.133224Q388.85556 95.35979 388.1837 95.35979Q387.0587 95.35979 386.46494 94.81291Q385.8712 94.26604 385.8712 93.42229Q385.8712 92.93791 386.09775 92.52385Q386.3243 92.10979 386.6915 91.85979Q387.0587 91.60979 387.5118 91.48479Q387.83994 91.40666 388.52744 91.31291Q389.90244 91.15666 390.5587 90.92229Q390.5743 90.68791 390.5743 90.62541Q390.5743 89.92229 390.2462 89.64104Q389.8087 89.25041 388.9493 89.25041Q388.1368 89.25041 387.754 89.53166Q387.3712 89.81291 387.1837 90.53166L386.0743 90.39104Q386.21494 89.67229 386.5665 89.226974Q386.91806 88.78166 387.58212 88.54729Q388.2462 88.31291 389.10556 88.31291Q389.98056 88.31291 390.51962 88.51604Q391.0587 88.71916 391.3087 89.02385Q391.5587 89.32854 391.66806 89.79729Q391.71494 90.09416 391.71494 90.85979L391.71494 92.37541Q391.71494 93.96916 391.79306 94.39104Q391.8712 94.81291 392.0743 95.20354L390.8868 95.20354Q390.71494 94.84416 390.65244 94.37541ZM390.5587 91.81291Q389.9337 92.07854 388.6993 92.25041Q387.9962 92.35979 387.6993 92.48479Q387.40244 92.60979 387.2462 92.851974Q387.08994 93.09416 387.08994 93.39104Q387.08994 93.84416 387.4337 94.14885Q387.77744 94.45354 388.4493 94.45354Q389.10556 94.45354 389.6212 94.164474Q390.1368 93.87541 390.3868 93.37541Q390.5587 93.00041 390.5587 92.23479L390.5587 91.81291ZM393.66806 95.20354L393.66806 88.46916L394.6837 88.46916L394.6837 89.40666Q395.0118 88.90666 395.53525 88.60979Q396.0587 88.31291 396.73056 88.31291Q397.48056 88.31291 397.95712 88.62541Q398.4337 88.93791 398.6368 89.48479Q399.4337 88.31291 400.71494 88.31291Q401.71494 88.31291 402.254 88.8676Q402.79306 89.42229 402.79306 90.57854L402.79306 95.20354L401.66806 95.20354L401.66806 90.95354Q401.66806 90.26604 401.5587 89.96916Q401.4493 89.67229 401.15244 89.48479Q400.85556 89.29729 400.46494 89.29729Q399.7462 89.29729 399.27744 89.77385Q398.8087 90.25041 398.8087 91.28166L398.8087 95.20354L397.66806 95.20354L397.66806 90.82854Q397.66806 90.06291 397.3868 89.6801Q397.10556 89.29729 396.48056 89.29729Q395.9962 89.29729 395.58994 89.5551Q395.1837 89.81291 394.9962 90.29729Q394.8087 90.78166 394.8087 91.70354L394.8087 95.20354L393.66806 95.20354ZM409.3712 93.03166L410.5587 93.17229Q410.27744 94.21916 409.51962 94.789474Q408.7618 95.35979 407.58994 95.35979Q406.10556 95.35979 405.23837 94.445724Q404.3712 93.53166 404.3712 91.89104Q404.3712 90.18791 405.254 89.25041Q406.1368 88.31291 407.52744 88.31291Q408.8868 88.31291 409.73837 89.23479Q410.58994 90.15666 410.58994 91.81291Q410.58994 91.92229 410.58994 92.12541L405.5587 92.12541Q405.6212 93.23479 406.1837 93.82854Q406.7462 94.42229 407.58994 94.42229Q408.23056 94.42229 408.67587 94.08635Q409.1212 93.75041 409.3712 93.03166ZM405.6212 91.18791L409.3868 91.18791Q409.3087 90.32854 408.9493 89.90666Q408.40244 89.25041 407.54306 89.25041Q406.7462 89.25041 406.21494 89.77385Q405.6837 90.29729 405.6212 91.18791ZM414.6837 94.18791L414.83994 95.18791Q414.35556 95.29729 413.98056 95.29729Q413.35556 95.29729 413.0118 95.09416Q412.66806 94.89104 412.52744 94.570724Q412.3868 94.25041 412.3868 93.23479L412.3868 89.34416L411.5587 89.34416L411.5587 88.46916L412.3868 88.46916L412.3868 86.79729L413.52744 86.10979L413.52744 88.46916L414.6837 88.46916L414.6837 89.34416L413.52744 89.34416L413.52744 93.29729Q413.52744 93.78166 413.58994 93.92229Q413.65244 94.06291 413.78525 94.14104Q413.91806 94.21916 414.16806 94.21916Q414.3712 94.21916 414.6837 94.18791ZM420.4962 93.03166L421.6837 93.17229Q421.40244 94.21916 420.64462 94.789474Q419.8868 95.35979 418.71494 95.35979Q417.23056 95.35979 416.36337 94.445724Q415.4962 93.53166 415.4962 91.89104Q415.4962 90.18791 416.379 89.25041Q417.2618 88.31291 418.65244 88.31291Q420.0118 88.31291 420.86337 89.23479Q421.71494 90.15666 421.71494 91.81291Q421.71494 91.92229 421.71494 92.12541L416.6837 92.12541Q416.7462 93.23479 417.3087 93.82854Q417.8712 94.42229 418.71494 94.42229Q419.35556 94.42229 419.80087 94.08635Q420.2462 93.75041 420.4962 93.03166ZM416.7462 91.18791L420.5118 91.18791Q420.4337 90.32854 420.0743 89.90666Q419.52744 89.25041 418.66806 89.25041Q417.8712 89.25041 417.33994 89.77385Q416.8087 90.29729 416.7462 91.18791ZM423.27744 95.20354L423.27744 88.46916L424.3087 88.46916L424.3087 89.48479Q424.6993 88.76604 425.03525 88.539474Q425.3712 88.31291 425.7618 88.31291Q426.33994 88.31291 426.9337 88.67229L426.54306 89.73479Q426.1212 89.48479 425.71494 89.48479Q425.33994 89.48479 425.03525 89.71135Q424.73056 89.93791 424.60556 90.34416Q424.41806 90.95354 424.41806 91.67229L424.41806 95.20354L423.27744 95.20354ZM427.27744 93.18791L428.40244 93.01604Q428.4962 93.68791 428.9337 94.0551Q429.3712 94.42229 430.15244 94.42229Q430.9337 94.42229 431.3165 94.101974Q431.6993 93.78166 431.6993 93.34416Q431.6993 92.95354 431.35556 92.73479Q431.1212 92.57854 430.1837 92.34416Q428.9337 92.03166 428.4493 91.79729Q427.96494 91.56291 427.71494 91.15666Q427.46494 90.75041 427.46494 90.25041Q427.46494 89.79729 427.66806 89.414474Q427.8712 89.03166 428.23056 88.78166Q428.4962 88.57854 428.95712 88.445724Q429.41806 88.31291 429.9493 88.31291Q430.73056 88.31291 431.33212 88.539474Q431.9337 88.76604 432.22275 89.15666Q432.5118 89.54729 432.6212 90.20354L431.4962 90.35979Q431.41806 89.82854 431.0587 89.539474Q430.6993 89.25041 430.02744 89.25041Q429.2462 89.25041 428.90244 89.508224Q428.5587 89.76604 428.5587 90.12541Q428.5587 90.34416 428.6993 90.51604Q428.83994 90.70354 429.1368 90.82854Q429.3087 90.89104 430.15244 91.10979Q431.3712 91.43791 431.84775 91.64104Q432.3243 91.84416 432.59775 92.2426Q432.8712 92.64104 432.8712 93.21916Q432.8712 93.79729 432.53525 94.29729Q432.1993 94.79729 431.5743 95.07854Q430.9493 95.35979 430.15244 95.35979Q428.83994 95.35979 428.15244 94.81291Q427.46494 94.26604 427.27744 93.18791ZM440.29306 97.93791Q439.33994 96.75041 438.6837 95.14885Q438.02744 93.54729 438.02744 91.82854Q438.02744 90.32854 438.52744 88.93791Q439.08994 87.32854 440.29306 85.73479L441.10556 85.73479Q440.33994 87.06291 440.08994 87.62541Q439.6993 88.50041 439.48056 89.45354Q439.21494 90.64104 439.21494 91.84416Q439.21494 94.89104 441.10556 97.93791L440.29306 97.93791ZM442.1212 91.82854Q442.1212 89.95354 443.15244 89.06291Q444.02744 88.31291 445.27744 88.31291Q446.66806 88.31291 447.55087 89.21916Q448.4337 90.12541 448.4337 91.73479Q448.4337 93.03166 448.04306 93.78166Q447.65244 94.53166 446.90244 94.945724Q446.15244 95.35979 445.27744 95.35979Q443.85556 95.35979 442.98837 94.45354Q442.1212 93.54729 442.1212 91.82854ZM443.29306 91.82854Q443.29306 93.12541 443.85556 93.77385Q444.41806 94.42229 445.27744 94.42229Q446.1212 94.42229 446.6915 93.77385Q447.2618 93.12541 447.2618 91.79729Q447.2618 90.54729 446.6915 89.89885Q446.1212 89.25041 445.27744 89.25041Q444.41806 89.25041 443.85556 89.89104Q443.29306 90.53166 443.29306 91.82854ZM449.9493 97.78166L449.9493 88.46916L450.98056 88.46916L450.98056 89.34416Q451.35556 88.82854 451.8165 88.570724Q452.27744 88.31291 452.9493 88.31291Q453.8087 88.31291 454.46494 88.758224Q455.1212 89.20354 455.45712 90.008224Q455.79306 90.81291 455.79306 91.78166Q455.79306 92.81291 455.42587 93.64104Q455.0587 94.46916 454.34775 94.914474Q453.6368 95.35979 452.85556 95.35979Q452.29306 95.35979 451.83994 95.1176Q451.3868 94.87541 451.08994 94.50041L451.08994 97.78166L449.9493 97.78166ZM450.98056 91.87541Q450.98056 93.17229 451.5118 93.79729Q452.04306 94.42229 452.77744 94.42229Q453.54306 94.42229 454.08994 93.77385Q454.6368 93.12541 454.6368 91.78166Q454.6368 90.48479 454.10556 89.84416Q453.5743 89.20354 452.83994 89.20354Q452.10556 89.20354 451.54306 89.883224Q450.98056 90.56291 450.98056 91.87541ZM459.8712 94.18791L460.02744 95.18791Q459.54306 95.29729 459.16806 95.29729Q458.54306 95.29729 458.1993 95.09416Q457.85556 94.89104 457.71494 94.570724Q457.5743 94.25041 457.5743 93.23479L457.5743 89.34416L456.7462 89.34416L456.7462 88.46916L457.5743 88.46916L457.5743 86.79729L458.71494 86.10979L458.71494 88.46916L459.8712 88.46916L459.8712 89.34416L458.71494 89.34416L458.71494 93.29729Q458.71494 93.78166 458.77744 93.92229Q458.83994 94.06291 458.97275 94.14104Q459.10556 94.21916 459.35556 94.21916Q459.5587 94.21916 459.8712 94.18791ZM461.0743 87.21916L461.0743 85.89104L462.21494 85.89104L462.21494 87.21916L461.0743 87.21916ZM461.0743 95.20354L461.0743 88.46916L462.21494 88.46916L462.21494 95.20354L461.0743 95.20354ZM463.60556 91.82854Q463.60556 89.95354 464.6368 89.06291Q465.5118 88.31291 466.7618 88.31291Q468.15244 88.31291 469.03525 89.21916Q469.91806 90.12541 469.91806 91.73479Q469.91806 93.03166 469.52744 93.78166Q469.1368 94.53166 468.3868 94.945724Q467.6368 95.35979 466.7618 95.35979Q465.33994 95.35979 464.47275 94.45354Q463.60556 93.54729 463.60556 91.82854ZM464.77744 91.82854Q464.77744 93.12541 465.33994 93.77385Q465.90244 94.42229 466.7618 94.42229Q467.60556 94.42229 468.17587 93.77385Q468.7462 93.12541 468.7462 91.79729Q468.7462 90.54729 468.17587 89.89885Q467.60556 89.25041 466.7618 89.25041Q465.90244 89.25041 465.33994 89.89104Q464.77744 90.53166 464.77744 91.82854ZM471.4493 95.20354L471.4493 88.46916L472.48056 88.46916L472.48056 89.42229Q473.21494 88.31291 474.6212 88.31291Q475.23056 88.31291 475.73837 88.53166Q476.2462 88.75041 476.504 89.101974Q476.7618 89.45354 476.85556 89.95354Q476.91806 90.26604 476.91806 91.06291L476.91806 95.20354L475.77744 95.20354L475.77744 91.10979Q475.77744 90.40666 475.64462 90.06291Q475.5118 89.71916 475.17587 89.508224Q474.83994 89.29729 474.3868 89.29729Q473.65244 89.29729 473.1212 89.758224Q472.58994 90.21916 472.58994 91.51604L472.58994 95.20354L471.4493 95.20354ZM483.2462 94.37541Q482.6212 94.90666 482.03525 95.133224Q481.4493 95.35979 480.77744 95.35979Q479.65244 95.35979 479.0587 94.81291Q478.46494 94.26604 478.46494 93.42229Q478.46494 92.93791 478.6915 92.52385Q478.91806 92.10979 479.28525 91.85979Q479.65244 91.60979 480.10556 91.48479Q480.4337 91.40666 481.1212 91.31291Q482.4962 91.15666 483.15244 90.92229Q483.16806 90.68791 483.16806 90.62541Q483.16806 89.92229 482.83994 89.64104Q482.40244 89.25041 481.54306 89.25041Q480.73056 89.25041 480.34775 89.53166Q479.96494 89.81291 479.77744 90.53166L478.66806 90.39104Q478.8087 89.67229 479.16025 89.226974Q479.5118 88.78166 480.17587 88.54729Q480.83994 88.31291 481.6993 88.31291Q482.5743 88.31291 483.11337 88.51604Q483.65244 88.71916 483.90244 89.02385Q484.15244 89.32854 484.2618 89.79729Q484.3087 90.09416 484.3087 90.85979L484.3087 92.37541Q484.3087 93.96916 484.3868 94.39104Q484.46494 94.81291 484.66806 95.20354L483.48056 95.20354Q483.3087 94.84416 483.2462 94.37541ZM483.15244 91.81291Q482.52744 92.07854 481.29306 92.25041Q480.58994 92.35979 480.29306 92.48479Q479.9962 92.60979 479.83994 92.851974Q479.6837 93.09416 479.6837 93.39104Q479.6837 93.84416 480.02744 94.14885Q480.3712 94.45354 481.04306 94.45354Q481.6993 94.45354 482.21494 94.164474Q482.73056 93.87541 482.98056 93.37541Q483.15244 93.00041 483.15244 92.23479L483.15244 91.81291ZM486.23056 95.20354L486.23056 85.89104L487.3712 85.89104L487.3712 95.20354L486.23056 95.20354ZM489.98056 97.93791L489.15244 97.93791Q491.0587 94.89104 491.0587 91.84416Q491.0587 90.64104 490.77744 89.46916Q490.5743 88.51604 490.1837 87.64104Q489.9337 87.07854 489.15244 85.73479L489.98056 85.73479Q491.16806 87.32854 491.7462 88.93791Q492.23056 90.32854 492.23056 91.82854Q492.23056 93.54729 491.5743 95.14885Q490.91806 96.75041 489.98056 97.93791ZM493.98056 89.76604L493.98056 88.46916L495.27744 88.46916L495.27744 89.76604L493.98056 89.76604ZM493.98056 95.20354L493.98056 93.90666L495.27744 93.90666L495.27744 95.20354L493.98056 95.20354Z" fill-rule="nonzero" fill="#000000"></path><path d="M343.02744 106.93791L344.2618 107.25041Q343.8712 108.76604 342.86337 109.56291Q341.85556 110.35979 340.40244 110.35979Q338.90244 110.35979 337.95712 109.75041Q337.0118 109.14104 336.51962 107.976974Q336.02744 106.81291 336.02744 105.48479Q336.02744 104.03166 336.58994 102.945724Q337.15244 101.85979 338.17587 101.29729Q339.1993 100.73479 340.4337 100.73479Q341.8243 100.73479 342.77744 101.445724Q343.73056 102.15666 344.10556 103.45354L342.8868 103.73479Q342.5587 102.71916 341.9493 102.258224Q341.33994 101.79729 340.40244 101.79729Q339.3243 101.79729 338.60556 102.31291Q337.8868 102.82854 337.59775 103.68791Q337.3087 104.54729 337.3087 105.46916Q337.3087 106.65666 337.65244 107.54729Q337.9962 108.43791 338.72275 108.87541Q339.4493 109.31291 340.3087 109.31291Q341.33994 109.31291 342.0587 108.71135Q342.77744 108.10979 343.02744 106.93791ZM345.85556 110.20354L345.85556 103.46916L346.8868 103.46916L346.8868 104.48479Q347.27744 103.76604 347.61337 103.539474Q347.9493 103.31291 348.33994 103.31291Q348.91806 103.31291 349.5118 103.67229L349.1212 104.73479Q348.6993 104.48479 348.29306 104.48479Q347.91806 104.48479 347.61337 104.71135Q347.3087 104.93791 347.1837 105.34416Q346.9962 105.95354 346.9962 106.67229L346.9962 110.20354L345.85556 110.20354ZM354.91806 108.03166L356.10556 108.17229Q355.8243 109.21916 355.0665 109.789474Q354.3087 110.35979 353.1368 110.35979Q351.65244 110.35979 350.78525 109.445724Q349.91806 108.53166 349.91806 106.89104Q349.91806 105.18791 350.80087 104.25041Q351.6837 103.31291 353.0743 103.31291Q354.4337 103.31291 355.28525 104.23479Q356.1368 105.15666 356.1368 106.81291Q356.1368 106.92229 356.1368 107.12541L351.10556 107.12541Q351.16806 108.23479 351.73056 108.82854Q352.29306 109.42229 353.1368 109.42229Q353.77744 109.42229 354.22275 109.08635Q354.66806 108.75041 354.91806 108.03166ZM351.16806 106.18791L354.9337 106.18791Q354.85556 105.32854 354.4962 104.90666Q353.9493 104.25041 353.08994 104.25041Q352.29306 104.25041 351.7618 104.77385Q351.23056 105.29729 351.16806 106.18791ZM362.1212 109.37541Q361.4962 109.90666 360.91025 110.133224Q360.3243 110.35979 359.65244 110.35979Q358.52744 110.35979 357.9337 109.81291Q357.33994 109.26604 357.33994 108.42229Q357.33994 107.93791 357.5665 107.52385Q357.79306 107.10979 358.16025 106.85979Q358.52744 106.60979 358.98056 106.48479Q359.3087 106.40666 359.9962 106.31291Q361.3712 106.15666 362.02744 105.92229Q362.04306 105.68791 362.04306 105.62541Q362.04306 104.92229 361.71494 104.64104Q361.27744 104.25041 360.41806 104.25041Q359.60556 104.25041 359.22275 104.53166Q358.83994 104.81291 358.65244 105.53166L357.54306 105.39104Q357.6837 104.67229 358.03525 104.226974Q358.3868 103.78166 359.05087 103.54729Q359.71494 103.31291 360.5743 103.31291Q361.4493 103.31291 361.98837 103.51604Q362.52744 103.71916 362.77744 104.02385Q363.02744 104.32854 363.1368 104.79729Q363.1837 105.09416 363.1837 105.85979L363.1837 107.37541Q363.1837 108.96916 363.2618 109.39104Q363.33994 109.81291 363.54306 110.20354L362.35556 110.20354Q362.1837 109.84416 362.1212 109.37541ZM362.02744 106.81291Q361.40244 107.07854 360.16806 107.25041Q359.46494 107.35979 359.16806 107.48479Q358.8712 107.60979 358.71494 107.851974Q358.5587 108.09416 358.5587 108.39104Q358.5587 108.84416 358.90244 109.14885Q359.2462 109.45354 359.91806 109.45354Q360.5743 109.45354 361.08994 109.164474Q361.60556 108.87541 361.85556 108.37541Q362.02744 108.00041 362.02744 107.23479L362.02744 106.81291ZM367.6368 109.18791L367.79306 110.18791Q367.3087 110.29729 366.9337 110.29729Q366.3087 110.29729 365.96494 110.09416Q365.6212 109.89104 365.48056 109.570724Q365.33994 109.25041 365.33994 108.23479L365.33994 104.34416L364.5118 104.34416L364.5118 103.46916L365.33994 103.46916L365.33994 101.79729L366.48056 101.10979L366.48056 103.46916L367.6368 103.46916L367.6368 104.34416L366.48056 104.34416L366.48056 108.29729Q366.48056 108.78166 366.54306 108.92229Q366.60556 109.06291 366.73837 109.14104Q366.8712 109.21916 367.1212 109.21916Q367.3243 109.21916 367.6368 109.18791ZM373.4493 108.03166L374.6368 108.17229Q374.35556 109.21916 373.59775 109.789474Q372.83994 110.35979 371.66806 110.35979Q370.1837 110.35979 369.3165 109.445724Q368.4493 108.53166 368.4493 106.89104Q368.4493 105.18791 369.33212 104.25041Q370.21494 103.31291 371.60556 103.31291Q372.96494 103.31291 373.8165 104.23479Q374.66806 105.15666 374.66806 106.81291Q374.66806 106.92229 374.66806 107.12541L369.6368 107.12541Q369.6993 108.23479 370.2618 108.82854Q370.8243 109.42229 371.66806 109.42229Q372.3087 109.42229 372.754 109.08635Q373.1993 108.75041 373.4493 108.03166ZM369.6993 106.18791L373.46494 106.18791Q373.3868 105.32854 373.02744 104.90666Q372.48056 104.25041 371.6212 104.25041Q370.8243 104.25041 370.29306 104.77385Q369.7618 105.29729 369.6993 106.18791ZM380.10556 110.20354L380.10556 100.89104L383.3087 100.89104Q384.40244 100.89104 384.96494 101.03166Q385.77744 101.21916 386.33994 101.70354Q387.0743 102.31291 387.4415 103.28166Q387.8087 104.25041 387.8087 105.50041Q387.8087 106.56291 387.5587 107.383224Q387.3087 108.20354 386.91806 108.73479Q386.52744 109.26604 386.0665 109.57854Q385.60556 109.89104 384.95712 110.04729Q384.3087 110.20354 383.46494 110.20354L380.10556 110.20354ZM381.33994 109.10979L383.3243 109.10979Q384.2462 109.10979 384.76962 108.93791Q385.29306 108.76604 385.60556 108.45354Q386.04306 108.01604 386.28525 107.27385Q386.52744 106.53166 386.52744 105.48479Q386.52744 104.01604 386.05087 103.23479Q385.5743 102.45354 384.8868 102.18791Q384.3868 102.00041 383.29306 102.00041L381.33994 102.00041L381.33994 109.10979ZM389.6837 110.20354L389.6837 100.89104L393.16806 100.89104Q394.2462 100.89104 394.8868 101.1801Q395.52744 101.46916 395.89462 102.0551Q396.2618 102.64104 396.2618 103.28166Q396.2618 103.87541 395.9337 104.39885Q395.60556 104.92229 394.96494 105.25041Q395.8087 105.50041 396.2618 106.09416Q396.71494 106.68791 396.71494 107.50041Q396.71494 108.15666 396.4337 108.71916Q396.15244 109.28166 395.7462 109.58635Q395.33994 109.89104 394.73056 110.04729Q394.1212 110.20354 393.23056 110.20354L389.6837 110.20354ZM390.91806 104.81291L392.9337 104.81291Q393.7462 104.81291 394.10556 104.70354Q394.5743 104.56291 394.8087 104.23479Q395.04306 103.90666 395.04306 103.42229Q395.04306 102.95354 394.8243 102.601974Q394.60556 102.25041 394.1915 102.12541Q393.77744 102.00041 392.77744 102.00041L390.91806 102.00041L390.91806 104.81291ZM390.91806 109.10979L393.23056 109.10979Q393.8243 109.10979 394.0743 109.06291Q394.4962 108.98479 394.77744 108.8051Q395.0587 108.62541 395.2462 108.289474Q395.4337 107.95354 395.4337 107.50041Q395.4337 106.98479 395.16806 106.601974Q394.90244 106.21916 394.42587 106.06291Q393.9493 105.90666 393.0587 105.90666L390.91806 105.90666L390.91806 109.10979ZM402.1837 102.21916L402.1837 100.89104L403.3243 100.89104L403.3243 102.21916L402.1837 102.21916ZM402.1837 110.20354L402.1837 103.46916L403.3243 103.46916L403.3243 110.20354L402.1837 110.20354ZM405.40244 110.20354L405.40244 104.34416L404.40244 104.34416L404.40244 103.46916L405.40244 103.46916L405.40244 102.75041Q405.40244 102.06291 405.52744 101.73479Q405.6993 101.29729 406.11337 101.01604Q406.52744 100.73479 407.27744 100.73479Q407.7618 100.73479 408.33994 100.85979L408.16806 101.84416Q407.8087 101.78166 407.4962 101.78166Q406.98056 101.78166 406.7618 102.008224Q406.54306 102.23479 406.54306 102.84416L406.54306 103.46916L407.85556 103.46916L407.85556 104.34416L406.54306 104.34416L406.54306 110.20354L405.40244 110.20354ZM412.54306 102.21916L412.54306 100.89104L413.6837 100.89104L413.6837 102.21916L412.54306 102.21916ZM412.54306 110.20354L412.54306 103.46916L413.6837 103.46916L413.6837 110.20354L412.54306 110.20354ZM418.0118 109.18791L418.16806 110.18791Q417.6837 110.29729 417.3087 110.29729Q416.6837 110.29729 416.33994 110.09416Q415.9962 109.89104 415.85556 109.570724Q415.71494 109.25041 415.71494 108.23479L415.71494 104.34416L414.8868 104.34416L414.8868 103.46916L415.71494 103.46916L415.71494 101.79729L416.85556 101.10979L416.85556 103.46916L418.0118 103.46916L418.0118 104.34416L416.85556 104.34416L416.85556 108.29729Q416.85556 108.78166 416.91806 108.92229Q416.98056 109.06291 417.11337 109.14104Q417.2462 109.21916 417.4962 109.21916Q417.6993 109.21916 418.0118 109.18791ZM427.29306 110.20354L427.29306 109.35979Q426.65244 110.35979 425.40244 110.35979Q424.60556 110.35979 423.92587 109.914474Q423.2462 109.46916 422.8712 108.67229Q422.4962 107.87541 422.4962 106.84416Q422.4962 105.82854 422.83994 105.008224Q423.1837 104.18791 423.85556 103.75041Q424.52744 103.31291 425.35556 103.31291Q425.96494 103.31291 426.4415 103.570724Q426.91806 103.82854 427.21494 104.23479L427.21494 100.89104L428.35556 100.89104L428.35556 110.20354L427.29306 110.20354ZM423.6837 106.84416Q423.6837 108.14104 424.22275 108.78166Q424.7618 109.42229 425.5118 109.42229Q426.2618 109.42229 426.78525 108.8051Q427.3087 108.18791 427.3087 106.93791Q427.3087 105.54729 426.77744 104.89885Q426.2462 104.25041 425.46494 104.25041Q424.6993 104.25041 424.1915 104.87541Q423.6837 105.50041 423.6837 106.84416ZM429.90244 106.82854Q429.90244 104.95354 430.9337 104.06291Q431.8087 103.31291 433.0587 103.31291Q434.4493 103.31291 435.33212 104.21916Q436.21494 105.12541 436.21494 106.73479Q436.21494 108.03166 435.8243 108.78166Q435.4337 109.53166 434.6837 109.945724Q433.9337 110.35979 433.0587 110.35979Q431.6368 110.35979 430.76962 109.45354Q429.90244 108.54729 429.90244 106.82854ZM431.0743 106.82854Q431.0743 108.12541 431.6368 108.77385Q432.1993 109.42229 433.0587 109.42229Q433.90244 109.42229 434.47275 108.77385Q435.04306 108.12541 435.04306 106.79729Q435.04306 105.54729 434.47275 104.89885Q433.90244 104.25041 433.0587 104.25041Q432.1993 104.25041 431.6368 104.89104Q431.0743 105.53166 431.0743 106.82854ZM442.33994 108.03166L443.52744 108.17229Q443.2462 109.21916 442.48837 109.789474Q441.73056 110.35979 440.5587 110.35979Q439.0743 110.35979 438.20712 109.445724Q437.33994 108.53166 437.33994 106.89104Q437.33994 105.18791 438.22275 104.25041Q439.10556 103.31291 440.4962 103.31291Q441.85556 103.31291 442.70712 104.23479Q443.5587 105.15666 443.5587 106.81291Q443.5587 106.92229 443.5587 107.12541L438.52744 107.12541Q438.58994 108.23479 439.15244 108.82854Q439.71494 109.42229 440.5587 109.42229Q441.1993 109.42229 441.64462 109.08635Q442.08994 108.75041 442.33994 108.03166ZM438.58994 106.18791L442.35556 106.18791Q442.27744 105.32854 441.91806 104.90666Q441.3712 104.25041 440.5118 104.25041Q439.71494 104.25041 439.1837 104.77385Q438.65244 105.29729 438.58994 106.18791ZM444.6993 108.18791L445.8243 108.01604Q445.91806 108.68791 446.35556 109.0551Q446.79306 109.42229 447.5743 109.42229Q448.35556 109.42229 448.73837 109.101974Q449.1212 108.78166 449.1212 108.34416Q449.1212 107.95354 448.77744 107.73479Q448.54306 107.57854 447.60556 107.34416Q446.35556 107.03166 445.8712 106.79729Q445.3868 106.56291 445.1368 106.15666Q444.8868 105.75041 444.8868 105.25041Q444.8868 104.79729 445.08994 104.414474Q445.29306 104.03166 445.65244 103.78166Q445.91806 103.57854 446.379 103.445724Q446.83994 103.31291 447.3712 103.31291Q448.15244 103.31291 448.754 103.539474Q449.35556 103.76604 449.64462 104.15666Q449.9337 104.54729 450.04306 105.20354L448.91806 105.35979Q448.83994 104.82854 448.48056 104.539474Q448.1212 104.25041 447.4493 104.25041Q446.66806 104.25041 446.3243 104.508224Q445.98056 104.76604 445.98056 105.12541Q445.98056 105.34416 446.1212 105.51604Q446.2618 105.70354 446.5587 105.82854Q446.73056 105.89104 447.5743 106.10979Q448.79306 106.43791 449.26962 106.64104Q449.7462 106.84416 450.01962 107.2426Q450.29306 107.64104 450.29306 108.21916Q450.29306 108.79729 449.95712 109.29729Q449.6212 109.79729 448.9962 110.07854Q448.3712 110.35979 447.5743 110.35979Q446.2618 110.35979 445.5743 109.81291Q444.8868 109.26604 444.6993 108.18791ZM455.5118 110.20354L455.5118 103.46916L456.54306 103.46916L456.54306 104.42229Q457.27744 103.31291 458.6837 103.31291Q459.29306 103.31291 459.80087 103.53166Q460.3087 103.75041 460.5665 104.101974Q460.8243 104.45354 460.91806 104.95354Q460.98056 105.26604 460.98056 106.06291L460.98056 110.20354L459.83994 110.20354L459.83994 106.10979Q459.83994 105.40666 459.70712 105.06291Q459.5743 104.71916 459.23837 104.508224Q458.90244 104.29729 458.4493 104.29729Q457.71494 104.29729 457.1837 104.758224Q456.65244 105.21916 456.65244 106.51604L456.65244 110.20354L455.5118 110.20354ZM462.5118 106.82854Q462.5118 104.95354 463.54306 104.06291Q464.41806 103.31291 465.66806 103.31291Q467.0587 103.31291 467.9415 104.21916Q468.8243 105.12541 468.8243 106.73479Q468.8243 108.03166 468.4337 108.78166Q468.04306 109.53166 467.29306 109.945724Q466.54306 110.35979 465.66806 110.35979Q464.2462 110.35979 463.379 109.45354Q462.5118 108.54729 462.5118 106.82854ZM463.6837 106.82854Q463.6837 108.12541 464.2462 108.77385Q464.8087 109.42229 465.66806 109.42229Q466.5118 109.42229 467.08212 108.77385Q467.65244 108.12541 467.65244 106.79729Q467.65244 105.54729 467.08212 104.89885Q466.5118 104.25041 465.66806 104.25041Q464.8087 104.25041 464.2462 104.89104Q463.6837 105.53166 463.6837 106.82854ZM472.83994 109.18791L472.9962 110.18791Q472.5118 110.29729 472.1368 110.29729Q471.5118 110.29729 471.16806 110.09416Q470.8243 109.89104 470.6837 109.570724Q470.54306 109.25041 470.54306 108.23479L470.54306 104.34416L469.71494 104.34416L469.71494 103.46916L470.54306 103.46916L470.54306 101.79729L471.6837 101.10979L471.6837 103.46916L472.83994 103.46916L472.83994 104.34416L471.6837 104.34416L471.6837 108.29729Q471.6837 108.78166 471.7462 108.92229Q471.8087 109.06291 471.9415 109.14104Q472.0743 109.21916 472.3243 109.21916Q472.52744 109.21916 472.83994 109.18791ZM482.35556 108.03166L483.54306 108.17229Q483.2618 109.21916 482.504 109.789474Q481.7462 110.35979 480.5743 110.35979Q479.08994 110.35979 478.22275 109.445724Q477.35556 108.53166 477.35556 106.89104Q477.35556 105.18791 478.23837 104.25041Q479.1212 103.31291 480.5118 103.31291Q481.8712 103.31291 482.72275 104.23479Q483.5743 105.15666 483.5743 106.81291Q483.5743 106.92229 483.5743 107.12541L478.54306 107.12541Q478.60556 108.23479 479.16806 108.82854Q479.73056 109.42229 480.5743 109.42229Q481.21494 109.42229 481.66025 109.08635Q482.10556 108.75041 482.35556 108.03166ZM478.60556 106.18791L482.3712 106.18791Q482.29306 105.32854 481.9337 104.90666Q481.3868 104.25041 480.52744 104.25041Q479.73056 104.25041 479.1993 104.77385Q478.66806 105.29729 478.60556 106.18791ZM484.3868 110.20354L486.85556 106.70354L484.5743 103.46916L485.9962 103.46916L487.04306 105.04729Q487.3243 105.50041 487.5118 105.79729Q487.77744 105.37541 488.0118 105.06291L489.15244 103.46916L490.52744 103.46916L488.1837 106.64104L490.6993 110.20354L489.29306 110.20354L487.91806 108.10979L487.54306 107.54729L485.77744 110.20354L484.3868 110.20354ZM491.8243 102.21916L491.8243 100.89104L492.96494 100.89104L492.96494 102.21916L491.8243 102.21916ZM491.8243 110.20354L491.8243 103.46916L492.96494 103.46916L492.96494 110.20354L491.8243 110.20354ZM494.3243 108.18791L495.4493 108.01604Q495.54306 108.68791 495.98056 109.0551Q496.41806 109.42229 497.1993 109.42229Q497.98056 109.42229 498.36337 109.101974Q498.7462 108.78166 498.7462 108.34416Q498.7462 107.95354 498.40244 107.73479Q498.16806 107.57854 497.23056 107.34416Q495.98056 107.03166 495.4962 106.79729Q495.0118 106.56291 494.7618 106.15666Q494.5118 105.75041 494.5118 105.25041Q494.5118 104.79729 494.71494 104.414474Q494.91806 104.03166 495.27744 103.78166Q495.54306 103.57854 496.004 103.445724Q496.46494 103.31291 496.9962 103.31291Q497.77744 103.31291 498.379 103.539474Q498.98056 103.76604 499.26962 104.15666Q499.5587 104.54729 499.66806 105.20354L498.54306 105.35979Q498.46494 104.82854 498.10556 104.539474Q497.7462 104.25041 497.0743 104.25041Q496.29306 104.25041 495.9493 104.508224Q495.60556 104.76604 495.60556 105.12541Q495.60556 105.34416 495.7462 105.51604Q495.8868 105.70354 496.1837 105.82854Q496.35556 105.89104 497.1993 106.10979Q498.41806 106.43791 498.89462 106.64104Q499.3712 106.84416 499.64462 107.2426Q499.91806 107.64104 499.91806 108.21916Q499.91806 108.79729 499.58212 109.29729Q499.2462 109.79729 498.6212 110.07854Q497.9962 110.35979 497.1993 110.35979Q495.8868 110.35979 495.1993 109.81291Q494.5118 109.26604 494.3243 108.18791ZM503.9493 109.18791L504.10556 110.18791Q503.6212 110.29729 503.2462 110.29729Q502.6212 110.29729 502.27744 110.09416Q501.9337 109.89104 501.79306 109.570724Q501.65244 109.25041 501.65244 108.23479L501.65244 104.34416L500.8243 104.34416L500.8243 103.46916L501.65244 103.46916L501.65244 101.79729L502.79306 101.10979L502.79306 103.46916L503.9493 103.46916L503.9493 104.34416L502.79306 104.34416L502.79306 108.29729Q502.79306 108.78166 502.85556 108.92229Q502.91806 109.06291 503.05087 109.14104Q503.1837 109.21916 503.4337 109.21916Q503.6368 109.21916 503.9493 109.18791ZM508.8087 112.79729L508.66806 111.73479Q509.04306 111.82854 509.3243 111.82854Q509.71494 111.82854 509.9415 111.70354Q510.16806 111.57854 510.3087 111.34416Q510.41806 111.17229 510.66806 110.50041Q510.6993 110.40666 510.7618 110.21916L508.1993 103.46916L509.4337 103.46916L510.83994 107.35979Q511.10556 108.10979 511.3243 108.92229Q511.52744 108.14104 511.79306 107.39104L513.2462 103.46916L514.38684 103.46916L511.8243 110.31291Q511.40244 111.42229 511.1837 111.84416Q510.8712 112.40666 510.48056 112.67229Q510.08994 112.93791 509.54306 112.93791Q509.21494 112.93791 508.8087 112.79729ZM520.1212 108.03166L521.3087 108.17229Q521.02747 109.21916 520.26965 109.789474Q519.51184 110.35979 518.33997 110.35979Q516.8556 110.35979 515.9884 109.445724Q515.1212 108.53166 515.1212 106.89104Q515.1212 105.18791 516.004 104.25041Q516.88684 103.31291 518.27747 103.31291Q519.63684 103.31291 520.4884 104.23479Q521.33997 105.15666 521.33997 106.81291Q521.33997 106.92229 521.33997 107.12541L516.3087 107.12541Q516.3712 108.23479 516.9337 108.82854Q517.4962 109.42229 518.33997 109.42229Q518.9806 109.42229 519.4259 109.08635Q519.8712 108.75041 520.1212 108.03166ZM516.3712 106.18791L520.13684 106.18791Q520.0587 105.32854 519.69934 104.90666Q519.15247 104.25041 518.2931 104.25041Q517.4962 104.25041 516.96497 104.77385Q516.4337 105.29729 516.3712 106.18791ZM525.4337 109.18791L525.58997 110.18791Q525.1056 110.29729 524.7306 110.29729Q524.1056 110.29729 523.76184 110.09416Q523.4181 109.89104 523.27747 109.570724Q523.13684 109.25041 523.13684 108.23479L523.13684 104.34416L522.3087 104.34416L522.3087 103.46916L523.13684 103.46916L523.13684 101.79729L524.27747 101.10979L524.27747 103.46916L525.4337 103.46916L525.4337 104.34416L524.27747 104.34416L524.27747 108.29729Q524.27747 108.78166 524.33997 108.92229Q524.40247 109.06291 524.5353 109.14104Q524.6681 109.21916 524.9181 109.21916Q525.1212 109.21916 525.4337 109.18791Z" fill-rule="nonzero" fill="#000000"></path><path d="M388.7638 50.55643L401.81097 72.49456" fill-rule="evenodd" stroke="#674ea7" stroke-width="2.0" stroke-linejoin="round" stroke-linecap="butt"></path><path d="M398.97168 74.18316L406.45035 80.295425L404.65027 70.80597Z" fill-rule="evenodd" fill="#674ea7" stroke="#674ea7" stroke-width="2.0" stroke-linecap="butt"></path></svg>

