<?xml version="1.0" encoding="UTF-8" standalone="no"?>
<svg xmlns:svg="http://www.w3.org/2000/svg" xmlns="http://www.w3.org/2000/svg" version="1.1" width="100%" height="100%" viewBox="0 0 565 124" id="svg2" style="fill:none;stroke:none">
  <text x="105" y="25" xml:space="preserve" textLength="57" style="font-size:20px;font-style:normal;font-weight:normal;fill:#000000;fill-opacity:1;stroke:none;font-family:Verdana, sans-serif">jdbc : </text>
  <text x="160" y="25" xml:space="preserve" textLength="126" style="font-size:20px;font-style:normal;font-weight:normal;fill:#000000;fill-opacity:1;stroke:none;font-family:Verdana, sans-serif">oracle:thin :</text>
  <text x="268" y="25" xml:space="preserve" textLength="125" style="font-size:20px;font-style:normal;font-weight:normal;fill:#000000;fill-opacity:1;stroke:none;font-family:Verdana, sans-serif">@localhost :</text>
  <text x="379" y="25" xml:space="preserve" textLength="68" style="font-size:20px;font-style:normal;font-weight:normal;fill:#000000;fill-opacity:1;stroke:none;font-family:Verdana, sans-serif">1521 : </text>
  <text x="440" y="25" xml:space="preserve" textLength="27" style="font-size:20px;font-style:normal;font-weight:normal;fill:#000000;fill-opacity:1;stroke:none;font-family:Verdana, sans-serif">XE</text>
  <path d="m 200,30 100,0" style="stroke:#ff9900;stroke-width:3;stroke-linecap:butt;stroke-linejoin:round" />
  <path d="m 400,30 0,0" style="stroke:#0000ff;stroke-width:3;stroke-linecap:butt;stroke-linejoin:round" />
  <path d="m 400,30 100,0" style="stroke:#674ea7;stroke-width:3;stroke-linecap:butt;stroke-linejoin:round" />
  <path d="M 200,40 100,70" style="stroke:#ff9900;stroke-width:2;stroke-linecap:butt;stroke-linejoin:round" />
  <path d="m 100,70 0,10 0,0 z" style="fill:#ff9900;fill-rule:evenodd;stroke:#ff9900;stroke-width:2;stroke-linecap:butt" />
  <path d="m 30,90 0,-10 0,0 q 0,0 10,0 0,0 0,0 0,0 0,0 0,0 0,10 0,0 0,0 0,0 0,0 0,0 0,0 0,0 0,0 -10,0 -10,0 l 0,0 z m 0,0 0,0 q 0,0 0,0 10,0 10,0 0,0 0,0 0,0 0,0 0,-10 0,-10 0,0 0,0 -10,0 -10,0 l 0,0 0,10 z m 10,0 0,-10 0,0 0,10 q 0,-10 0,-10 0,0 0,0 0,0 0,0 l 0,10 q 0,0 0,0 0,0 0,0 0,0 0,0 0,0 0,0 l 0,0 0,0 z m 0,-10 0,0 10,0 0,0 -10,0 z m 0,10 0,-10 10,0 0,10 -10,0 z m 10,0 0,-10 0,0 0,10 q 0,0 0,0 0,0 0,0 l 0,-10 0,0 0,10 0,0 z m 10,0 0,0 q 0,0 0,0 0,0 0,0 0,0 -10,0 0,0 0,0 0,0 0,-10 10,0 10,0 0,0 0,0 0,10 0,10 0,0 0,0 l -10,0 q 0,0 10,0 0,0 0,0 0,0 0,0 0,0 0,0 z m -10,0 10,0 q 0,0 0,0 0,-10 0,-10 0,0 0,10 -10,0 -10,0 z m 10,0 0,-10 0,0 0,10 q 0,-10 0,-10 0,0 0,0 0,0 0,0 l 0,10 q 0,0 0,0 0,0 0,0 0,0 0,0 0,0 0,0 l 0,0 0,0 z m 10,0 0,-10 0,0 10,10 0,-10 0,0 0,10 0,0 -10,-10 0,10 0,0 z m 10,0 q 0,0 0,0 0,0 0,0 0,0 0,0 0,0 0,0 0,0 0,0 0,0 0,0 0,0 0,0 0,0 0,0 0,0 0,0 0,0 0,0 0,0 0,0 0,-10 0,-10 0,0 0,10 0,0 0,0 l 0,0 q 0,0 0,-10 0,0 0,0 0,0 0,0 0,0 0,0 0,0 0,0 0,10 0,10 0,0 0,0 l 0,0 q 0,0 0,0 0,0 0,0 l 0,0 q 0,0 0,0 z m 0,0 q 0,0 0,0 0,0 0,0 0,0 0,0 0,0 0,0 0,0 0,0 0,0 0,0 0,0 0,0 0,0 0,0 0,0 0,0 l 0,0 z m 10,0 0,-10 0,0 0,10 q 0,-10 0,-10 0,0 0,0 0,0 0,0 0,0 0,10 0,-10 0,-10 0,0 10,0 0,10 0,10 l 0,0 -10,0 0,0 q 0,0 0,0 0,0 0,0 0,0 0,0 0,0 0,0 0,0 0,0 l 0,0 0,0 0,0 q 0,0 0,0 0,0 0,0 0,0 0,0 0,0 0,0 0,0 0,0 l 0,0 0,0 z m 10,0 0,0 q 0,0 0,0 0,0 0,0 0,0 0,0 0,0 0,0 0,0 0,-10 0,0 0,0 0,0 0,0 0,10 0,10 0,0 0,0 l 0,0 q 0,0 0,0 0,0 0,0 0,0 0,0 0,0 0,0 z m 0,0 0,0 q 0,0 0,0 0,-10 0,-10 0,0 0,10 0,0 0,0 z m 0,0 0,-10 0,0 0,10 0,0 z m 0,0 0,0 0,0 0,0 0,0 z" id="path16" style="fill:#000000;fill-rule:nonzero" />
  <path d="m 20,100 q 0,0 -10,0 0,0 0,0 0,0 0,0 0,0 0,0 0,0 0,0 0,0 0,0 0,0 0,0 0,0 0,0 10,0 10,0 0,0 0,0 0,0 0,0 0,0 -10,0 0,0 0,0 0,0 0,0 l 0,0 q 0,0 0,0 0,0 0,0 0,0 0,0 10,0 10,0 0,0 0,0 0,0 0,0 0,0 0,0 l 0,0 q 0,0 0,0 0,0 0,0 l 0,0 q 0,0 0,0 z m 0,0 q 0,0 -10,0 0,0 0,0 0,0 0,0 0,0 0,0 0,0 0,0 0,0 0,0 0,0 10,0 0,0 0,0 0,0 0,0 l 0,0 z m 0,0 0,0 0,0 0,0 0,0 z m 0,0 0,0 0,0 0,0 0,0 q 0,0 0,0 l 10,0 0,0 0,0 0,0 0,0 0,0 0,0 0,0 0,0 0,0 0,0 -10,0 0,0 z m 20,0 q 0,0 -10,0 0,0 0,0 0,0 0,0 0,0 0,0 0,0 0,0 0,0 0,0 0,0 0,0 0,0 0,0 10,0 10,0 0,0 0,0 0,0 0,0 0,0 -10,0 0,0 0,0 0,0 0,0 l 0,0 q 0,0 0,0 0,0 0,0 0,0 0,0 10,0 10,0 0,0 0,0 0,0 0,0 0,0 0,0 l 0,0 q 0,0 0,0 0,0 0,0 l 0,0 q 0,0 0,0 z m 0,0 q 0,0 -10,0 0,0 0,0 0,0 0,0 0,0 0,0 0,0 0,0 0,0 0,0 0,0 10,0 0,0 0,0 0,0 0,0 l 0,0 z m 0,0 0,0 q 0,0 0,0 0,0 0,0 0,0 0,0 0,0 0,0 0,0 0,0 l 0,0 0,0 0,0 q 0,0 0,0 0,0 0,0 l 0,0 0,0 0,0 q 0,0 0,0 0,0 0,0 0,0 0,0 0,0 0,0 z m 10,0 0,0 q 0,0 0,0 0,0 0,0 0,0 0,0 0,0 0,0 0,0 0,0 0,0 0,0 0,0 0,0 0,0 0,0 0,0 0,0 0,0 0,0 0,0 0,0 0,0 0,0 0,0 0,0 0,0 0,0 0,0 0,0 0,0 0,0 l 0,0 q 0,0 0,0 0,0 0,0 0,0 0,0 0,0 0,0 0,0 0,0 0,0 0,0 0,0 0,0 0,0 0,0 0,0 0,0 0,0 0,0 0,0 0,0 0,0 0,0 0,0 0,0 0,0 0,0 0,0 0,0 z m 10,0 0,0 0,0 0,0 0,0 0,0 0,0 z m 0,0 0,0 0,0 0,0 0,0 0,0 0,0 z m 0,0 q 0,0 0,0 0,0 0,0 0,0 10,0 0,0 0,0 0,0 0,0 0,0 0,0 -10,0 -10,0 0,0 0,0 0,0 0,0 z m 0,0 q 0,0 0,0 0,0 0,0 0,0 10,0 0,0 0,0 0,0 0,0 -10,0 -10,0 0,0 0,0 0,0 0,0 z m 10,0 0,0 0,0 0,0 q 0,0 0,0 0,0 0,0 0,0 0,0 l 0,0 q 0,0 0,0 0,0 0,0 0,0 0,0 0,0 0,0 l 0,0 0,0 z m 10,0 q 0,0 0,0 0,0 -10,0 0,0 0,0 0,0 0,0 0,0 0,0 0,0 0,0 0,0 0,0 0,0 0,0 10,0 10,0 0,0 0,0 0,0 0,0 0,0 0,0 -10,0 -10,0 0,0 0,0 l 0,0 q 0,0 0,0 0,0 0,0 0,0 10,0 0,0 0,0 0,0 0,0 0,0 0,0 0,0 0,0 l 0,0 q 0,0 0,0 0,0 0,0 l 0,0 q 0,0 0,0 z m 0,0 q 0,0 0,0 -10,0 -10,0 0,0 0,0 0,0 0,0 0,0 0,0 0,0 0,0 10,0 10,0 0,0 0,0 0,0 0,0 l 0,0 z m 0,0 10,0 q 0,0 -10,0 0,0 0,0 0,0 0,0 0,0 0,0 0,0 0,0 0,0 0,0 0,0 0,0 0,0 0,0 10,0 10,0 l -10,0 q 0,0 0,0 0,0 0,0 0,0 0,0 0,0 0,0 0,0 0,0 0,0 0,0 0,0 0,0 0,0 0,0 z m 10,0 0,0 0,0 0,0 0,0 z m 0,0 10,0 q 0,0 -10,0 0,0 0,0 0,0 0,0 0,0 0,0 0,0 0,0 0,0 0,0 0,0 0,0 10,0 10,0 0,0 0,0 l -10,0 q 0,0 0,0 0,0 0,0 0,0 0,0 0,0 0,0 z m 0,0 0,0 q 0,0 0,0 0,0 0,0 0,0 0,0 0,0 0,0 z m 10,0 0,0 0,0 0,0 0,0 z m 0,0 0,0 0,0 0,0 0,0 z m 0,0 0,0 q 0,0 0,0 0,0 0,0 0,0 0,0 0,0 0,0 l 0,0 0,0 0,0 0,0 0,0 0,0 0,0 0,0 0,0 0,0 0,0 q 0,0 0,0 0,0 0,0 0,0 0,0 0,0 0,0 z m 0,0 0,0 0,0 0,0 q 0,0 0,0 0,0 0,0 0,0 0,0 0,0 0,0 l 0,0 0,0 0,0 q 0,0 0,0 0,0 0,0 0,0 0,0 0,0 0,0 0,0 0,0 l 0,0 0,0 z m 0,0 0,0 0,0 0,0 0,0 z m 0,0 0,0 0,0 0,0 0,0 z m 0,0 0,0 0,0 0,0 q 0,0 0,0 0,0 0,0 0,0 0,0 0,0 0,0 0,0 0,0 l 0,0 0,0 0,0 q 0,0 0,0 0,0 0,0 0,0 0,0 0,0 0,0 0,0 0,0 l 0,0 0,0 z m 0,0 0,0 0,0 0,0 0,0 0,0 0,0 z m 0,0 0,0 0,0 0,0 0,0 0,0 0,0 z" id="path18" style="fill:#000000;fill-rule:nonzero" />
  <path d="m 200,100 0,-10 0,0 0,0 0,0 0,0 0,0 0,10 0,0 0,-10 0,0 0,10 0,0 z m 0,-10 q 0,0 0,0 0,0 0,0 0,0 0,0 0,0 0,0 0,0 0,0 0,0 0,0 0,10 0,10 0,0 0,-10 0,0 0,0 z m 0,0 q 0,0 0,0 0,0 0,0 0,0 0,0 0,0 0,0 0,0 0,0 0,0 0,0 0,0 0,0 0,0 0,0 z m 0,0 0,0 q 0,0 0,0 0,0 0,0 0,0 0,0 0,0 0,0 0,0 0,0 0,0 0,0 0,0 0,0 0,0 0,0 0,0 0,0 0,0 0,0 0,0 0,0 0,0 0,0 0,0 0,0 0,0 0,0 0,0 0,0 0,0 0,0 l 0,0 q 0,0 0,0 0,0 0,0 0,0 0,0 0,0 0,0 0,0 0,0 0,0 0,0 0,0 0,0 0,0 0,0 0,0 0,0 0,0 0,0 0,0 0,0 0,0 0,0 0,10 0,10 0,0 0,-10 0,0 0,0 z m 0,0 0,10 q 0,0 0,0 0,0 0,-10 0,0 0,0 0,0 0,0 l 0,0 0,0 0,0 0,0 0,0 0,0 0,0 0,0 0,0 0,0 0,0 q 0,0 0,0 0,0 0,0 0,0 0,0 0,0 0,0 z m 0,10 0,-10 0,0 0,0 q 0,0 0,0 0,0 0,0 0,0 0,0 0,0 0,0 0,0 0,0 l 0,10 0,0 0,-10 q 0,0 0,0 0,0 0,0 0,0 0,0 0,0 0,0 0,0 0,0 l 0,10 0,0 z m 0,-10 q 0,0 0,10 0,0 0,0 0,0 0,-10 0,0 0,0 0,0 0,0 0,0 0,0 0,0 0,0 0,0 0,0 0,0 0,0 0,0 0,0 0,0 0,0 0,0 0,0 0,0 0,0 0,0 0,0 l 0,0 q 0,0 0,0 0,0 0,0 0,0 0,0 0,0 0,0 0,0 0,0 0,0 0,0 0,0 0,0 l 0,0 q 0,0 0,0 0,0 0,10 l 0,0 q 0,-10 0,-10 z m 0,0 q 0,0 0,0 0,0 0,0 0,0 0,0 0,0 0,0 0,0 0,0 0,0 0,0 0,0 0,0 0,0 0,0 0,0 0,0 l 0,0 z m 0,10 0,-10 0,0 0,0 q 0,0 0,0 0,0 0,0 0,0 0,0 0,0 0,0 0,0 0,0 0,0 0,0 0,0 0,0 l 0,10 0,0 0,-10 q 0,0 0,0 0,0 0,0 0,0 0,0 0,0 0,0 0,0 0,0 l 0,10 0,0 0,-10 q 0,0 0,0 0,0 0,0 0,0 0,0 0,0 0,0 0,0 0,0 l 0,10 0,0 z m 0,-10 0,0 q 0,0 0,0 0,10 0,10 0,0 0,-10 0,0 0,0 0,0 0,0 0,0 0,0 0,0 0,0 0,0 0,0 0,0 0,0 l 0,0 q 0,0 0,0 0,0 0,0 0,0 0,0 0,0 0,0 z m 0,0 0,0 q 0,0 0,0 0,0 0,0 0,0 0,0 0,0 0,0 z" id="path20" style="fill:#000000;fill-rule:nonzero" />
  <path d="M 400,40 300,70" style="stroke:#073763;stroke-width:2;stroke-linecap:butt;stroke-linejoin:round" />
  <path d="m 300,70 0,10 0,-10 z" style="fill:#073763;fill-rule:evenodd;stroke:#073763;stroke-width:2;stroke-linecap:butt" />
  <path d="m 400,90 0,0 q 0,0 0,0 0,0 0,0 0,0 0,0 0,0 0,0 0,0 0,0 0,0 0,0 0,0 0,0 0,0 0,0 0,0 0,0 0,0 0,0 0,0 0,-10 0,0 0,0 0,0 0,0 0,0 0,0 0,0 0,0 0,0 0,0 0,0 0,0 0,0 0,0 l 0,0 q 0,0 0,0 0,0 0,0 0,0 0,0 0,0 0,0 0,0 0,0 0,0 0,0 0,10 0,10 0,0 0,0 0,0 0,0 0,0 0,0 0,0 0,0 0,0 0,0 0,0 0,0 0,0 0,0 0,0 0,0 z m 0,0 0,0 q 0,0 0,0 0,0 0,0 0,0 0,0 0,0 0,0 0,0 0,0 l 0,-10 0,0 0,10 q 0,0 0,0 0,0 0,0 l 100,-10 0,0 -100,10 q 0,0 0,0 0,0 0,0 0,0 0,0 0,0 0,0 z m 100,0 0,0 q 0,0 0,0 0,0 0,0 0,0 0,0 0,0 0,0 0,0 0,0 0,0 0,0 0,0 0,0 0,0 0,0 0,0 0,0 0,0 0,-10 0,0 0,0 0,0 0,0 0,0 0,0 0,0 0,0 0,0 0,0 0,0 0,10 l 0,0 q 0,0 0,-10 0,0 0,0 0,0 0,0 0,0 0,10 0,0 0,0 0,0 0,0 0,0 0,0 0,0 0,0 0,0 0,0 0,0 0,0 0,0 0,0 0,0 0,0 0,0 0,0 0,0 0,0 0,0 0,0 z m 0,0 0,0 q 0,0 0,0 0,0 0,0 0,0 0,0 0,0 0,0 l 0,-10 0,0 0,0 0,0 0,0 0,0 0,0 0,0 0,0 0,0 0,10 q 0,0 0,0 0,0 0,0 0,0 0,0 0,0 0,0 z m 0,0 0,0 q 0,0 0,0 0,0 0,0 0,0 0,0 0,0 0,0 0,0 0,-10 0,0 0,0 0,0 0,0 0,10 0,10 0,0 0,0 l 0,0 q 0,0 0,0 0,0 0,0 0,0 0,0 0,0 0,0 z m 0,0 0,0 q 0,0 0,0 0,-10 0,-10 0,0 0,0 0,10 0,10 z m 0,0 0,-10 0,0 0,0 q 0,0 0,0 0,0 0,0 0,0 0,0 0,0 0,0 0,0 0,0 0,0 0,0 0,0 0,10 l 0,0 0,0 0,0 q 0,0 0,0 0,-10 0,-10 0,0 0,0 0,0 0,0 0,10 0,10 l 0,0 0,0 0,0 q 0,0 0,-10 0,0 0,0 0,0 0,0 0,10 0,10 0,0 0,0 l 0,0 0,0 z m 0,0 0,-10 0,0 0,10 0,0 z m 0,0 0,-10 0,0 q 0,0 0,0 0,0 0,0 0,0 0,0 0,0 0,10 0,0 0,0 0,0 0,0 0,0 0,0 0,0 0,0 0,0 0,0 l 0,0 z m 0,0 0,0 q 0,0 0,0 0,0 0,0 0,0 0,0 0,0 0,0 0,-10 0,-10 0,0 0,0 0,0 0,0 l 0,0 0,10 z m 0,0 q 0,0 0,0 0,0 0,0 0,0 0,-10 0,0 0,0 l 0,0 q 0,0 0,0 0,0 0,0 0,10 0,10 0,0 0,0 l 0,0 z m 0,0 0,0 q 0,0 0,0 0,0 0,0 0,0 0,0 0,0 0,0 0,0 0,0 0,0 0,0 0,0 0,0 0,0 0,0 0,0 0,0 0,0 0,0 0,0 0,-10 0,0 0,0 0,0 0,0 0,0 0,0 0,0 0,0 0,0 0,0 0,0 0,0 0,0 0,0 l 0,0 q 0,0 0,0 0,0 0,0 0,0 0,0 0,0 0,0 0,0 0,0 0,0 0,0 0,10 0,10 0,0 0,0 0,0 0,0 0,0 0,0 0,0 0,0 0,0 0,0 0,0 0,0 0,0 0,0 0,0 0,0 z m 0,0 0,-10 0,0 0,10 0,0 z m 0,0 0,-10 0,0 q 0,0 0,0 0,0 0,0 0,0 0,0 0,0 0,10 0,0 0,0 0,0 0,0 0,0 0,0 0,0 0,0 0,0 0,0 l 0,0 z m 0,0 0,0 q 0,0 0,0 0,0 0,0 0,0 0,0 0,0 0,0 0,-10 0,-10 0,0 0,0 0,0 0,0 l 0,0 0,10 z m 0,0 0,0 q 0,0 0,0 0,0 0,-10 0,0 0,0 0,0 0,0 l 0,0 q 0,0 0,0 0,10 0,10 0,0 0,0 0,0 0,0 z m 0,-10 0,0 0,0 0,0 0,0 z m 0,10 0,0 0,0 0,0 0,0 z" id="path26" style="fill:#000000;fill-rule:nonzero" />
  <path d="m 400,100 0,0 0,0 0,0 0,0 q 0,0 0,0 0,0 0,0 l 0,0 0,0 0,0 0,0 0,0 0,0 q 0,0 0,0 0,0 0,0 l 0,0 0,0 z m 0,0 0,0 0,0 0,0 0,0 0,0 0,0 0,0 0,0 0,0 0,0 0,0 0,0 z m 0,0 0,0 0,0 0,0 0,0 0,0 q 0,0 0,0 0,0 0,0 0,0 0,0 0,0 0,0 l 0,0 q 0,0 0,0 0,0 0,0 0,0 0,0 l 0,0 0,0 0,0 0,0 0,0 0,0 z m 0,0 q 0,0 0,0 0,0 0,0 100,0 100,0 0,0 0,0 0,0 0,0 0,0 0,0 0,0 -100,0 0,0 0,0 0,0 0,0 z m 0,0 q 0,0 0,0 0,0 0,0 0,0 100,0 0,0 0,0 0,0 0,0 -100,0 -100,0 0,0 0,0 0,0 0,0 z m 100,0 0,0 0,0 0,0 q 0,0 0,0 0,0 0,0 0,0 0,0 l 0,0 q 0,0 0,0 0,0 0,0 0,0 0,0 0,0 0,0 l 0,0 0,0 z m 0,0 0,0 0,0 0,0 0,0 0,0 0,0 0,0 0,0 0,0 0,0 0,0 0,0 z m 0,0 0,0 0,0 0,0 0,0 q 0,0 0,0 0,0 0,0 l 0,0 0,0 0,0 0,0 0,0 0,0 0,0 0,0 0,0 z m 0,0 0,0 0,0 0,0 q 0,0 0,0 0,0 0,0 0,0 0,0 0,0 0,0 0,0 0,0 0,0 0,0 0,0 0,0 0,0 0,0 0,0 0,0 0,0 0,0 l 0,0 0,0 z m 0,0 q 0,0 0,0 0,0 0,0 0,0 0,0 0,0 0,0 0,0 0,0 0,0 0,0 0,0 0,0 0,0 0,0 z m 0,0 0,0 0,0 0,0 q 0,0 0,0 0,0 0,0 0,0 0,0 l 0,0 q 0,0 0,0 0,0 0,0 0,0 0,0 0,0 0,0 l 0,0 0,0 z m 0,0 0,0 q 0,0 0,0 0,0 0,0 0,0 0,0 0,0 0,0 0,0 0,0 0,0 0,0 0,0 0,0 0,0 0,0 0,0 0,0 l 0,0 q 0,0 0,0 0,0 0,0 0,0 0,0 0,0 0,0 z m 0,0 0,0 q 0,0 0,0 0,0 0,0 0,0 0,0 0,0 0,0 z m 0,0 0,0 q 0,0 0,0 0,0 0,0 0,0 0,0 0,0 0,0 0,0 0,0 0,0 0,0 0,0 0,0 0,0 0,0 0,0 0,0 0,0 0,0 0,0 0,0 0,0 0,0 0,0 0,0 0,0 0,0 0,0 0,0 0,0 0,0 l 0,0 q 0,0 0,0 0,0 0,0 0,0 0,0 0,0 0,0 0,0 0,0 0,0 0,0 0,0 0,0 0,0 0,0 0,0 0,0 0,0 0,0 0,0 0,0 0,0 0,0 0,0 0,0 0,0 0,0 0,0 0,0 z m 0,0 0,0 q 0,0 0,0 0,0 0,0 0,0 0,0 0,0 0,0 0,0 0,0 0,0 0,0 0,0 0,0 0,0 0,0 0,0 0,0 0,0 0,0 0,0 0,0 0,0 0,0 0,0 0,0 0,0 0,0 0,0 0,0 0,0 0,0 l 0,0 q 0,0 0,0 0,0 0,0 0,0 0,0 0,0 0,0 0,0 0,0 0,0 0,0 0,0 0,0 0,0 0,0 0,0 0,0 0,0 0,0 0,0 0,0 0,0 0,0 0,0 0,0 0,0 0,0 0,0 0,0 z m 0,0 0,0 0,0 0,0 0,0 0,0 0,0 0,0 0,0 0,0 0,0 0,0 0,0 z m 0,0 0,0 q 0,0 0,0 0,0 0,0 0,0 0,0 0,0 0,0 0,0 0,0 0,0 0,0 0,0 0,0 0,0 0,0 0,0 0,0 l 0,0 0,0 0,0 0,0 z m 0,0 q 0,0 0,0 0,0 0,0 0,0 0,0 0,0 0,0 0,0 0,0 0,0 0,0 0,0 0,0 0,0 0,0 z m 0,0 0,0 0,0 0,0 0,0 z m 0,0 0,0 0,0 0,0 0,0 z m 0,0 0,0 q 0,0 0,0 0,0 0,0 0,0 0,0 0,0 0,0 l 0,0 0,0 0,0 0,0 0,0 0,0 0,0 0,0 0,0 0,0 0,0 q 0,0 0,0 0,0 0,0 0,0 0,0 0,0 0,0 z m 0,0 0,0 0,0 0,0 0,0 z m 0,0 0,0 0,0 0,0 0,0 z m 0,0 q 0,0 0,0 0,0 0,0 0,0 0,0 0,0 0,0 0,0 0,0 0,0 0,0 0,0 0,0 0,0 0,0 0,0 0,0 z m 0,0 q 0,0 0,0 0,0 0,0 0,0 0,0 0,0 0,0 0,0 0,0 0,0 0,0 0,0 0,0 0,0 0,0 z m 0,0 0,0 0,0 0,0 q 0,0 100,0 0,0 0,0 0,0 0,0 0,0 0,0 0,0 0,0 l 0,0 0,0 0,0 q 0,0 0,0 0,0 0,0 0,0 0,0 -100,0 -100,0 0,0 0,0 l 0,0 0,0 z" id="path28" style="fill:#000000;fill-rule:nonzero" />
  <path d="M 400,40 500,70" style="stroke:#674ea7;stroke-width:2;stroke-linecap:butt;stroke-linejoin:round" />
  <path d="m 500,70 0,10 0,-10 z" style="fill:#674ea7;fill-rule:evenodd;stroke:#674ea7;stroke-width:2;stroke-linecap:butt" />
  <path d="m 300,30 100,0" style="stroke:#ff0000;stroke-width:3;stroke-linecap:butt;stroke-linejoin:round" />
  <path d="M 300,40 200,70" style="stroke:#ff0000;stroke-width:2;stroke-linecap:butt;stroke-linejoin:round" />
  <path d="m 200,70 0,10 0,0 z" style="fill:#ff0000;fill-rule:evenodd;stroke:#ff0000;stroke-width:2;stroke-linecap:butt" />
  <path d="m 300,90 0,-10 0,0 q 0,0 0,0 0,0 0,0 0,0 0,0 0,0 0,0 0,10 0,10 0,0 0,0 l 0,0 0,0 0,0 z m 0,0 0,0 q 0,0 0,0 0,0 0,-10 0,0 0,0 0,0 0,0 0,0 0,0 l 0,0 0,10 z m 0,0 q 0,0 0,-10 0,0 0,0 0,0 0,0 0,10 0,10 0,0 0,0 0,0 0,0 0,0 0,0 0,0 0,0 0,0 0,0 z m 0,0 q 0,0 0,0 0,0 0,0 0,0 0,0 0,0 0,0 0,0 0,0 0,-10 0,-10 0,0 0,10 0,0 0,0 z m 0,0 0,-10 0,0 0,10 q 0,-10 0,-10 0,0 0,0 0,0 0,0 l 0,10 q 0,0 0,0 0,0 0,0 0,0 0,0 0,0 0,0 l 0,0 0,0 z m 0,0 0,0 q 0,0 0,0 0,0 0,0 0,0 0,0 0,0 0,0 l 0,0 0,0 0,-10 0,0 0,0 0,0 0,0 0,0 0,10 0,0 0,0 q 0,0 0,0 0,0 0,0 0,0 0,0 0,0 0,0 z m 0,0 0,-10 0,0 0,10 0,0 z m 0,0 0,0 0,0 0,0 0,0 z" id="path40" style="fill:#000000;fill-rule:nonzero" />
  <path d="m 300,100 0,0 0,0 q 0,0 0,0 0,0 0,0 l 0,0 q 0,0 0,0 0,0 0,0 l 0,0 0,0 z m 0,0 0,0 q 0,0 0,0 0,0 0,0 0,0 0,0 0,0 0,0 0,0 0,0 0,0 0,0 0,0 0,0 0,0 0,0 l 0,0 0,0 0,0 0,0 0,0 0,0 q 0,0 0,0 0,0 0,0 0,0 0,0 0,0 0,0 0,0 0,0 0,0 0,0 0,0 0,0 z m 0,0 0,0 0,0 q 0,0 0,0 0,0 0,0 0,0 0,0 0,0 0,0 0,0 0,0 0,0 0,0 0,0 0,0 0,0 0,0 0,0 0,0 l 0,0 q 0,0 0,0 0,0 0,0 0,0 0,0 0,0 0,0 0,0 0,0 0,0 0,0 0,0 0,0 0,0 0,0 0,0 0,0 l 0,0 z m 0,0 0,0 0,0 q 0,0 0,0 0,0 0,0 l 0,0 q 0,0 0,0 0,0 0,0 l 0,0 0,0 z m 0,0 0,0 0,0 0,0 0,0 z m 0,0 0,0 0,0 0,0 0,0 z m 0,0 0,0 q 0,0 0,0 0,0 0,0 0,0 0,0 0,0 0,0 0,0 0,0 0,0 0,0 0,0 0,0 0,0 0,0 0,0 0,0 0,0 0,0 0,0 0,0 0,0 0,0 0,0 0,0 0,0 0,0 0,0 0,0 0,0 0,0 l 0,0 q 0,0 0,0 0,0 0,0 0,0 0,0 0,0 0,0 0,0 0,0 0,0 0,0 0,0 0,0 0,0 0,0 0,0 0,0 0,0 0,0 0,0 0,0 0,0 0,0 0,0 0,0 0,0 0,0 0,0 0,0 z m 0,0 0,0 q 0,0 0,0 0,0 0,0 0,0 0,0 0,0 0,0 0,0 0,0 0,0 0,0 0,0 0,0 0,0 0,0 0,0 0,0 l 0,0 0,0 0,0 0,0 z m 0,0 q 0,0 0,0 0,0 0,0 0,0 0,0 0,0 0,0 0,0 0,0 0,0 0,0 0,0 0,0 0,0 0,0 z m 0,0 0,0 q 0,0 0,0 0,0 0,0 0,0 0,0 0,0 0,0 0,0 0,0 0,0 0,0 0,0 0,0 0,0 0,0 0,0 0,0 l 0,0 q 0,0 0,0 0,0 0,0 0,0 0,0 0,0 0,0 z m 0,0 0,0 q 0,0 0,0 0,0 0,0 0,0 0,0 0,0 0,0 z m 0,0 0,0 0,0 0,0 0,0 0,0 q 0,0 0,0 0,0 0,0 0,0 0,0 0,0 0,0 l 0,0 q 0,0 0,0 0,0 0,0 0,0 0,0 l 0,0 0,0 0,0 0,0 0,0 0,0 z m 0,0 q 0,0 0,0 0,0 0,0 0,0 0,0 0,0 0,0 0,0 0,0 0,0 0,0 0,0 0,0 0,0 0,0 0,0 0,0 0,0 0,0 0,0 0,0 0,0 0,0 0,0 0,0 0,0 0,0 l 0,0 q 0,0 0,0 0,0 0,0 0,0 0,0 0,0 0,0 0,0 0,0 0,0 0,0 0,0 0,0 l 0,0 q 0,0 0,0 0,0 0,0 l 0,0 q 0,0 0,0 z m 0,0 q 0,0 0,0 0,0 0,0 0,0 0,0 0,0 0,0 0,0 0,0 0,0 0,0 0,0 0,0 0,0 0,0 0,0 0,0 l 0,0 z m 0,0 0,0 q 0,0 0,0 0,0 0,0 0,0 0,0 0,0 0,0 0,0 0,0 l 0,0 0,0 0,0 q 0,0 0,0 0,0 0,0 0,0 0,0 0,0 0,0 0,0 0,0 0,0 0,0 l 0,0 0,0 0,0 0,0 z m 0,0 0,0 0,0 0,0 0,0 z m 0,0 0,0 q 0,0 0,0 0,0 0,0 0,0 0,0 0,0 0,0 l 0,0 0,0 0,0 0,0 0,0 0,0 0,0 0,0 0,0 0,0 0,0 q 0,0 0,0 0,0 0,0 0,0 0,0 0,0 0,0 z m 0,0 q 0,0 0,0 0,0 0,0 0,0 0,0 0,0 0,0 l 0,0 q 0,0 0,0 0,0 0,0 0,0 0,0 0,0 0,0 l 0,0 z m 0,0 q 0,0 0,0 0,0 0,0 100,0 100,0 0,0 0,0 0,0 0,0 0,0 0,0 0,0 -100,0 0,0 0,0 0,0 0,0 z m 0,0 q 0,0 0,0 0,0 0,0 100,0 100,0 0,0 0,0 0,0 0,0 0,0 -100,0 0,0 0,0 0,0 0,0 z m 100,0 0,0 0,0 0,0 q 0,0 0,0 0,0 0,0 0,0 0,0 0,0 0,0 0,0 0,0 0,0 0,0 0,0 0,0 0,0 0,0 0,0 0,0 0,0 0,0 l 0,0 0,0 z m 0,0 q 0,0 0,0 0,0 0,0 0,0 0,0 0,0 0,0 0,0 0,0 0,0 0,0 0,0 0,0 0,0 0,0 z m 0,0 0,0 q 0,0 0,0 0,0 0,0 0,0 0,0 0,0 0,0 l 0,0 0,0 0,0 0,0 0,0 0,0 0,0 0,0 0,0 0,0 0,0 q 0,0 0,0 0,0 0,0 0,0 0,0 0,0 0,0 z m 0,0 0,0 0,0 0,0 0,0 z m 0,0 0,0 0,0 0,0 0,0 z m 0,0 q 0,0 0,0 0,0 0,0 0,0 0,0 0,0 0,0 0,0 0,0 0,0 0,0 0,0 0,0 0,0 0,0 0,0 0,0 z m 0,0 q 0,0 0,0 0,0 0,0 0,0 0,0 0,0 0,0 0,0 0,0 0,0 0,0 0,0 0,0 0,0 0,0 z m 0,0 0,0 0,0 0,0 q 0,0 0,0 0,0 0,0 0,0 0,0 0,0 0,0 0,0 0,0 l 0,0 0,0 0,0 q 0,0 0,0 0,0 0,0 0,0 0,0 0,0 0,0 0,0 0,0 l 0,0 0,0 z m 0,0 q 0,0 0,0 0,0 0,0 0,0 0,0 0,0 0,0 0,0 0,0 0,0 0,0 0,0 0,0 0,0 0,0 0,0 0,0 0,0 0,0 0,0 0,0 0,0 0,0 0,0 0,0 0,0 0,0 l 0,0 q 0,0 0,0 0,0 0,0 0,0 0,0 0,0 0,0 0,0 0,0 0,0 0,0 0,0 0,0 l 0,0 q 0,0 0,0 0,0 0,0 l 0,0 q 0,0 0,0 z m 0,0 q 0,0 0,0 0,0 0,0 0,0 0,0 0,0 0,0 0,0 0,0 0,0 0,0 0,0 0,0 0,0 0,0 0,0 0,0 l 0,0 z m 0,0 0,0 0,0 0,0 0,0 z m 0,0 0,0 q 0,0 0,0 0,0 0,0 0,0 0,0 0,0 0,0 l 0,0 q 0,0 0,0 0,0 0,0 0,0 0,0 0,0 0,0 z" id="path42" style="fill:#000000;fill-rule:nonzero" />
</svg>
